<?xml version="1.0" encoding="UTF-8" standalone="no"?>
<!-- Created with Inkscape (http://www.inkscape.org/) -->

<svg
   xmlns:dc="http://purl.org/dc/elements/1.1/"
   xmlns:cc="http://creativecommons.org/ns#"
   xmlns:rdf="http://www.w3.org/1999/02/22-rdf-syntax-ns#"
   xmlns:svg="http://www.w3.org/2000/svg"
   xmlns="http://www.w3.org/2000/svg"
   xmlns:sodipodi="http://sodipodi.sourceforge.net/DTD/sodipodi-0.dtd"
   xmlns:inkscape="http://www.inkscape.org/namespaces/inkscape"
   version="1.1"
   id="svg4750"
   xml:space="preserve"
   width="112.91554"
   height="112.91554"
   viewBox="0 0 112.91554 112.91554"
   sodipodi:docname="ansatz2.svg"
   inkscape:version="0.92.3 (2405546, 2018-03-11)"><metadata
     id="metadata4756"><rdf:RDF><cc:Work
         rdf:about=""><dc:format>image/svg+xml</dc:format><dc:type
           rdf:resource="http://purl.org/dc/dcmitype/StillImage" /><dc:title></dc:title></cc:Work></rdf:RDF></metadata><defs
     id="defs4754"><clipPath
       clipPathUnits="userSpaceOnUse"
       id="clipPath4770"><path
         d="M 10.586,10.164 H 76.219 V 75.371 H 10.586 Z"
         id="path4768"
         inkscape:connector-curvature="0" /></clipPath><clipPath
       clipPathUnits="userSpaceOnUse"
       id="clipPath4780"><path
         d="M 0,0 H 85 V 85 H 0 Z"
         id="path4778"
         inkscape:connector-curvature="0" /></clipPath><clipPath
       clipPathUnits="userSpaceOnUse"
       id="clipPath4796"><path
         d="M 0,0 H 85 V 85 H 0 Z"
         id="path4794"
         inkscape:connector-curvature="0" /></clipPath><clipPath
       clipPathUnits="userSpaceOnUse"
       id="clipPath4812"><path
         d="M 0,0 H 85 V 85 H 0 Z"
         id="path4810"
         inkscape:connector-curvature="0" /></clipPath><clipPath
       clipPathUnits="userSpaceOnUse"
       id="clipPath4828"><path
         d="M 0,0 H 85 V 85 H 0 Z"
         id="path4826"
         inkscape:connector-curvature="0" /></clipPath></defs><sodipodi:namedview
     pagecolor="#ffffff"
     bordercolor="#666666"
     borderopacity="1"
     objecttolerance="10"
     gridtolerance="10"
     guidetolerance="10"
     inkscape:pageopacity="0"
     inkscape:pageshadow="2"
     inkscape:window-width="1920"
     inkscape:window-height="1053"
     id="namedview4752"
     showgrid="false"
     inkscape:zoom="2.0900577"
     inkscape:cx="56.457771"
     inkscape:cy="56.457771"
     inkscape:window-x="0"
     inkscape:window-y="0"
     inkscape:window-maximized="1"
     inkscape:current-layer="g4758" /><g
     id="g4758"
     inkscape:groupmode="layer"
     inkscape:label="ansatz2"
     transform="matrix(1.3333333,0,0,1.3333333,0,5.4895551e-6)"><g
       id="g4760"><path
         d="M 0,0 H 84.688 V 84.688 H 0 Z"
         style="fill:#ffffff;fill-opacity:1;fill-rule:nonzero;stroke:none"
         id="path4762"
         inkscape:connector-curvature="0" /></g><g
       id="g4772"><g
         id="g4774"><g
           id="g4776"
           clip-path="url(#clipPath4780)"><g
             id="g4782"><g
               id="g4784"
               transform="scale(1,-1)"><path
                 d="m 13.57,-13.125 0.602,-1.586 0.601,-1.566 0.606,-1.543 0.601,-1.52 0.602,-1.5 0.602,-1.48 0.605,-1.457 0.602,-1.434 0.601,-1.414 0.606,-1.395 0.601,-1.371 0.602,-1.347 0.601,-1.328 0.606,-1.309 0.601,-1.285 0.602,-1.262 0.605,-1.242 0.602,-1.223 0.602,-1.195 0.601,-1.18 0.606,-1.156 0.601,-1.133 0.602,-1.113 0.605,-1.094 0.602,-1.066 0.601,-1.051 0.602,-1.027 0.605,-1.004 0.602,-0.985 0.601,-0.961 0.606,-0.941 0.601,-0.922 0.602,-0.894 0.602,-0.879 0.605,-0.856 0.602,-0.832 0.601,-0.812 0.606,-0.789 0.601,-0.77 0.602,-0.746 0.601,-0.727 0.606,-0.703 0.601,-0.683 0.602,-0.66 0.605,-0.641 0.602,-0.621 0.602,-0.594 0.601,-0.578 0.606,-0.551 0.601,-0.535 0.602,-0.508 0.605,-0.492 0.602,-0.465 0.601,-0.449 0.602,-0.422 0.605,-0.406 0.602,-0.379 0.601,-0.359 0.606,-0.34 0.601,-0.317 0.602,-0.297 0.602,-0.273 0.605,-0.254 0.602,-0.23 0.601,-0.211 0.606,-0.188 0.601,-0.168 0.602,-0.144 0.601,-0.125 0.606,-0.102 0.601,-0.078 0.602,-0.059 0.605,-0.039 0.602,-0.015 0.602,0.004 0.601,0.027 0.606,0.047 0.601,0.07 0.602,0.094 0.605,0.113 0.602,0.133 0.601,0.156 0.602,0.176 0.605,0.199 0.602,0.223 0.601,0.242 0.606,0.262 0.601,0.285 0.602,0.309 0.605,0.324 0.602,0.351 0.602,0.371 0.601,0.391 0.606,0.414 0.601,0.438 0.602,0.457 0.605,0.476 0.602,0.5 0.601,0.524"
                 style="fill:none;stroke:#800000;stroke-width:1.88192594;stroke-linecap:square;stroke-linejoin:round;stroke-miterlimit:10;stroke-dasharray:none;stroke-opacity:1"
                 id="path4786"
                 inkscape:connector-curvature="0" /></g></g></g></g></g><g
       id="g4788"><g
         id="g4790"><g
           id="g4792"
           clip-path="url(#clipPath4796)"><g
             id="g4798"><g
               id="g4800"
               transform="scale(1,-1)"><path
                 d="m 13.57,-65.82 0.602,2.105 0.601,2.067 0.606,2.019 0.601,1.981 0.602,1.933 0.602,1.895 0.605,1.847 0.602,1.809 0.601,1.762 0.606,1.722 0.601,1.676 0.602,1.637 0.601,1.59 0.606,1.547 0.601,1.507 0.602,1.461 0.605,1.418 0.602,1.379 0.602,1.332 0.601,1.289 0.606,1.25 0.601,1.203 0.602,1.161 0.605,1.121 0.602,1.074 0.601,1.031 0.602,0.988 0.605,0.95 0.602,0.902 0.601,0.859 0.606,0.817 0.601,0.777 0.602,0.731 0.602,0.687 0.605,0.645 0.602,0.601 0.601,0.559 0.606,0.519 0.601,0.473 0.602,0.43 0.601,0.386 0.606,0.344 0.601,0.301 0.602,0.258 0.605,0.215 0.602,0.171 0.602,0.129 0.601,0.086 0.606,0.043 h 0.601 l 0.602,-0.043 0.605,-0.086 0.602,-0.129 0.601,-0.171 0.602,-0.215 0.605,-0.258 0.602,-0.301 0.601,-0.344 0.606,-0.386 0.601,-0.43 0.602,-0.473 0.602,-0.519 0.605,-0.559 0.602,-0.601 0.601,-0.645 0.606,-0.687 0.601,-0.731 0.602,-0.777 0.601,-0.817 0.606,-0.859 0.601,-0.902 0.602,-0.95 0.605,-0.988 0.602,-1.031 0.602,-1.074 0.601,-1.121 0.606,-1.161 0.601,-1.203 0.602,-1.25 0.605,-1.289 0.602,-1.332 0.601,-1.379 0.602,-1.418 0.605,-1.461 0.602,-1.507 0.601,-1.547 0.606,-1.59 0.601,-1.637 0.602,-1.676 0.605,-1.722 0.602,-1.762 0.602,-1.809 0.601,-1.847 0.606,-1.895 0.601,-1.933 0.602,-1.981 0.605,-2.019 0.602,-2.067 0.601,-2.105"
                 style="fill:none;stroke:#ff7f0e;stroke-width:1.88192594;stroke-linecap:square;stroke-linejoin:round;stroke-miterlimit:10;stroke-dasharray:none;stroke-opacity:1"
                 id="path4802"
                 inkscape:connector-curvature="0" /></g></g></g></g></g><g
       id="g4804"
       style="stroke:#ffcc00"><g
         id="g4806"
         style="stroke:#ffcc00"><g
           id="g4808"
           clip-path="url(#clipPath4812)"
           style="stroke:#ffcc00"><g
             id="g4814"
             style="stroke:#ffcc00"><g
               id="g4816"
               transform="scale(1,-1)"
               style="stroke:#ffcc00"><path
                 d="m 13.57,-65.82 0.602,-0.524 0.601,-0.5 0.606,-0.476 0.601,-0.457 0.602,-0.438 0.602,-0.414 0.605,-0.391 0.602,-0.371 0.601,-0.351 0.606,-0.324 0.601,-0.309 0.602,-0.285 0.601,-0.262 0.606,-0.242 0.601,-0.223 0.602,-0.199 0.605,-0.176 0.602,-0.156 0.602,-0.133 0.601,-0.113 0.606,-0.094 0.601,-0.07 0.602,-0.047 0.605,-0.027 0.602,-0.004 0.601,0.015 0.602,0.039 0.605,0.059 0.602,0.078 0.601,0.102 0.606,0.125 0.601,0.144 0.602,0.168 0.602,0.188 0.605,0.211 0.602,0.23 0.601,0.254 0.606,0.273 0.601,0.297 0.602,0.317 0.601,0.34 0.606,0.359 0.601,0.379 0.602,0.406 0.605,0.422 0.602,0.449 0.602,0.465 0.601,0.492 0.606,0.508 0.601,0.535 0.602,0.551 0.605,0.578 0.602,0.594 0.601,0.621 0.602,0.641 0.605,0.66 0.602,0.683 0.601,0.703 0.606,0.727 0.601,0.746 0.602,0.77 0.602,0.789 0.605,0.812 0.602,0.832 0.601,0.856 0.606,0.879 0.601,0.894 0.602,0.922 0.601,0.941 0.606,0.961 0.601,0.985 0.602,1.004 0.605,1.027 0.602,1.051 0.602,1.066 0.601,1.094 0.606,1.113 0.601,1.133 0.602,1.156 0.605,1.18 0.602,1.195 0.601,1.223 0.602,1.242 0.605,1.262 0.602,1.285 0.601,1.309 0.606,1.328 0.601,1.347 0.602,1.371 0.605,1.395 0.602,1.414 0.602,1.434 0.601,1.457 0.606,1.48 0.601,1.5 0.602,1.52 0.605,1.543 0.602,1.566 0.601,1.586"
                 style="fill:none;stroke:#ffcc00;stroke-width:1.88192594;stroke-linecap:square;stroke-linejoin:round;stroke-miterlimit:10;stroke-dasharray:none;stroke-opacity:1"
                 id="path4818"
                 inkscape:connector-curvature="0" /></g></g></g></g></g><g
       id="g4820"><g
         id="g4822"><g
           id="g4824"
           clip-path="url(#clipPath4828)"><g
             id="g4830"><g
               id="g4832"
               transform="scale(1,-1)"><path
                 d="M 13.57,-65.82 H 73.234"
                 style="fill:none;stroke:#000000;stroke-width:0.94096297;stroke-linecap:square;stroke-linejoin:round;stroke-miterlimit:10;stroke-dasharray:none;stroke-opacity:1"
                 id="path4834"
                 inkscape:connector-curvature="0" /></g></g></g></g></g></g></svg>