<?xml version="1.0" encoding="UTF-8" standalone="no"?>
<!-- Created with matplotlib (http://matplotlib.org/) -->

<svg
   xmlns:dc="http://purl.org/dc/elements/1.1/"
   xmlns:cc="http://creativecommons.org/ns#"
   xmlns:rdf="http://www.w3.org/1999/02/22-rdf-syntax-ns#"
   xmlns:svg="http://www.w3.org/2000/svg"
   xmlns="http://www.w3.org/2000/svg"
   xmlns:xlink="http://www.w3.org/1999/xlink"
   xmlns:sodipodi="http://sodipodi.sourceforge.net/DTD/sodipodi-0.dtd"
   xmlns:inkscape="http://www.inkscape.org/namespaces/inkscape"
   height="432pt"
   version="1.1"
   viewBox="0 0 576 432"
   width="576pt"
   id="svg15553"
   inkscape:version="0.92.3 (2405546, 2018-03-11)"
   sodipodi:docname="ode_solution.svg">
  <metadata
     id="metadata15867">
    <rdf:RDF>
      <cc:Work
         rdf:about="">
        <dc:format>image/svg+xml</dc:format>
        <dc:type
           rdf:resource="http://purl.org/dc/dcmitype/StillImage" />
        <dc:title></dc:title>
      </cc:Work>
    </rdf:RDF>
  </metadata>
  <sodipodi:namedview
     pagecolor="#ffffff"
     bordercolor="#666666"
     borderopacity="1"
     objecttolerance="10"
     gridtolerance="10"
     guidetolerance="10"
     inkscape:pageopacity="0"
     inkscape:pageshadow="2"
     inkscape:window-width="1542"
     inkscape:window-height="873"
     id="namedview15865"
     showgrid="false"
     inkscape:zoom="1.4142136"
     inkscape:cx="354.07452"
     inkscape:cy="195.31146"
     inkscape:window-x="160"
     inkscape:window-y="1080"
     inkscape:window-maximized="1"
     inkscape:current-layer="svg15553" />
  <defs
     id="defs15555">
    <marker
       inkscape:isstock="true"
       style="overflow:visible;"
       id="marker17611"
       refX="0.0"
       refY="0.0"
       orient="auto"
       inkscape:stockid="Arrow1Mend">
      <path
         transform="scale(0.4) rotate(180) translate(10,0)"
         style="fill-rule:evenodd;stroke:#000000;stroke-width:1pt;stroke-opacity:1;fill:#000000;fill-opacity:1"
         d="M 0.0,0.0 L 5.0,-5.0 L -12.5,0.0 L 5.0,5.0 L 0.0,0.0 z "
         id="path17613" />
    </marker>
    <marker
       inkscape:stockid="Arrow1Mstart"
       orient="auto"
       refY="0.0"
       refX="0.0"
       id="Arrow1Mstart"
       style="overflow:visible"
       inkscape:isstock="true">
      <path
         id="path4148"
         d="M 0.0,0.0 L 5.0,-5.0 L -12.5,0.0 L 5.0,5.0 L 0.0,0.0 z "
         style="fill-rule:evenodd;stroke:#000000;stroke-width:1.0pt"
         transform="scale(0.4) translate(10,0)" />
    </marker>
    <marker
       inkscape:stockid="Arrow1Lend"
       orient="auto"
       refY="0.0"
       refX="0.0"
       id="marker17115"
       style="overflow:visible;"
       inkscape:isstock="true">
      <path
         id="path17117"
         d="M 0.0,0.0 L 5.0,-5.0 L -12.5,0.0 L 5.0,5.0 L 0.0,0.0 z "
         style="fill-rule:evenodd;stroke:#000000;stroke-width:1pt;stroke-opacity:1;fill:#000000;fill-opacity:1"
         transform="scale(0.8) rotate(180) translate(12.5,0)" />
    </marker>
    <marker
       inkscape:stockid="Arrow1Lend"
       orient="auto"
       refY="0.0"
       refX="0.0"
       id="Arrow1Lend"
       style="overflow:visible;"
       inkscape:isstock="true">
      <path
         id="path4145"
         d="M 0.0,0.0 L 5.0,-5.0 L -12.5,0.0 L 5.0,5.0 L 0.0,0.0 z "
         style="fill-rule:evenodd;stroke:#000000;stroke-width:1pt;stroke-opacity:1;fill:#000000;fill-opacity:1"
         transform="scale(0.8) rotate(180) translate(12.5,0)" />
    </marker>
    <marker
       inkscape:stockid="Arrow1Mend"
       orient="auto"
       refY="0.0"
       refX="0.0"
       id="Arrow1Mend"
       style="overflow:visible;"
       inkscape:isstock="true"
       inkscape:collect="always">
      <path
         id="path4151"
         d="M 0.0,0.0 L 5.0,-5.0 L -12.5,0.0 L 5.0,5.0 L 0.0,0.0 z "
         style="fill-rule:evenodd;stroke:#000000;stroke-width:1pt;stroke-opacity:1;fill:#000000;fill-opacity:1"
         transform="scale(0.4) rotate(180) translate(10,0)" />
    </marker>
    <style
       type="text/css"
       id="style15557">
*{stroke-linecap:butt;stroke-linejoin:round;stroke-miterlimit:100000;}
  </style>
    <defs
       id="defs15702">
      <path
         style="stroke-linecap:butt;stroke-linejoin:round;stroke-miterlimit:100000"
         inkscape:connector-curvature="0"
         id="BitstreamVeraSans-Roman-31"
         d="m 12.40625,8.296875 16.109375,0 0,55.625 -17.53125,-3.515625 0,8.984375 17.4375,3.515625 9.859375,0 0,-64.609375 16.109375,0 0,-8.296875 -41.984375,0 z" />
    </defs>
    <defs
       id="defs15664">
      <path
         style="stroke-linecap:butt;stroke-linejoin:round;stroke-miterlimit:100000"
         inkscape:connector-curvature="0"
         id="BitstreamVeraSans-Roman-36"
         d="m 33.015625,40.375 q -6.640625,0 -10.53125,-4.546875 -3.875,-4.53125 -3.875,-12.4375 0,-7.859375 3.875,-12.4375 3.890625,-4.5625 10.53125,-4.5625 6.640625,0 10.515625,4.5625 3.875,4.578125 3.875,12.4375 0,7.90625 -3.875,12.4375 Q 39.65625,40.375 33.015625,40.375 m 19.578125,30.921875 0,-8.984375 q -3.71875,1.75 -7.5,2.671875 -3.78125,0.9375 -7.5,0.9375 -9.765625,0 -14.921875,-6.59375 -5.140625,-6.59375 -5.875,-19.921875 2.875,4.25 7.21875,6.515625 4.359375,2.265625 9.578125,2.265625 10.984375,0 17.359375,-6.671875 6.375,-6.65625 6.375,-18.125 0,-11.234375 -6.640625,-18.03125 -6.640625,-6.78125 -17.671875,-6.78125 -12.65625,0 -19.34375,9.6875 -6.6875,9.703125 -6.6875,28.109375 0,17.28125 8.203125,27.5625 8.203125,10.28125 22.015625,10.28125 3.71875,0 7.5,-0.734375 3.78125,-0.734375 7.890625,-2.1875" />
    </defs>
    <defs
       id="defs15683">
      <path
         style="stroke-linecap:butt;stroke-linejoin:round;stroke-miterlimit:100000"
         inkscape:connector-curvature="0"
         id="BitstreamVeraSans-Roman-38"
         d="m 31.78125,34.625 q -7.03125,0 -11.0625,-3.765625 -4.015625,-3.765625 -4.015625,-10.34375 0,-6.59375 4.015625,-10.359375 4.03125,-3.765625 11.0625,-3.765625 7.03125,0 11.078125,3.78125 4.0625,3.796875 4.0625,10.34375 0,6.578125 -4.03125,10.34375 Q 38.875,34.625 31.78125,34.625 m -9.859375,4.1875 Q 15.578125,40.375 12.03125,44.71875 8.5,49.078125 8.5,55.328125 q 0,8.734375 6.21875,13.8125 6.234375,5.078125 17.0625,5.078125 10.890625,0 17.09375,-5.078125 6.203125,-5.078125 6.203125,-13.8125 0,-6.25 -3.546875,-10.609375 Q 48,40.375 41.703125,38.8125 q 7.125,-1.65625 11.09375,-6.5 3.984375,-4.828125 3.984375,-11.796875 0,-10.609375 -6.46875,-16.28125 -6.46875,-5.65625 -18.53125,-5.65625 -12.046875,0 -18.53125,5.65625 -6.46875,5.671875 -6.46875,16.28125 0,6.96875 4,11.796875 4.015625,4.84375 11.140625,6.5 M 18.3125,54.390625 q 0,-5.65625 3.53125,-8.828125 3.546875,-3.171875 9.9375,-3.171875 6.359375,0 9.9375,3.171875 3.59375,3.171875 3.59375,8.828125 0,5.671875 -3.59375,8.84375 -3.578125,3.171875 -9.9375,3.171875 -6.390625,0 -9.9375,-3.171875 Q 18.3125,60.0625 18.3125,54.390625" />
    </defs>
    <defs
       id="defs15626">
      <path
         style="stroke-linecap:butt;stroke-linejoin:round;stroke-miterlimit:100000"
         inkscape:connector-curvature="0"
         id="BitstreamVeraSans-Roman-32"
         d="m 19.1875,8.296875 34.421875,0 0,-8.296875 -46.28125,0 0,8.296875 q 5.609375,5.8125 15.296875,15.59375 9.703125,9.796875 12.1875,12.640625 4.734375,5.3125 6.609375,9 1.890625,3.6875 1.890625,7.25 0,5.8125 -4.078125,9.46875 -4.078125,3.671875 -10.625,3.671875 -4.640625,0 -9.796875,-1.609375 -5.140625,-1.609375 -11,-4.890625 l 0,9.96875 Q 13.765625,71.78125 18.9375,73 q 5.1875,1.21875 9.484375,1.21875 11.328125,0 18.0625,-5.671875 6.734375,-5.65625 6.734375,-15.125 0,-4.5 -1.6875,-8.53125 Q 49.859375,40.875 45.40625,35.40625 44.1875,33.984375 37.640625,27.21875 31.109375,20.453125 19.1875,8.296875" />
    </defs>
  </defs>
  <path
     inkscape:connector-curvature="0"
     id="path15568"
     style="fill:none;stroke:#4d4d4d;stroke-linecap:square;stroke-linejoin:round;stroke-miterlimit:68;stroke-width:4;stroke-dasharray:4,12;stroke-dashoffset:0"
     d="m 72,112.32 446.4,0"
     clip-path="url(#p2bae4ed9c6)" />
  <path
     inkscape:connector-curvature="0"
     id="path15571"
     style="fill:none;stroke:#999999;stroke-linecap:butt;stroke-linejoin:round;stroke-miterlimit:68;stroke-dasharray:4,4;stroke-dashoffset:0;stroke-width:4"
     d="M 72,388.8 205.92,112.32"
     clip-path="url(#p2bae4ed9c6)" />
  <path
     inkscape:connector-curvature="0"
     id="path15574"
     style="fill:none;stroke:#800000;stroke-width:4;stroke-linecap:square;stroke-linejoin:round;stroke-miterlimit:68;stroke-dasharray:none;stroke-dashoffset:0"
     d="m 72,388.8 4.509091,-9.15412 4.509091,-8.85103 4.509091,-8.55797 4.509091,-8.27462 4.509091,-8.00066 4.50909,-7.73576 4.509095,-7.47963 4.50909,-7.23198 4.50909,-6.99254 4.50909,-6.76102 4.50909,-6.53716 4.50909,-6.32072 4.50909,-6.11145 4.50909,-5.9091 4.50909,-5.71345 4.50909,-5.52428 4.5091,-5.34137 4.50909,-5.16453 4.50909,-4.99353 4.50909,-4.82819 4.50909,-4.66834 4.50909,-4.51377 4.50909,-4.36432 4.50909,-4.21983 4.50909,-4.0801 4.50909,-3.94502 4.50909,-3.81439 4.50909,-3.68811 4.5091,-3.56599 4.50909,-3.44793 4.50909,-3.33376 4.50909,-3.22339 4.50909,-3.11666 4.50909,-3.01347 4.50909,-2.9137 4.50909,-2.81723 4.50909,-2.72394 4.50909,-2.63376 4.50909,-2.54656 4.5091,-2.46224 4.50909,-2.38072 4.50909,-2.3019 4.50909,-2.22568 4.50909,-2.15198 4.50909,-2.08074 4.50909,-2.01185 4.50909,-1.94523 4.50909,-1.88083 4.50909,-1.81855 4.50909,-1.75835 4.5091,-1.70012 4.50909,-1.64384 4.50909,-1.5894 4.50909,-1.53679 4.50909,-1.4859 4.50909,-1.4367 4.50909,-1.38914 4.50909,-1.34314 4.50909,-1.29867 4.50909,-1.25568 4.5091,-1.21409 4.50909,-1.1739 4.50909,-1.13504 4.50909,-1.09745 4.50909,-1.06112 4.50909,-1.02598 4.50909,-0.99201 4.50909,-0.95917 4.50909,-0.92741 4.50909,-0.89671 4.5091,-0.86701 4.50908,-0.83831 4.5091,-0.81055 4.50909,-0.78372 4.50909,-0.75777 4.50909,-0.73268 4.50909,-0.70841 4.50909,-0.68497 4.50909,-0.66228 4.50909,-0.64036 4.50909,-0.61916 4.50909,-0.59865 4.50909,-0.57884 4.5091,-0.55967 4.50909,-0.54113 4.50909,-0.52323 4.50909,-0.5059 4.50909,-0.48914 4.50909,-0.47296 4.50909,-0.45729 4.50909,-0.44215 4.50909,-0.42752 4.5091,-0.41336 4.50908,-0.39967 4.5091,-0.38644 4.50909,-0.37364 4.50909,-0.36128 4.50909,-0.34931 4.50909,-0.33774"
     clip-path="url(#p2bae4ed9c6)" />
  <path
     inkscape:connector-curvature="0"
     id="path15583"
     style="fill:none;stroke:#000000;stroke-width:4;stroke-linecap:square;stroke-linejoin:miter;stroke-miterlimit:100;stroke-dasharray:none;marker-end:url(#marker17611)"
     d="m 72,388.8 446.4,0" />
  <path
     inkscape:connector-curvature="0"
     id="path15586"
     style="fill:none;stroke:#000000;stroke-linecap:square;stroke-linejoin:miter;stroke-miterlimit:100;marker-end:url(#Arrow1Mend);stroke-width:4;stroke-dasharray:none"
     d="M 72,388.8 72,43.2" />
  <g
     id="line2d_4"
     style="stroke-linecap:butt;stroke-linejoin:round;stroke-miterlimit:100000">
    <defs
       id="defs15591">
      <path
         d="M 0,0 0,-4"
         id="m49256378ca"
         style="stroke:#000000;stroke-width:0.5;stroke-linecap:butt;stroke-linejoin:round;stroke-miterlimit:100000"
         inkscape:connector-curvature="0" />
    </defs>
    <g
       id="g15594"
       style="stroke-linecap:butt;stroke-linejoin:round;stroke-miterlimit:100000">
      <use
         style="stroke:#000000;stroke-width:0.5;stroke-linecap:butt;stroke-linejoin:round;stroke-miterlimit:100000"
         x="72"
         xlink:href="#m49256378ca"
         y="388.79999"
         id="use15596"
         width="100%"
         height="100%" />
    </g>
  </g>
  <g
     id="line2d_5"
     style="stroke-linecap:butt;stroke-linejoin:round;stroke-miterlimit:100000">
    <defs
       id="defs15599">
      <path
         d="M 0,0 0,4"
         id="m2f90509bab"
         style="stroke:#000000;stroke-width:0.5;stroke-linecap:butt;stroke-linejoin:round;stroke-miterlimit:100000"
         inkscape:connector-curvature="0" />
    </defs>
    <g
       id="g15602"
       style="stroke-linecap:butt;stroke-linejoin:round;stroke-miterlimit:100000">
      <use
         style="stroke:#000000;stroke-width:0.5;stroke-linecap:butt;stroke-linejoin:round;stroke-miterlimit:100000"
         x="72"
         xlink:href="#m2f90509bab"
         y="43.200001"
         id="use15604"
         width="100%"
         height="100%" />
    </g>
  </g>
  <g
     id="text_1"
     style="stroke-linecap:butt;stroke-linejoin:round;stroke-miterlimit:100000"
     transform="matrix(2,0,0,2,-71.997188,-393.02483)">
    <!-- 0 -->
    <defs
       id="defs15607">
      <path
         d="m 31.78125,66.40625 q -7.609375,0 -11.453125,-7.5 Q 16.5,51.421875 16.5,36.375 q 0,-14.984375 3.828125,-22.484375 3.84375,-7.5 11.453125,-7.5 7.671875,0 11.5,7.5 3.84375,7.5 3.84375,22.484375 0,15.046875 -3.84375,22.53125 -3.828125,7.5 -11.5,7.5 m 0,7.8125 q 12.265625,0 18.734375,-9.703125 6.46875,-9.6875 6.46875,-28.140625 0,-18.40625 -6.46875,-28.109375 -6.46875,-9.6875 -18.734375,-9.6875 -12.25,0 -18.71875,9.6875 Q 6.59375,17.96875 6.59375,36.375 q 0,18.453125 6.46875,28.140625 6.46875,9.703125 18.71875,9.703125"
         id="BitstreamVeraSans-Roman-30"
         inkscape:connector-curvature="0"
         style="stroke-linecap:butt;stroke-linejoin:round;stroke-miterlimit:100000" />
    </defs>
    <g
       transform="matrix(0.12,0,0,-0.12,68.1825,401.91812)"
       id="g15610"
       style="stroke-linecap:butt;stroke-linejoin:round;stroke-miterlimit:100000">
      <use
         xlink:href="#BitstreamVeraSans-Roman-30"
         id="use15612"
         style="stroke-linecap:butt;stroke-linejoin:round;stroke-miterlimit:100000"
         x="0"
         y="0"
         width="100%"
         height="100%" />
    </g>
  </g>
  <text
     id="text17356"
     y="437.30362"
     x="192.86037"
     style="font-style:normal;font-weight:normal;line-height:0%;font-family:sans-serif;letter-spacing:0px;word-spacing:0px;fill:#000000;fill-opacity:1;stroke:none;stroke-width:1px;stroke-linecap:butt;stroke-linejoin:miter;stroke-miterlimit:100000;stroke-opacity:1"
     xml:space="preserve"><tspan
       y="437.30362"
       x="192.86037"
       style="font-size:32px;line-height:1.25;stroke-linecap:butt;stroke-linejoin:round;stroke-miterlimit:100000"
       id="tspan17358"
       sodipodi:role="line">$\tau_n$</tspan></text>
  <g
     id="line2d_16"
     style="stroke-linecap:butt;stroke-linejoin:round;stroke-miterlimit:100000">
    <defs
       id="defs15722">
      <path
         d="M 0,0 4,0"
         id="m7157c44099"
         style="stroke:#000000;stroke-width:0.5;stroke-linecap:butt;stroke-linejoin:round;stroke-miterlimit:100000"
         inkscape:connector-curvature="0" />
    </defs>
    <g
       id="g15725"
       style="stroke-linecap:butt;stroke-linejoin:round;stroke-miterlimit:100000">
      <use
         style="stroke:#000000;stroke-width:0.5;stroke-linecap:butt;stroke-linejoin:round;stroke-miterlimit:100000"
         x="72"
         xlink:href="#m7157c44099"
         y="388.79999"
         id="use15727"
         width="100%"
         height="100%" />
    </g>
  </g>
  <use
     style="stroke:#000000;stroke-width:0.5;stroke-linecap:butt;stroke-linejoin:round;stroke-miterlimit:100000"
     x="72"
     xlink:href="#m7157c44099"
     y="112.32"
     id="use15816"
     width="100%"
     height="100%" />
  <defs
     id="defs15860">
    <clipPath
       id="p2bae4ed9c6">
      <rect
         height="345.6"
         width="446.4"
         x="72.0"
         y="43.2"
         id="rect15863" />
    </clipPath>
  </defs>
  <use
     style="stroke:#000000;stroke-width:4;stroke-linecap:butt;stroke-linejoin:round;stroke-miterlimit:100;stroke-dasharray:none"
     x="250.56"
     xlink:href="#m49256378ca"
     y="388.79999"
     id="use17364"
     width="100%"
     height="100%"
     transform="translate(-44.63999,-275.2)" />
  <path
     style="fill:none;fill-rule:evenodd;stroke:#000000;stroke-width:4;stroke-linecap:butt;stroke-linejoin:miter;stroke-miterlimit:100;stroke-dasharray:none;stroke-opacity:1"
     d="m 205.875,105.14374 c 0,0 0,17.98429 0,12.68099"
     id="path17403"
     inkscape:connector-curvature="0"
     sodipodi:nodetypes="cc" />
  <path
     inkscape:connector-curvature="0"
     id="path17477"
     d="m 205.875,378.85882 0,20.67129"
     style="fill:none;fill-rule:evenodd;stroke:#000000;stroke-width:4;stroke-linecap:butt;stroke-linejoin:miter;stroke-miterlimit:100;stroke-dasharray:none;stroke-opacity:1"
     sodipodi:nodetypes="cc" />
  <path
     sodipodi:nodetypes="cc"
     style="fill:none;fill-rule:evenodd;stroke:#000000;stroke-width:4;stroke-linecap:butt;stroke-linejoin:miter;stroke-miterlimit:100;stroke-dasharray:none;stroke-opacity:1"
     d="m 75.991373,112.36216 -22.00048,0"
     id="path17479"
     inkscape:connector-curvature="0" />
  <text
     xml:space="preserve"
     style="font-style:normal;font-weight:normal;line-height:0%;font-family:sans-serif;letter-spacing:0px;word-spacing:0px;fill:#000000;fill-opacity:1;stroke:none;stroke-width:1px;stroke-linecap:butt;stroke-linejoin:miter;stroke-miterlimit:100000;stroke-opacity:1"
     x="-19.203451"
     y="133.61137"
     id="text17481"><tspan
       sodipodi:role="line"
       id="tspan17483"
       style="font-size:32px;line-height:1.25;stroke-linecap:butt;stroke-linejoin:round;stroke-miterlimit:100000"
       x="-19.203451"
       y="133.61137">$n_\infty$</tspan></text>
  <text
     xml:space="preserve"
     style="font-style:normal;font-weight:normal;line-height:0%;font-family:sans-serif;letter-spacing:0px;word-spacing:0px;fill:#000000;fill-opacity:1;stroke:none;stroke-width:1px;stroke-linecap:butt;stroke-linejoin:miter;stroke-miterlimit:100000;stroke-opacity:1"
     x="502.46039"
     y="437.30362"
     id="text17485"><tspan
       sodipodi:role="line"
       id="tspan17487"
       style="font-size:32px;line-height:1.25;stroke-linecap:butt;stroke-linejoin:round;stroke-miterlimit:100000"
       x="502.46039"
       y="437.30362">$t$</tspan></text>
  <text
     id="text17657"
     y="213.37302"
     x="305.49997"
     style="font-style:normal;font-weight:normal;line-height:0%;font-family:sans-serif;letter-spacing:0px;word-spacing:0px;fill:#800000;fill-opacity:1;stroke:none;stroke-width:1px;stroke-linecap:butt;stroke-linejoin:miter;stroke-miterlimit:100000;stroke-opacity:1;"
     xml:space="preserve"><tspan
       y="213.37302"
       x="305.49997"
       style="font-size:32px;line-height:1.25;fill:#800000;stroke-linecap:butt;stroke-linejoin:round;stroke-miterlimit:100000;"
       id="tspan17659"
       sodipodi:role="line">$n(t)$</tspan></text>
</svg>
