<?xml version="1.0" encoding="UTF-8" standalone="no"?>
<!-- Created with Inkscape (http://www.inkscape.org/) -->

<svg
   xmlns:dc="http://purl.org/dc/elements/1.1/"
   xmlns:cc="http://creativecommons.org/ns#"
   xmlns:rdf="http://www.w3.org/1999/02/22-rdf-syntax-ns#"
   xmlns:svg="http://www.w3.org/2000/svg"
   xmlns="http://www.w3.org/2000/svg"
   xmlns:sodipodi="http://sodipodi.sourceforge.net/DTD/sodipodi-0.dtd"
   xmlns:inkscape="http://www.inkscape.org/namespaces/inkscape"
   version="1.1"
   id="svg2"
   xml:space="preserve"
   width="757.36694"
   height="292.98914"
   viewBox="0 0 757.36694 292.98914"
   sodipodi:docname="force_curves_generic_velocity.svg"
   inkscape:version="0.92.3 (2405546, 2018-03-11)"><metadata
     id="metadata8"><rdf:RDF><cc:Work
         rdf:about=""><dc:format>image/svg+xml</dc:format><dc:type
           rdf:resource="http://purl.org/dc/dcmitype/StillImage" /><dc:title></dc:title></cc:Work></rdf:RDF></metadata><defs
     id="defs6"><clipPath
       clipPathUnits="userSpaceOnUse"
       id="clipPath20"><path
         d="M 0,0 H 834 V 651 H 0 Z"
         id="path18"
         inkscape:connector-curvature="0" /></clipPath></defs><sodipodi:namedview
     pagecolor="#ffffff"
     bordercolor="#666666"
     borderopacity="1"
     objecttolerance="10"
     gridtolerance="10"
     guidetolerance="10"
     inkscape:pageopacity="0"
     inkscape:pageshadow="2"
     inkscape:window-width="1920"
     inkscape:window-height="1023"
     id="namedview4"
     showgrid="false"
     fit-margin-top="0"
     fit-margin-left="0"
     fit-margin-right="0"
     fit-margin-bottom="0"
     inkscape:zoom="0.89393939"
     inkscape:cx="79.383955"
     inkscape:cy="-5.7549136"
     inkscape:window-x="0"
     inkscape:window-y="0"
     inkscape:window-maximized="1"
     inkscape:current-layer="g10" /><g
     id="g10"
     inkscape:groupmode="layer"
     inkscape:label="force_curves_generic"
     transform="matrix(1.3333333,0,0,-1.3333333,-0.36856703,841.60742)"><path
       d="M 74.25,457.875 H 559.5 v 145.5 H 74.25 Z"
       style="fill:#ffffff;fill-opacity:1;fill-rule:nonzero;stroke:none;stroke-width:0.75"
       id="path30"
       inkscape:connector-curvature="0" /><path
       d="M 74.249992,457.875 H 559.5"
       style="fill:none;stroke:#262626;stroke-width:0.50000024;stroke-linecap:square;stroke-linejoin:round;stroke-miterlimit:10;stroke-dasharray:none;stroke-opacity:1"
       id="path34"
       inkscape:connector-curvature="0" /><path
       d="M 74.249992,603.375 H 559.5"
       style="fill:none;stroke:#262626;stroke-width:0.50000024;stroke-linecap:square;stroke-linejoin:round;stroke-miterlimit:10;stroke-dasharray:none;stroke-opacity:1"
       id="path38"
       inkscape:connector-curvature="0" /><path
       d="m 74.249992,457.875 v 4.8525"
       style="fill:none;stroke:#262626;stroke-width:0.50000024;stroke-linecap:square;stroke-linejoin:round;stroke-miterlimit:10;stroke-dasharray:none;stroke-opacity:1"
       id="path42"
       inkscape:connector-curvature="0" /><path
       d="m 143.57142,457.875 v 4.8525"
       style="fill:none;stroke:#262626;stroke-width:0.50000024;stroke-linecap:square;stroke-linejoin:round;stroke-miterlimit:10;stroke-dasharray:none;stroke-opacity:1"
       id="path46"
       inkscape:connector-curvature="0" /><path
       d="m 212.89286,457.875 v 4.8525"
       style="fill:none;stroke:#262626;stroke-width:0.50000024;stroke-linecap:square;stroke-linejoin:round;stroke-miterlimit:10;stroke-dasharray:none;stroke-opacity:1"
       id="path50"
       inkscape:connector-curvature="0" /><path
       d="m 282.21428,457.875 v 4.8525"
       style="fill:none;stroke:#262626;stroke-width:0.50000024;stroke-linecap:square;stroke-linejoin:round;stroke-miterlimit:10;stroke-dasharray:none;stroke-opacity:1"
       id="path54"
       inkscape:connector-curvature="0" /><path
       d="m 351.53572,457.875 v 4.8525"
       style="fill:none;stroke:#262626;stroke-width:0.50000024;stroke-linecap:square;stroke-linejoin:round;stroke-miterlimit:10;stroke-dasharray:none;stroke-opacity:1"
       id="path58"
       inkscape:connector-curvature="0" /><path
       d="m 420.85716,457.875 v 4.8525"
       style="fill:none;stroke:#262626;stroke-width:0.50000024;stroke-linecap:square;stroke-linejoin:round;stroke-miterlimit:10;stroke-dasharray:none;stroke-opacity:1"
       id="path62"
       inkscape:connector-curvature="0" /><path
       d="m 490.17856,457.875 v 4.8525"
       style="fill:none;stroke:#262626;stroke-width:0.50000024;stroke-linecap:square;stroke-linejoin:round;stroke-miterlimit:10;stroke-dasharray:none;stroke-opacity:1"
       id="path66"
       inkscape:connector-curvature="0" /><path
       d="m 559.5,457.875 v 4.8525"
       style="fill:none;stroke:#262626;stroke-width:0.50000024;stroke-linecap:square;stroke-linejoin:round;stroke-miterlimit:10;stroke-dasharray:none;stroke-opacity:1"
       id="path70"
       inkscape:connector-curvature="0" /><path
       d="m 74.249992,603.375 v -4.8525"
       style="fill:none;stroke:#262626;stroke-width:0.50000024;stroke-linecap:square;stroke-linejoin:round;stroke-miterlimit:10;stroke-dasharray:none;stroke-opacity:1"
       id="path74"
       inkscape:connector-curvature="0" /><path
       d="m 143.57142,603.375 v -4.8525"
       style="fill:none;stroke:#262626;stroke-width:0.50000024;stroke-linecap:square;stroke-linejoin:round;stroke-miterlimit:10;stroke-dasharray:none;stroke-opacity:1"
       id="path78"
       inkscape:connector-curvature="0" /><path
       d="m 212.89286,603.375 v -4.8525"
       style="fill:none;stroke:#262626;stroke-width:0.50000024;stroke-linecap:square;stroke-linejoin:round;stroke-miterlimit:10;stroke-dasharray:none;stroke-opacity:1"
       id="path82"
       inkscape:connector-curvature="0" /><path
       d="m 282.21428,603.375 v -4.8525"
       style="fill:none;stroke:#262626;stroke-width:0.50000024;stroke-linecap:square;stroke-linejoin:round;stroke-miterlimit:10;stroke-dasharray:none;stroke-opacity:1"
       id="path86"
       inkscape:connector-curvature="0" /><path
       d="m 351.53572,603.375 v -4.8525"
       style="fill:none;stroke:#262626;stroke-width:0.50000024;stroke-linecap:square;stroke-linejoin:round;stroke-miterlimit:10;stroke-dasharray:none;stroke-opacity:1"
       id="path90"
       inkscape:connector-curvature="0" /><path
       d="m 420.85716,603.375 v -4.8525"
       style="fill:none;stroke:#262626;stroke-width:0.50000024;stroke-linecap:square;stroke-linejoin:round;stroke-miterlimit:10;stroke-dasharray:none;stroke-opacity:1"
       id="path94"
       inkscape:connector-curvature="0" /><path
       d="m 490.17856,603.375 v -4.8525"
       style="fill:none;stroke:#262626;stroke-width:0.50000024;stroke-linecap:square;stroke-linejoin:round;stroke-miterlimit:10;stroke-dasharray:none;stroke-opacity:1"
       id="path98"
       inkscape:connector-curvature="0" /><path
       d="m 559.5,603.375 v -4.8525"
       style="fill:none;stroke:#262626;stroke-width:0.50000024;stroke-linecap:square;stroke-linejoin:round;stroke-miterlimit:10;stroke-dasharray:none;stroke-opacity:1"
       id="path102"
       inkscape:connector-curvature="0" /><g
       id="g106"
       transform="matrix(0.75,0,0,-0.75,74.249994,452.675)"><text
   transform="translate(-21,20)"
   style="font-variant:normal;font-weight:normal;font-size:21.33300018px;font-family:Helvetica;-inkscape-font-specification:Helvetica;writing-mode:lr-tb;fill:#262626;fill-opacity:1;fill-rule:nonzero;stroke:none"
   id="text110"><tspan
     x="0 7.103889 18.965036 24.895611"
     y="0"
     sodipodi:role="line"
     id="tspan108">-0.8</tspan></text>


</g><g
       id="g114"
       transform="matrix(0.75,0,0,-0.75,143.57142,452.675)"><text
   transform="translate(-21,20)"
   style="font-variant:normal;font-weight:normal;font-size:21.33300018px;font-family:Helvetica;-inkscape-font-specification:Helvetica;writing-mode:lr-tb;fill:#262626;fill-opacity:1;fill-rule:nonzero;stroke:none"
   id="text118"><tspan
     x="0 7.103889 18.965036 24.895611"
     y="0"
     sodipodi:role="line"
     id="tspan116">-0.6</tspan></text>


</g><g
       id="g122"
       transform="matrix(0.75,0,0,-0.75,212.89286,452.675)"><text
   transform="translate(-21,20)"
   style="font-variant:normal;font-weight:normal;font-size:21.33300018px;font-family:Helvetica;-inkscape-font-specification:Helvetica;writing-mode:lr-tb;fill:#262626;fill-opacity:1;fill-rule:nonzero;stroke:none"
   id="text126"><tspan
     x="0 7.103889 18.965036 24.895611"
     y="0"
     sodipodi:role="line"
     id="tspan124">-0.4</tspan></text>


</g><g
       id="g130"
       transform="matrix(0.75,0,0,-0.75,282.21427,452.675)"><text
   transform="translate(-21,20)"
   style="font-variant:normal;font-weight:normal;font-size:21.33300018px;font-family:Helvetica;-inkscape-font-specification:Helvetica;writing-mode:lr-tb;fill:#262626;fill-opacity:1;fill-rule:nonzero;stroke:none"
   id="text134"><tspan
     x="0 7.103889 18.965036 24.895611"
     y="0"
     sodipodi:role="line"
     id="tspan132">-0.2</tspan></text>


</g><g
       id="g138"
       transform="matrix(0.75,0,0,-0.75,351.53573,452.675)"><text
   transform="translate(-7,20)"
   style="font-variant:normal;font-weight:normal;font-size:21.33300018px;font-family:Helvetica;-inkscape-font-specification:Helvetica;writing-mode:lr-tb;fill:#262626;fill-opacity:1;fill-rule:nonzero;stroke:none"
   id="text142"><tspan
     x="0"
     y="0"
     id="tspan140">0</tspan></text>


</g><g
       id="g146"
       transform="matrix(0.75,0,0,-0.75,420.85716,452.675)"><text
   transform="translate(-17,20)"
   style="font-variant:normal;font-weight:normal;font-size:21.33300018px;font-family:Helvetica;-inkscape-font-specification:Helvetica;writing-mode:lr-tb;fill:#262626;fill-opacity:1;fill-rule:nonzero;stroke:none"
   id="text150"><tspan
     x="0 11.861148 17.791721"
     y="0"
     sodipodi:role="line"
     id="tspan148">0.2</tspan></text>


</g><g
       id="g154"
       transform="matrix(0.75,0,0,-0.75,490.17856,452.675)"><text
   transform="translate(-17,20)"
   style="font-variant:normal;font-weight:normal;font-size:21.33300018px;font-family:Helvetica;-inkscape-font-specification:Helvetica;writing-mode:lr-tb;fill:#262626;fill-opacity:1;fill-rule:nonzero;stroke:none"
   id="text158"><tspan
     x="0 11.861148 17.791721"
     y="0"
     sodipodi:role="line"
     id="tspan156">0.4</tspan></text>


</g><g
       id="g162"
       transform="matrix(0.75,0,0,-0.75,559.5,452.675)"><text
   transform="translate(-17,20)"
   style="font-variant:normal;font-weight:normal;font-size:21.33300018px;font-family:Helvetica;-inkscape-font-specification:Helvetica;writing-mode:lr-tb;fill:#262626;fill-opacity:1;fill-rule:nonzero;stroke:none"
   id="text166"><tspan
     x="0 11.861148 17.791721"
     y="0"
     sodipodi:role="line"
     id="tspan164">0.6</tspan></text>


</g><path
       d="m 284.31146,431.00271 c 0,0.25782 0.0957,0.48243 0.28711,0.67383 0.19141,0.19141 0.41211,0.28711 0.66211,0.28711 0.15625,0 0.31055,-0.043 0.46289,-0.1289 0.15234,-0.0859 0.26953,-0.20508 0.35156,-0.35743 0.082,-0.15234 0.12305,-0.31054 0.12305,-0.47461 0,-0.24218 -0.0918,-0.45898 -0.27539,-0.65039 -0.1836,-0.1914 -0.4043,-0.28711 -0.66211,-0.28711 -0.25,0 -0.4707,0.0957 -0.66211,0.28711 -0.19141,0.19141 -0.28711,0.40821 -0.28711,0.65039 z"
       style="fill:#262626;fill-opacity:1;fill-rule:nonzero;stroke:none;stroke-width:0.75"
       id="path170"
       inkscape:connector-curvature="0" /><path
       d="m 281.79888,417.17075 c 0,0.0391 0.004,0.0918 0.0117,0.1582 0.008,0.0664 0.0156,0.13086 0.0234,0.19336 0.008,0.0625 0.0117,0.11328 0.0117,0.15234 l 2.14453,8.54297 c 0.0391,0.19532 0.0664,0.34766 0.082,0.45703 0,0.1875 -0.375,0.28125 -1.125,0.28125 -0.10937,0 -0.16406,0.0742 -0.16406,0.22266 0.008,0.0312 0.0215,0.082 0.041,0.15234 0.0195,0.0703 0.043,0.12696 0.0703,0.16993 0.0274,0.043 0.0723,0.0644 0.13477,0.0644 l 2.32031,0.17578 c 0.14062,0 0.21094,-0.0703 0.21094,-0.21094 l -2.48438,-9.92578 c -0.0859,-0.1875 -0.12891,-0.46094 -0.12891,-0.82031 0,-0.5 0.16797,-0.75 0.50391,-0.75 0.35938,0 0.62695,0.2207 0.80274,0.66211 0.17578,0.44141 0.33398,0.97851 0.4746,1.61133 0.0234,0.0703 0.0703,0.10547 0.14063,0.10547 h 0.19922 c 0.0469,0 0.0859,-0.0176 0.11719,-0.0527 0.0312,-0.0352 0.0469,-0.0723 0.0469,-0.11133 -0.13281,-0.5625 -0.2539,-1.0039 -0.36328,-1.32421 -0.10938,-0.32032 -0.28516,-0.625 -0.52734,-0.91407 -0.24219,-0.28906 -0.55079,-0.43359 -0.92579,-0.43359 -0.46093,0 -0.8457,0.15039 -1.15429,0.45117 -0.3086,0.30078 -0.46289,0.68164 -0.46289,1.14258 z"
       style="fill:#262626;fill-opacity:1;fill-rule:nonzero;stroke:none;stroke-width:0.75"
       id="path174"
       inkscape:connector-curvature="0" /><path
       d="m 288.04645,415.72609 c 0,-0.47657 0.0918,-0.89844 0.27539,-1.26563 0.1836,-0.36718 0.45313,-0.65234 0.8086,-0.85547 0.35546,-0.20312 0.77148,-0.30468 1.24804,-0.30468 0.50782,0 0.99414,0.1289 1.45899,0.38672 0.46484,0.25781 0.86328,0.60156 1.19531,1.03125 0.33203,0.42968 0.55664,0.88671 0.67383,1.37109 0.0156,0.0469 0.0469,0.0703 0.0937,0.0703 h 0.15234 c 0.0312,0 0.0566,-0.01 0.0762,-0.0293 0.0195,-0.0195 0.0293,-0.0449 0.0293,-0.0762 0,-0.008 -0.004,-0.0195 -0.0117,-0.0351 -0.14063,-0.55469 -0.40625,-1.07422 -0.79688,-1.55859 -0.39063,-0.48438 -0.85938,-0.8711 -1.40625,-1.16016 -0.54687,-0.28906 -1.10937,-0.43359 -1.6875,-0.43359 -0.625,0 -1.18555,0.14258 -1.68164,0.42773 -0.49609,0.28516 -0.88281,0.67774 -1.16016,1.17774 -0.27734,0.5 -0.41601,1.0625 -0.41601,1.6875 0,0.67187 0.15039,1.33789 0.45117,1.99804 0.30078,0.66016 0.70508,1.2461 1.21289,1.75782 0.50781,0.51171 1.08789,0.91992 1.74023,1.22461 0.65235,0.30468 1.31055,0.45703 1.97461,0.45703 0.26563,0 0.51954,-0.0391 0.76172,-0.11719 0.24219,-0.0781 0.4668,-0.19922 0.67383,-0.36328 0.20703,-0.16406 0.37695,-0.35547 0.50977,-0.57422 l 0.94922,1.03125 c 0,0.0156 0.0195,0.0234 0.0586,0.0234 h 0.0703 c 0.0312,0 0.0566,-0.0137 0.0762,-0.041 0.0195,-0.0274 0.0293,-0.0527 0.0293,-0.0762 l -0.80859,-3.2461 c 0,-0.0547 -0.0312,-0.082 -0.0937,-0.082 h -0.22266 c -0.0625,0 -0.0937,0.0469 -0.0937,0.14063 0.0312,0.17187 0.0469,0.38281 0.0469,0.63281 0,0.39062 -0.0664,0.75781 -0.19922,1.10156 -0.13281,0.34375 -0.33789,0.6211 -0.61524,0.83203 -0.27734,0.21094 -0.61914,0.31641 -1.02539,0.31641 -0.64843,0 -1.24414,-0.16406 -1.78711,-0.49219 -0.54296,-0.32812 -1.0039,-0.75781 -1.38281,-1.28906 -0.3789,-0.53125 -0.66992,-1.12305 -0.87305,-1.77539 -0.20312,-0.65234 -0.30468,-1.2832 -0.30468,-1.89258 z"
       style="fill:#262626;fill-opacity:1;fill-rule:nonzero;stroke:none;stroke-width:0.75"
       id="path178"
       inkscape:connector-curvature="0" /><path
       d="m 296.53772,413.13624 c -0.0781,0 -0.11719,0.0547 -0.11719,0.16407 0.008,0.0156 0.0176,0.0488 0.0293,0.0996 0.0117,0.0508 0.0273,0.0898 0.0469,0.11718 0.0195,0.0273 0.0449,0.041 0.0762,0.041 0.49219,0 0.83203,0.0274 1.01953,0.082 0.10938,0.0391 0.1875,0.14844 0.23438,0.32813 l 1.64062,6.58593 c 0.0156,0.0781 0.0234,0.13282 0.0234,0.16407 0,0.0859 -0.0469,0.13672 -0.14062,0.15234 -0.14844,0.0312 -0.4375,0.0469 -0.86719,0.0469 -0.0781,0 -0.11719,0.0508 -0.11719,0.15234 0.008,0.0234 0.0176,0.0586 0.0293,0.10547 0.0117,0.0469 0.0273,0.0859 0.0469,0.11719 0.0195,0.0312 0.0449,0.0469 0.0762,0.0469 h 6.50391 c 0.0859,0 0.12891,-0.0547 0.12891,-0.16406 l -0.29297,-2.48438 c 0,-0.0156 -0.0137,-0.0371 -0.041,-0.0644 -0.0273,-0.0274 -0.0527,-0.041 -0.0762,-0.041 h -0.10547 c -0.0859,0 -0.12891,0.0508 -0.12891,0.15235 0.0469,0.39062 0.0703,0.67968 0.0703,0.86718 0,0.32031 -0.0547,0.57032 -0.16406,0.75 -0.10937,0.17969 -0.2539,0.3086 -0.43359,0.38672 -0.17969,0.0781 -0.38086,0.12695 -0.60352,0.14649 -0.22265,0.0195 -0.51367,0.0293 -0.87304,0.0293 h -1.35938 c -0.21875,0 -0.36328,-0.0195 -0.43359,-0.0586 -0.0703,-0.0391 -0.13672,-0.15625 -0.19922,-0.35156 l -0.71485,-2.90625 h 0.9375 c 0.40625,0 0.71289,0.0293 0.91993,0.0879 0.20703,0.0586 0.37109,0.17774 0.49218,0.35742 0.1211,0.17969 0.22852,0.46485 0.32227,0.85547 0.008,0.0234 0.0234,0.0469 0.0469,0.0703 0.0234,0.0234 0.0469,0.0352 0.0703,0.0352 h 0.11718 c 0.0781,0 0.11719,-0.0508 0.11719,-0.15235 l -0.75,-2.96484 c -0.0156,-0.0703 -0.0547,-0.10547 -0.11719,-0.10547 h -0.10546 c -0.0781,0 -0.11719,0.0508 -0.11719,0.15234 0.0781,0.32032 0.11719,0.55469 0.11719,0.70313 0,0.23437 -0.10547,0.38281 -0.31641,0.44531 -0.21094,0.0625 -0.49219,0.0937 -0.84375,0.0937 h -0.99609 l -0.82032,-3.25781 c -0.0312,-0.10156 -0.0469,-0.19141 -0.0469,-0.26953 0,-0.0625 0.13672,-0.0937 0.41015,-0.0937 h 1.45313 c 0.57812,0 1.04687,0.0449 1.40625,0.13476 0.35937,0.0898 0.65625,0.23438 0.89062,0.4336 0.23438,0.19922 0.4375,0.45117 0.60938,0.75586 0.17187,0.30468 0.38281,0.74609 0.63281,1.32422 0.0156,0.0547 0.0508,0.082 0.10547,0.082 h 0.10547 c 0.0312,0 0.0586,-0.0137 0.082,-0.041 0.0234,-0.0274 0.0352,-0.0606 0.0352,-0.0996 0,-0.0156 -0.004,-0.0312 -0.0117,-0.0469 l -1.23047,-2.89454 c -0.0156,-0.0469 -0.0469,-0.0703 -0.0937,-0.0703 h -6.67969 z"
       style="fill:#262626;fill-opacity:1;fill-rule:nonzero;stroke:none;stroke-width:0.75"
       id="path182"
       inkscape:connector-curvature="0" /><path
       d="m 314.56558,411.46372 v 17.25 h 2.35547 v -0.69141 h -1.66407 v -15.86719 h 1.66407 v -0.6914 z"
       style="fill:#262626;fill-opacity:1;fill-rule:nonzero;stroke:none;stroke-width:0.75"
       id="path186"
       inkscape:connector-curvature="0" /><path
       d="m 317.93104,415.77622 v 0.60937 c 0.39063,0 0.71289,0.0312 0.9668,0.0937 0.25391,0.0625 0.38086,0.21094 0.38086,0.44531 v 4.71094 c 0,0.3125 -0.0469,0.53711 -0.14063,0.67383 -0.0937,0.13672 -0.22656,0.2207 -0.39843,0.25195 -0.17188,0.0313 -0.44141,0.0469 -0.8086,0.0469 v 0.60937 l 2.4961,0.17578 v -1.67578 c 0.23437,0.49219 0.57812,0.89454 1.03125,1.20703 0.45312,0.3125 0.94531,0.46875 1.47656,0.46875 1.32031,0 2.09765,-0.53906 2.33203,-1.61718 0.22656,0.48437 0.5625,0.875 1.00781,1.17187 0.44531,0.29688 0.92969,0.44531 1.45313,0.44531 0.52343,0 0.96484,-0.084 1.32422,-0.25195 0.35937,-0.16797 0.6289,-0.42383 0.80859,-0.76758 0.17969,-0.34375 0.26953,-0.77734 0.26953,-1.30078 v -4.14844 c 0,-0.23437 0.12696,-0.38281 0.38086,-0.44531 0.25391,-0.0625 0.57617,-0.0937 0.9668,-0.0937 v -0.60937 h -3.94922 v 0.60937 c 0.39062,0 0.71289,0.0312 0.9668,0.0937 0.2539,0.0625 0.38086,0.21094 0.38086,0.44531 v 4.10157 c 0,0.57812 -0.082,1.04297 -0.2461,1.39453 -0.16406,0.35156 -0.5,0.52734 -1.00781,0.52734 -0.66406,0 -1.21094,-0.26562 -1.64063,-0.79687 -0.42968,-0.53125 -0.64453,-1.13672 -0.64453,-1.81641 v -3.41016 c 0,-0.23437 0.125,-0.38281 0.375,-0.44531 0.25,-0.0625 0.57422,-0.0937 0.97266,-0.0937 v -0.60937 h -3.94922 v 0.60937 c 0.39063,0 0.71289,0.0312 0.9668,0.0937 0.2539,0.0625 0.38086,0.21094 0.38086,0.44531 v 4.10157 c 0,0.5625 -0.082,1.02344 -0.2461,1.38281 -0.16406,0.35937 -0.5,0.53906 -1.00781,0.53906 -0.66406,0 -1.21094,-0.26562 -1.64062,-0.79687 -0.42969,-0.53125 -0.64454,-1.13672 -0.64454,-1.81641 v -3.41016 c 0,-0.23437 0.125,-0.38281 0.375,-0.44531 0.25,-0.0625 0.57032,-0.0937 0.96094,-0.0937 v -0.60937 z"
       style="fill:#262626;fill-opacity:1;fill-rule:nonzero;stroke:none;stroke-width:0.75"
       id="path190"
       inkscape:connector-curvature="0" /><path
       d="m 333.05479,411.80356 c 0,0.0391 0.004,0.0625 0.0117,0.0703 l 6,16.62891 c 0.0234,0.0703 0.0625,0.12305 0.11719,0.1582 0.0547,0.0352 0.11718,0.0527 0.1875,0.0527 0.10156,0 0.18554,-0.0312 0.25195,-0.0937 0.0664,-0.0625 0.0996,-0.14453 0.0996,-0.2461 v -0.0703 l -6,-16.62891 c -0.0625,-0.14062 -0.17188,-0.21093 -0.32813,-0.21093 -0.0937,0 -0.17382,0.0332 -0.24023,0.0996 -0.0664,0.0664 -0.0996,0.14648 -0.0996,0.24023 z"
       style="fill:#262626;fill-opacity:1;fill-rule:nonzero;stroke:none;stroke-width:0.75"
       id="path194"
       inkscape:connector-curvature="0" /><path
       d="m 341.45638,415.72934 v 2.8125 c 0,0.0859 0.0508,0.12891 0.15234,0.12891 h 0.21094 c 0.0625,0 0.10547,-0.043 0.1289,-0.12891 0.32032,-1.67187 1.09766,-2.50781 2.33204,-2.50781 0.53906,0 0.99414,0.125 1.36523,0.375 0.37109,0.25 0.55664,0.63281 0.55664,1.14844 0,0.36719 -0.14453,0.68164 -0.43359,0.94336 -0.28907,0.26172 -0.62891,0.43945 -1.01953,0.5332 l -1.16016,0.23437 c -0.38281,0.0781 -0.73242,0.20508 -1.04883,0.38086 -0.31641,0.17579 -0.57617,0.40821 -0.7793,0.69727 -0.20312,0.28906 -0.30468,0.625 -0.30468,1.00781 0,0.50782 0.13281,0.92188 0.39843,1.24219 0.26563,0.32031 0.61133,0.55273 1.03711,0.69727 0.42578,0.14453 0.88868,0.21679 1.38868,0.21679 0.58593,0 1.09765,-0.15625 1.53515,-0.46875 l 0.50391,0.42188 c 0,0.0312 0.0273,0.0469 0.082,0.0469 h 0.12891 c 0.0312,0 0.0605,-0.0156 0.0879,-0.0469 0.0273,-0.0313 0.041,-0.0625 0.041,-0.0937 v -2.26172 c 0,-0.10938 -0.043,-0.16406 -0.1289,-0.16406 h -0.21094 c -0.10156,0 -0.15234,0.0547 -0.15234,0.16406 0,0.60156 -0.16797,1.08398 -0.50391,1.44726 -0.33594,0.36329 -0.80469,0.54493 -1.40625,0.54493 -0.51563,0 -0.96289,-0.0957 -1.3418,-0.28711 -0.3789,-0.19141 -0.56836,-0.51758 -0.56836,-0.97852 0,-0.32031 0.13672,-0.58398 0.41016,-0.79101 0.27344,-0.20704 0.59375,-0.35352 0.96094,-0.43946 l 1.16015,-0.22265 c 0.39844,-0.0859 0.76758,-0.23633 1.10743,-0.45118 0.33984,-0.21484 0.60937,-0.48437 0.80859,-0.80859 0.19922,-0.32422 0.29883,-0.69336 0.29883,-1.10742 0,-0.41406 -0.0723,-0.77344 -0.2168,-1.07813 -0.14453,-0.30468 -0.34375,-0.55859 -0.59766,-0.76172 -0.2539,-0.20312 -0.55468,-0.35351 -0.90234,-0.45117 -0.34766,-0.0976 -0.71289,-0.14648 -1.0957,-0.14648 -0.71875,0 -1.33594,0.24219 -1.85157,0.72656 l -0.63281,-0.67969 c 0,-0.0312 -0.0312,-0.0469 -0.0937,-0.0469 h -0.0937 c -0.10156,0 -0.15234,0.0508 -0.15234,0.15234 z"
       style="fill:#262626;fill-opacity:1;fill-rule:nonzero;stroke:none;stroke-width:0.75"
       id="path198"
       inkscape:connector-curvature="0" /><path
       d="m 348.19938,411.46372 v 0.6914 h 1.67578 v 15.86719 h -1.67578 v 0.69141 h 2.36718 v -17.25 z"
       style="fill:#262626;fill-opacity:1;fill-rule:nonzero;stroke:none;stroke-width:0.75"
       id="path202"
       inkscape:connector-curvature="0" /><path
       d="m 74.249992,457.875 v 145.5"
       style="fill:none;stroke:#262626;stroke-width:0.50000024;stroke-linecap:square;stroke-linejoin:round;stroke-miterlimit:10;stroke-dasharray:none;stroke-opacity:1"
       id="path206"
       inkscape:connector-curvature="0" /><path
       d="m 559.5,457.875 v 145.5"
       style="fill:none;stroke:#262626;stroke-width:0.50000024;stroke-linecap:square;stroke-linejoin:round;stroke-miterlimit:10;stroke-dasharray:none;stroke-opacity:1"
       id="path210"
       inkscape:connector-curvature="0" /><path
       d="m 74.249992,457.875 h 4.8525"
       style="fill:none;stroke:#262626;stroke-width:0.50000024;stroke-linecap:square;stroke-linejoin:round;stroke-miterlimit:10;stroke-dasharray:none;stroke-opacity:1"
       id="path214"
       inkscape:connector-curvature="0" /><path
       d="m 74.249992,494.25 h 4.8525"
       style="fill:none;stroke:#262626;stroke-width:0.50000024;stroke-linecap:square;stroke-linejoin:round;stroke-miterlimit:10;stroke-dasharray:none;stroke-opacity:1"
       id="path218"
       inkscape:connector-curvature="0" /><path
       d="m 74.249992,530.625 h 4.8525"
       style="fill:none;stroke:#262626;stroke-width:0.50000024;stroke-linecap:square;stroke-linejoin:round;stroke-miterlimit:10;stroke-dasharray:none;stroke-opacity:1"
       id="path222"
       inkscape:connector-curvature="0" /><path
       d="m 74.249992,567 h 4.8525"
       style="fill:none;stroke:#262626;stroke-width:0.50000024;stroke-linecap:square;stroke-linejoin:round;stroke-miterlimit:10;stroke-dasharray:none;stroke-opacity:1"
       id="path226"
       inkscape:connector-curvature="0" /><path
       d="m 74.249992,603.375 h 4.8525"
       style="fill:none;stroke:#262626;stroke-width:0.50000024;stroke-linecap:square;stroke-linejoin:round;stroke-miterlimit:10;stroke-dasharray:none;stroke-opacity:1"
       id="path230"
       inkscape:connector-curvature="0" /><path
       d="m 559.5,457.875 h -4.85248"
       style="fill:none;stroke:#262626;stroke-width:0.50000024;stroke-linecap:square;stroke-linejoin:round;stroke-miterlimit:10;stroke-dasharray:none;stroke-opacity:1"
       id="path234"
       inkscape:connector-curvature="0" /><path
       d="m 559.5,494.25 h -4.85248"
       style="fill:none;stroke:#262626;stroke-width:0.50000024;stroke-linecap:square;stroke-linejoin:round;stroke-miterlimit:10;stroke-dasharray:none;stroke-opacity:1"
       id="path238"
       inkscape:connector-curvature="0" /><path
       d="m 559.5,530.625 h -4.85248"
       style="fill:none;stroke:#262626;stroke-width:0.50000024;stroke-linecap:square;stroke-linejoin:round;stroke-miterlimit:10;stroke-dasharray:none;stroke-opacity:1"
       id="path242"
       inkscape:connector-curvature="0" /><path
       d="m 559.5,567 h -4.85248"
       style="fill:none;stroke:#262626;stroke-width:0.50000024;stroke-linecap:square;stroke-linejoin:round;stroke-miterlimit:10;stroke-dasharray:none;stroke-opacity:1"
       id="path246"
       inkscape:connector-curvature="0" /><path
       d="m 559.5,603.375 h -4.85248"
       style="fill:none;stroke:#262626;stroke-width:0.50000024;stroke-linecap:square;stroke-linejoin:round;stroke-miterlimit:10;stroke-dasharray:none;stroke-opacity:1"
       id="path250"
       inkscape:connector-curvature="0" /><g
       id="g254"
       transform="matrix(0.75,0,0,-0.75,69.050005,457.875)"><text
   transform="translate(-62,7)"
   style="font-variant:normal;font-weight:normal;font-size:21.33300018px;font-family:Helvetica;-inkscape-font-specification:Helvetica;writing-mode:lr-tb;fill:#262626;fill-opacity:1;fill-rule:nonzero;stroke:none"
   id="text258"><tspan
     x="0 7.103889 18.965036 30.826185 42.687332"
     y="0"
     sodipodi:role="line"
     id="tspan256">-4000</tspan></text>


</g><g
       id="g262"
       transform="matrix(0.75,0,0,-0.75,69.050005,494.25)"><text
   transform="translate(-62,7)"
   style="font-variant:normal;font-weight:normal;font-size:21.33300018px;font-family:Helvetica;-inkscape-font-specification:Helvetica;writing-mode:lr-tb;fill:#262626;fill-opacity:1;fill-rule:nonzero;stroke:none"
   id="text266"><tspan
     x="0 7.103889 18.965036 30.826185 42.687332"
     y="0"
     sodipodi:role="line"
     id="tspan264">-2000</tspan></text>


</g><g
       id="g270"
       transform="matrix(0.75,0,0,-0.75,69.050005,530.625)"><text
   transform="translate(-14,7)"
   style="font-variant:normal;font-weight:normal;font-size:21.33300018px;font-family:Helvetica;-inkscape-font-specification:Helvetica;writing-mode:lr-tb;fill:#262626;fill-opacity:1;fill-rule:nonzero;stroke:none"
   id="text274"><tspan
     x="0"
     y="0"
     id="tspan272">0</tspan></text>


</g><g
       id="g278"
       transform="matrix(0.75,0,0,-0.75,69.050005,567)"><text
   transform="translate(-55,7)"
   style="font-variant:normal;font-weight:normal;font-size:21.33300018px;font-family:Helvetica;-inkscape-font-specification:Helvetica;writing-mode:lr-tb;fill:#262626;fill-opacity:1;fill-rule:nonzero;stroke:none"
   id="text282"><tspan
     x="0 11.861148 23.722296 35.583443"
     y="0"
     sodipodi:role="line"
     id="tspan280">2000</tspan></text>


</g><g
       id="g286"
       transform="matrix(0.75,0,0,-0.75,69.050005,603.375)"><text
   transform="translate(-55,7)"
   style="font-variant:normal;font-weight:normal;font-size:21.33300018px;font-family:Helvetica;-inkscape-font-specification:Helvetica;writing-mode:lr-tb;fill:#262626;fill-opacity:1;fill-rule:nonzero;stroke:none"
   id="text290"><tspan
     x="0 11.861148 23.722296 35.583443"
     y="0"
     sodipodi:role="line"
     id="tspan288">4000</tspan></text>


</g><path
       d="m 13.213927,501.16692 c 0,-0.10938 -0.07422,-0.16406 -0.222656,-0.16406 -0.03125,0 -0.08203,0.01 -0.152344,0.0293 -0.07031,0.0195 -0.126953,0.0449 -0.169922,0.0762 -0.04297,0.0312 -0.06445,0.0664 -0.06445,0.10546 0,0.70313 -0.03906,1.19141 -0.117188,1.46485 -0.04687,0.15625 -0.199219,0.26562 -0.457031,0.32812 l -9.4804682,2.36719 c -0.1093747,0.0234 -0.1875,0.0352 -0.234375,0.0352 -0.1249995,0 -0.195312,-0.0703 -0.2109374,-0.21094 -0.046875,-0.21093 -0.070312,-0.62109 -0.070312,-1.23046 0,-0.11719 -0.07422,-0.17579 -0.2226562,-0.17579 -0.031253,0.008 -0.082031,0.0195 -0.1523438,0.0352 -0.070312,0.0156 -0.1269532,0.0391 -0.1699215,0.0703 -0.042968,0.0312 -0.064455,0.0703 -0.064455,0.11719 l -4e-7,9.11718 c 0,0.10938 0.078125,0.16407 0.234375,0.16407 l 3.5742188,-0.41016 c 0.031252,0 0.064455,-0.0195 0.09961,-0.0586 0.035152,-0.0391 0.052732,-0.0781 0.052732,-0.11718 v -0.15235 c 0,-0.11719 -0.07422,-0.17578 -0.2226562,-0.17578 -0.5234363,0.0703 -0.9492188,0.10547 -1.2773438,0.10547 -0.5781247,0 -1.0019527,-0.12305 -1.2714839,-0.36914 -0.2695313,-0.24609 -0.4335938,-0.55859 -0.4921875,-0.9375 -0.058597,-0.37891 -0.087891,-0.89649 -0.087891,-1.55274 v -1.85156 c 10e-8,-0.3125 0.027345,-0.51953 0.082031,-0.62109 0.05469,-0.10156 0.2265638,-0.19531 0.515625,-0.28125 l 4.3945313,-1.10156 v 1.30078 c 0,0.42187 -0.023438,0.76562 -0.070313,1.03125 -0.046875,0.26562 -0.1347652,0.48633 -0.2636715,0.66211 -0.1289063,0.17578 -0.3144533,0.32031 -0.556641,0.43359 -0.2421863,0.11328 -0.566406,0.2168 -0.9726563,0.31055 -0.1093747,0.0391 -0.1640625,0.0977 -0.1640625,0.17578 v 0.15234 c 0,0.11719 0.078125,0.17578 0.234375,0.17578 l 4.2539055,-1.04296 c 0.1015628,-0.0547 0.1523438,-0.11719 0.1523438,-0.1875 v -0.14063 c 0,-0.11719 -0.07422,-0.17578 -0.2226562,-0.17578 -0.1171875,0.0312 -0.2148435,0.0547 -0.2929688,0.0703 -0.078125,0.0156 -0.191406,0.0371 -0.3398437,0.0645 -0.148437,0.0273 -0.28125,0.041 -0.3984375,0.041 -0.328125,0 -0.5371095,-0.14648 -0.6269528,-0.43945 -0.089844,-0.29297 -0.1347659,-0.67773 -0.1347659,-1.1543 v -1.40625 l 4.4648437,-1.125 c 0.117189,-0.0312 0.175782,-0.0469 0.175782,-0.0469 0.132813,0 0.207032,0.043 0.222657,0.12891 0.07813,0.29687 0.117186,0.88281 0.117186,1.75781 0,0.11719 0.07813,0.17578 0.234375,0.17578 0.15625,-0.0391 0.257814,-0.0703 0.304689,-0.0937 0.04687,-0.0234 0.07031,-0.0899 0.07031,-0.19922 v -5.07422 z"
       style="fill:#262626;fill-opacity:1;fill-rule:nonzero;stroke:none;stroke-width:0.75"
       id="path294"
       inkscape:connector-curvature="0" /><path
       d="m 13.264057,513.43392 c 0.476562,0 0.898437,0.0918 1.265624,0.27539 0.367188,0.1836 0.652344,0.45313 0.855469,0.8086 0.203125,0.35546 0.304688,0.77148 0.304688,1.24804 0,0.50781 -0.128907,0.99414 -0.386719,1.45899 -0.257813,0.46484 -0.601563,0.86328 -1.03125,1.19531 -0.429688,0.33203 -0.886719,0.55664 -1.371094,0.67383 -0.04687,0.0156 -0.07031,0.0469 -0.07031,0.0937 v 0.15234 c 0,0.0312 0.0098,0.0566 0.0293,0.0762 0.01953,0.0195 0.04492,0.0293 0.07617,0.0293 0.0078,0 0.01953,-0.004 0.03516,-0.0117 0.554687,-0.14063 1.074219,-0.40625 1.558594,-0.79688 0.484375,-0.39063 0.871093,-0.85938 1.160156,-1.40625 0.289062,-0.54687 0.433594,-1.10937 0.433594,-1.6875 0,-0.625 -0.142578,-1.18555 -0.427735,-1.68164 -0.285156,-0.49609 -0.677734,-0.88281 -1.177734,-1.16016 -0.5,-0.27734 -1.0625,-0.41601 -1.6875,-0.41601 -0.671875,0 -1.337891,0.15039 -1.998047,0.45117 -0.660156,0.30078 -1.2460933,0.70508 -1.7578123,1.21289 -0.511719,0.50781 -0.9199223,1.08789 -1.2246098,1.74023 -0.3046875,0.65235 -0.4570313,1.31055 -0.4570313,1.97461 0,0.26563 0.03906,0.51953 0.1171874,0.76172 0.078125,0.24219 0.1992188,0.4668 0.3632812,0.67383 0.1640625,0.20703 0.3554693,0.37695 0.5742188,0.50977 l -1.0312501,0.94921 c -0.015623,0 -0.023437,0.0195 -0.023437,0.0586 v 0.0703 c 0,0.0313 0.013673,0.0566 0.041017,0.0762 0.027345,0.0195 0.052733,0.0293 0.076172,0.0293 l 3.2460931,-0.80859 c 0.05469,0 0.08203,-0.0312 0.08203,-0.0937 v -0.22266 c 0,-0.0625 -0.04687,-0.0937 -0.140625,-0.0937 -0.171874,0.0312 -0.382812,0.0469 -0.632812,0.0469 -0.3906251,0 -0.7578123,-0.0664 -1.1015628,-0.19922 -0.3437498,-0.13282 -0.6210937,-0.33789 -0.8320312,-0.61524 -0.2109375,-0.27734 -0.3164063,-0.61914 -0.3164062,-1.02539 0,-0.64844 0.1640625,-1.24414 0.4921875,-1.78711 0.3281251,-0.54297 0.7578128,-1.0039 1.2890626,-1.38281 0.5312511,-0.37891 1.1230471,-0.66992 1.7753911,-0.87305 0.652344,-0.20312 1.283204,-0.30468 1.892579,-0.30468 z"
       style="fill:#262626;fill-opacity:1;fill-rule:nonzero;stroke:none;stroke-width:0.75"
       id="path298"
       inkscape:connector-curvature="0" /><path
       d="m 15.8539,521.92519 c 0,-0.0781 -0.05469,-0.11719 -0.164063,-0.11719 -0.01562,0.008 -0.04883,0.0176 -0.09961,0.0293 -0.05078,0.0117 -0.08984,0.0273 -0.117187,0.0469 -0.02734,0.0195 -0.04102,0.0449 -0.04102,0.0762 0,0.49219 -0.02734,0.83203 -0.08203,1.01953 -0.03906,0.10938 -0.148438,0.1875 -0.328125,0.23438 l -6.585938,1.64062 c -0.078124,0.0156 -0.1328115,0.0234 -0.1640625,0.0234 -0.085937,0 -0.1367175,-0.0469 -0.1523437,-0.14062 -0.031253,-0.14844 -0.046875,-0.4375 -0.046875,-0.86719 0,-0.0781 -0.050783,-0.11719 -0.1523438,-0.11719 -0.023437,0.008 -0.058598,0.0176 -0.1054687,0.0293 -0.046875,0.0117 -0.085936,0.0273 -0.1171875,0.0469 -0.031252,0.0195 -0.046875,0.0449 -0.046875,0.0762 l -3e-7,6.50391 c 0,0.0859 0.05469,0.12891 0.1640625,0.12891 l 2.484375,-0.29297 c 0.01562,0 0.03711,-0.0137 0.06445,-0.041 0.02735,-0.0273 0.04102,-0.0527 0.04102,-0.0762 v -0.10547 c 0,-0.0859 -0.05078,-0.1289 -0.152344,-0.1289 -0.390625,0.0469 -0.6796877,0.0703 -0.8671877,0.0703 -0.3203123,0 -0.570312,-0.0547 -0.75,-0.16406 -0.1796873,-0.10938 -0.3085935,-0.25391 -0.3867187,-0.4336 -0.078124,-0.17969 -0.1269525,-0.38086 -0.146484,-0.60351 -0.01953,-0.22266 -0.029295,-0.51368 -0.029295,-0.87305 l 10e-8,-1.35938 c 0,-0.21875 0.01953,-0.36328 0.058597,-0.43359 0.03906,-0.0703 0.1562505,-0.13672 0.3515625,-0.19922 l 2.9062508,-0.71484 v 0.9375 c 0,0.40625 -0.02929,0.71289 -0.08789,0.91992 -0.0586,0.20703 -0.177734,0.37109 -0.357422,0.49219 -0.179687,0.12109 -0.464843,0.22851 -0.855469,0.32226 -0.02344,0.008 -0.04687,0.0234 -0.07031,0.0469 -0.023438,0.0234 -0.035153,0.0469 -0.035153,0.0703 v 0.11719 c 0,0.0781 0.050783,0.11719 0.152344,0.11719 l 2.964844,-0.75 c 0.07031,-0.0156 0.105469,-0.0547 0.105469,-0.11719 v -0.10547 c 0,-0.0781 -0.05078,-0.11719 -0.152344,-0.11719 -0.320313,0.0781 -0.554688,0.11719 -0.703125,0.11719 -0.234375,0 -0.382812,-0.10547 -0.445313,-0.31641 -0.0625,-0.21093 -0.09375,-0.49218 -0.09375,-0.84375 v -0.99609 l 3.257813,-0.82031 c 0.101562,-0.0312 0.191406,-0.0469 0.269531,-0.0469 0.0625,0 0.09375,0.13672 0.09375,0.41016 v 1.45312 c 0,0.57813 -0.04492,1.04688 -0.134766,1.40625 -0.08984,0.35938 -0.234375,0.65625 -0.433594,0.89063 -0.199218,0.23437 -0.451172,0.4375 -0.755859,0.60937 -0.304688,0.17188 -0.746094,0.38282 -1.324219,0.63282 -0.05469,0.0156 -0.08203,0.0508 -0.08203,0.10547 v 0.10546 c 0,0.0312 0.01367,0.0586 0.04102,0.082 0.02734,0.0234 0.06055,0.0352 0.09961,0.0352 0.01563,0 0.03125,-0.004 0.04687,-0.0117 l 2.894518,-1.23046 c 0.04687,-0.0156 0.07031,-0.0469 0.07031,-0.0937 z"
       style="fill:#262626;fill-opacity:1;fill-rule:nonzero;stroke:none;stroke-width:0.75"
       id="path302"
       inkscape:connector-curvature="0" /><path
       d="M 17.526426,539.95305 H 0.2764261 l -1.1e-7,2.35546 h 0.69140625 l 8e-8,-1.66406 H 16.835019 v 1.66406 h 0.691406 z"
       style="fill:#262626;fill-opacity:1;fill-rule:nonzero;stroke:none;stroke-width:0.75"
       id="path306"
       inkscape:connector-curvature="0" /><path
       d="M 13.213925,543.33023 H 12.60455 c 0,1.1875 -0.339843,1.78125 -1.019531,1.78125 H 2.1397071 c -0.070312,-0.375 -0.1054687,-0.96875 -0.1054687,-1.78125 h -0.609375 l -1e-7,3.30469 c 0,0.0547 0.023437,0.0937 0.070312,0.11719 l 8.9882807,6.10547 -7.4296872,-10e-6 c -0.6796875,0 -1.0195312,-0.58984 -1.0195312,-1.76953 h -0.609375 l -2e-7,4.10157 h 0.609375 c 1e-7,-1.17969 0.3398439,-1.76954 1.0195314,-1.76954 l 10.0078112,10e-6 c 0.03125,0 0.06445,-0.0234 0.09961,-0.0703 0.03516,-0.0469 0.05273,-0.082 0.05273,-0.10547 v -0.21093 c 0,-0.0625 -0.02344,-0.10157 -0.07031,-0.11719 L 2.4795486,545.66228 h 9.1054684 c 0.679688,0 1.019532,0.59375 1.019532,1.78125 h 0.609375 z"
       style="fill:#262626;fill-opacity:1;fill-rule:nonzero;stroke:none;stroke-width:0.75"
       id="path310"
       inkscape:connector-curvature="0" /><path
       d="m 17.526425,556.37791 h -0.691406 v 1.67579 l -15.86718744,-1e-5 7e-8,-1.67578 H 0.27642538 l -1e-7,2.36719 H 17.526425 Z"
       style="fill:#262626;fill-opacity:1;fill-rule:nonzero;stroke:none;stroke-width:0.75"
       id="path314"
       inkscape:connector-curvature="0" /><path
       d="m 74.249992,537.6391 0.972466,0.0419 0.972435,0.0421 0.972435,0.0423 0.972465,0.0425 0.972435,0.0427 0.972435,0.0428 0.972457,0.043 0.972443,0.0433 0.972435,0.0434 0.972457,0.0437 0.972443,0.0438 0.972427,0.044 0.972465,0.0443 0.972443,0.0444 0.972435,0.0446 0.972457,0.0448 0.972435,0.045 0.972443,0.0452 0.972457,0.0454 0.972428,0.0457 0.972442,0.0459 0.972458,0.046 0.972442,0.0463 0.972443,0.0465 0.972457,0.0467 0.972428,0.047 0.972462,0.0472 0.97244,0.0474 0.97244,0.0476 0.97246,0.0478 0.97244,0.0481 0.97244,0.0482 0.97245,0.0485 0.97244,0.0487 0.97243,0.049 0.97247,0.0492 0.97243,0.0494 0.97245,0.0497 0.97245,0.0499 0.97243,0.0502 0.97244,0.0504 0.97246,0.0506 0.97244,0.0509 0.97244,0.0511 0.97245,0.0514 0.97244,0.0516 0.97244,0.0518 0.97246,0.0521 0.97244,0.0524 0.97244,0.0526 0.97245,0.0529 0.97244,0.0532 0.97246,0.0534 0.97244,0.0537 0.97244,0.0539 0.97246,0.0542 0.97243,0.0545 0.97243,0.0548 0.97247,0.055 0.97243,0.0553 0.97245,0.0556 0.97245,0.0559 0.97245,0.0562 0.97242,0.0565 0.97246,0.0567 0.97244,0.057 0.97244,0.0573 0.97246,0.0576 0.97245,0.0579 0.97242,0.0582 0.97246,0.0585 0.97244,0.0588 0.97244,0.0591 0.97246,0.0594 0.97244,0.0597 0.97244,0.06 0.97245,0.0604 0.97244,0.0607 0.97244,0.061 0.97246,0.0613 0.97244,0.0616 0.97245,0.062 0.97243,0.0623 0.97245,0.0626 0.97245,0.063 0.97245,0.0633 0.97243,0.0637 0.97245,0.064 0.97244,0.0643 0.97244,0.0647 0.97246,0.065 0.97245,0.0654 0.97243,0.0658 0.97247,0.0661 0.97242,0.0665 0.97244,0.0668 0.97246,0.0673 0.97244,0.0676 0.97244,0.068 0.97246,0.0684 0.97243,0.0688 0.97244,0.0692 0.97246,0.0695 0.97244,0.0699 0.97243,0.0704 0.97247,0.0707 0.97243,0.0711 0.97245,0.0716 0.97245,0.0719 0.97243,0.0724 0.97245,0.0728 0.97245,0.0732 0.97244,0.0737 0.97244,0.074 0.97246,0.0745 0.97245,0.0749 0.97242,0.0754 0.97245,0.0758 0.97245,0.0763 0.97245,0.0767 0.97245,0.0772 0.97245,0.0776 0.97243,0.0781 0.97245,0.0786 0.97245,0.079 0.97243,0.0795 0.97245,0.08 0.97245,0.0805 0.97245,0.081 0.97243,0.0815 0.97245,0.082 0.97245,0.0825 0.97245,0.083 0.97245,0.0835 0.97242,0.084 0.97245,0.0845 0.97245,0.0851 0.97245,0.0856 0.97243,0.0861 0.97245,0.0867 0.97245,0.0872 0.97245,0.0878 0.97243,0.0883 0.97245,0.0889 0.97245,0.0895 0.97245,0.0901 0.97245,0.0906 0.97243,0.0912 0.97245,0.0918 0.97245,0.0924 0.97245,0.093 0.97242,0.0936 0.97245,0.0942 0.97245,0.0949 0.97245,0.0955 0.97243,0.0961 0.97245,0.0968 0.97245,0.0974 0.97246,0.0981 0.97245,0.0987 0.97243,0.0994 0.97245,0.10008 0.97245,0.10075 0.97245,0.10144 0.97242,0.10213 0.97245,0.10284 0.97245,0.10354 0.97243,0.10427 0.97245,0.10498 0.97245,0.10572 0.97245,0.10646 0.97245,0.10721 0.97243,0.10795 0.97245,0.10873 0.97245,0.10948 0.97245,0.11028 0.97245,0.11106 0.97243,0.11186 0.97245,0.11266 0.97245,0.11348 0.97242,0.11429 0.97245,0.11513 0.97245,0.11597 0.97245,0.11682 0.97245,0.11767 0.97243,0.11855 0.97245,0.11942 0.97245,0.12032 0.97245,0.1212 0.97245,0.12213 0.97243,0.12303 0.97245,0.12396 0.97245,0.12491 0.97243,0.12585 0.97245,0.12681 0.97245,0.12779 0.97245,0.12878 0.97242,0.12975 0.97245,0.13077 0.97245,0.13179 0.97245,0.13282 0.97245,0.13386 0.97243,0.13491 0.97245,0.13597 0.97246,0.13707 0.97245,0.13815 0.97243,0.13925 0.97245,0.14037 0.97245,0.14151 0.97245,0.14266 0.97242,0.14381 0.97245,0.14498 0.97245,0.14618 0.97245,0.14737 0.97245,0.1486 0.97243,0.14983 0.97245,0.15108 0.97245,0.15234 0.97245,0.15362 0.97243,0.15492 0.97245,0.15622 0.97245,0.15757 0.97245,0.1589 0.97243,0.16028 0.97245,0.16166 0.97245,0.16305 0.97245,0.16447 0.97245,0.16591 0.97242,0.16736 0.97245,0.16883 0.97245,0.17033 0.97245,0.17185 0.97243,0.17338 0.97245,0.17494 0.97245,0.17651 0.97245,0.17811 0.97243,0.17973 0.97245,0.18136 0.97245,0.18304 0.97245,0.18472 0.97245,0.18643 0.97243,0.18816 0.97245,0.18993 0.97245,0.19171 0.97245,0.19351 0.97242,0.19535 0.97245,0.19721 0.97245,0.1991 0.97246,0.20101 0.97242,0.20295 0.97246,0.20493 0.97245,0.20692 0.97245,0.20895 0.97243,0.21101 0.97245,0.21311 0.97245,0.21522 0.97245,0.21737 0.97245,0.21956 0.97242,0.22178 0.97245,0.22403 0.97245,0.22631 0.97245,0.22864 0.97243,0.23099 0.97245,0.23339 0.97245,0.23581 0.97245,0.23829 0.97243,0.2408 0.97245,0.24334 0.97245,0.24593 0.97245,0.24856 0.97243,0.25124 0.97245,0.25395 0.97245,0.25672 0.97245,0.25951 0.97245,0.26238 0.97242,0.26526 0.97245,0.26822 0.97245,0.27121 0.97245,0.27426 0.97243,0.27737 0.97245,0.28051 0.97245,0.28372 0.97245,0.28698 0.97243,0.29029 0.97245,0.29368 0.97245,0.53649 0.97245,0.54569 0.97243,0.51502 0.97245,0.48687 0.97245,0.46096 0.97245,0.43708 0.97245,0.41499 0.97242,0.39455 0.97245,0.37557 0.97246,0.35794 0.97245,0.34152 0.97243,0.32619 0.97245,0.31189 0.97245,0.2985 0.97245,0.28595 0.97243,0.27419 0.97245,0.26312 0.97245,0.25273 0.97245,0.24292 0.97242,0.23369 0.97245,0.22497 0.97245,0.21672 0.97245,0.20893 0.97245,0.20154 0.97243,0.19455 0.97245,0.1879 0.97243,0.1816 0.97247,0.1756 0.97243,0.1699 0.97247,0.16447 0.97243,0.1593 0.97243,0.15437 0.97247,0.14966 0.97243,0.14516 0.97242,0.14087 0.97248,0.13676 0.97242,0.13283 0.97248,0.12907 0.97242,0.12546 0.97243,0.12201 0.97247,0.11868 0.97243,0.11552 0.97247,0.11245 0.97243,0.10951 0.97243,0.10669 0.97247,0.10398 0.97243,0.10136 0.97243,0.0988 0.97247,0.0964 0.97243,0.0941 0.97247,0.0918 0.97243,0.0897 0.97242,0.0876 0.97248,0.0856 0.97242,0.0836 0.97248,0.0817 0.97243,0.0799 0.97243,0.0781 0.97247,0.0764 0.97243,0.0748 0.97243,0.0732 0.97247,0.0716 0.97243,0.0701 0.97247,0.0687 0.97243,0.0673 0.97242,0.0659 0.97248,0.0646 0.97242,0.0633 0.97243,0.062 0.97247,0.0608 0.97243,0.0597 0.97247,0.0585 0.97243,0.0574 0.97243,0.0563 0.97247,0.0553 0.97243,0.0543 0.97247,0.0533 0.97243,0.0523 0.97243,0.0514 0.97247,0.0505 0.97243,0.0496 0.97242,0.0487 0.97248,0.0479 0.97242,0.047 0.97248,0.0462 0.97242,0.0455 0.97243,0.0447 0.97247,0.044 0.97243,0.0432 0.97247,0.0425 0.97243,0.0418 0.97243,0.0412 0.97247,0.0405 0.97243,0.0399 0.97243,0.0393 0.97247,0.0386 0.97243,0.0381 0.97247,0.0375 0.97243,0.0369 0.97242,0.0363 0.97248,0.0358 0.97243,0.0353 0.97247,0.0347 0.97243,0.0342 0.97243,0.0337 0.97247,0.0332 0.97243,0.0328 0.97243,0.0323 0.97247,0.0318 0.97243,0.0314 0.97247,0.031 0.97243,0.0305 0.97242,0.0301 0.97248,0.0297 0.97242,0.0293 0.97243,0.0289 0.97247,0.0285 0.97243,0.0281 0.97247,0.0278 0.97243,0.0274 0.97243,0.027 0.97247,0.0267 0.97243,0.0264 0.97247,0.026 0.97243,0.0257 0.97243,0.0254 0.97247,0.025 0.97243,0.0247 0.97242,0.0244 0.97248,0.0241 0.97242,0.0238 0.97248,0.0236 0.97242,0.0233 0.97243,0.023 0.97247,0.0227 0.97243,0.0224 0.97247,0.0222 0.97243,0.0219 0.97243,0.0217 0.97247,0.0214 0.97243,0.0212 0.97243,0.0209 0.97247,0.0207 0.97243,0.0204 0.97248,0.0202 0.97242,0.02 0.97242,0.0198 0.97248,0.0195 0.97243,0.0193 0.97247,0.0191 0.97243,0.0189 0.97243,0.0187 0.97247,0.0185 0.97243,0.0183 0.97243,0.0181 0.97247,0.0179 0.97243,0.0177 0.97247,0.0175 0.97243,0.0174 0.97242,0.0172 0.97248,0.017 0.97242,0.0168 0.97243,0.0167 0.97247,0.0165 0.97243,0.0163 0.97247,0.0162 0.97243,0.016 0.97243,0.0158 0.97247,0.0157 0.97243,0.0155 0.97243,0.0154 0.97247,0.0152 0.97243,0.0151 0.97247,0.0149 0.97243,0.0148 0.97242,0.0146 0.97248,0.0145 0.97242,0.0144 0.97248,0.0142 0.97242,0.0141 0.97243,0.014 0.97247,0.0138 0.97243,0.0137 0.97243,0.0136 0.97247,0.0135 0.97243,0.0133 0.97247,0.0132 0.97243,0.0131 0.97243,0.013 0.97247,0.0128 0.97243,0.0127 0.97248,0.0126 0.97242,0.0125 0.97243,0.0124 0.97247,0.0123 0.97243,0.0122 0.97247,0.0121 0.97243,0.012 0.97243,0.0119 0.97247,0.0118 0.97243,0.0117 0.97243,0.0116 0.97247,0.0115 0.97243,0.0114 0.97242,0.0113 0.97248,0.0112 0.97242,0.0111 0.97248,0.011 0.97242,0.0109 0.97243,0.0108 0.97247,0.0107 0.97243,0.0106 0.97247,0.0106 0.97243,0.0103"
       style="fill:none;stroke:#a2142f;stroke-width:2.00000024;stroke-linecap:butt;stroke-linejoin:round;stroke-miterlimit:10;stroke-dasharray:none;stroke-opacity:1"
       id="path370"
       inkscape:connector-curvature="0" /><path
       d="M 74.249992,588.73406 H 559.5"
       style="fill:none;stroke:#ffd700;stroke-width:2.00000024;stroke-linecap:butt;stroke-linejoin:round;stroke-miterlimit:10;stroke-dasharray:none;stroke-opacity:1"
       id="path374"
       inkscape:connector-curvature="0" /><path
       d="M 74.249992,518.51895 H 559.5"
       style="fill:none;stroke:#ffd700;stroke-width:2.00000024;stroke-linecap:butt;stroke-linejoin:round;stroke-miterlimit:10;stroke-dasharray:none;stroke-opacity:1"
       id="path378"
       inkscape:connector-curvature="0" /><path
       d="m 319.70443,518.51895 v 70.21511"
       style="fill:none;stroke:#ffd700;stroke-width:2.00000024;stroke-linecap:butt;stroke-linejoin:round;stroke-miterlimit:10;stroke-dasharray:none;stroke-opacity:1"
       id="path382"
       inkscape:connector-curvature="0" /><path
       d="m 518.64985,518.51895 v 70.21511"
       style="fill:none;stroke:#ffd700;stroke-width:2.00000024;stroke-linecap:butt;stroke-linejoin:round;stroke-miterlimit:10;stroke-dasharray:none;stroke-opacity:1"
       id="path386"
       inkscape:connector-curvature="0" /><path
       d="m 74.249992,537.6391 0.972466,0.0419 0.972435,0.0421 0.972435,0.0423 0.972465,0.0425 0.972435,0.0427 0.972435,0.0428 0.972457,0.043 0.972443,0.0433 0.972435,0.0434 0.972457,0.0437 0.972443,0.0438 0.972427,0.044 0.972465,0.0443 0.972443,0.0444 0.972435,0.0446 0.972457,0.0448 0.972435,0.045 0.972443,0.0452 0.972457,0.0454 0.972428,0.0457 0.972442,0.0459 0.972458,0.046 0.972442,0.0463 0.972443,0.0465 0.972457,0.0467 0.972428,0.047 0.972462,0.0472 0.97244,0.0474 0.97244,0.0476 0.97246,0.0478 0.97244,0.0481 0.97244,0.0482 0.97245,0.0485 0.97244,0.0487 0.97243,0.049 0.97247,0.0492 0.97243,0.0494 0.97245,0.0497 0.97245,0.0499 0.97243,0.0502 0.97244,0.0504 0.97246,0.0506 0.97244,0.0509 0.97244,0.0511 0.97245,0.0514 0.97244,0.0516 0.97244,0.0518 0.97246,0.0521 0.97244,0.0524 0.97244,0.0526 0.97245,0.0529 0.97244,0.0532 0.97246,0.0534 0.97244,0.0537 0.97244,0.0539 0.97246,0.0542 0.97243,0.0545 0.97243,0.0548 0.97247,0.055 0.97243,0.0553 0.97245,0.0556 0.97245,0.0559 0.97245,0.0562 0.97242,0.0565 0.97246,0.0567 0.97244,0.057 0.97244,0.0573 0.97246,0.0576 0.97245,0.0579 0.97242,0.0582 0.97246,0.0585 0.97244,0.0588 0.97244,0.0591 0.97246,0.0594 0.97244,0.0597 0.97244,0.06 0.97245,0.0604 0.97244,0.0607 0.97244,0.061 0.97246,0.0613 0.97244,0.0616 0.97245,0.062 0.97243,0.0623 0.97245,0.0626 0.97245,0.063 0.97245,0.0633 0.97243,0.0637 0.97245,0.064 0.97244,0.0643 0.97244,0.0647 0.97246,0.065 0.97245,0.0654 0.97243,0.0658 0.97247,0.0661 0.97242,0.0665 0.97244,0.0668 0.97246,0.0673 0.97244,0.0676 0.97244,0.068 0.97246,0.0684 0.97243,0.0688 0.97244,0.0692 0.97246,0.0695 0.97244,0.0699 0.97243,0.0704 0.97247,0.0707 0.97243,0.0711 0.97245,0.0716 0.97245,0.0719 0.97243,0.0724 0.97245,0.0728 0.97245,0.0732 0.97244,0.0737 0.97244,0.074 0.97246,0.0745 0.97245,0.0749 0.97242,0.0754 0.97245,0.0758 0.97245,0.0763 0.97245,0.0767 0.97245,0.0772 0.97245,0.0776 0.97243,0.0781 0.97245,0.0786 0.97245,0.079 0.97243,0.0795 0.97245,0.08 0.97245,0.0805 0.97245,0.081 0.97243,0.0815 0.97245,0.082 0.97245,0.0825 0.97245,0.083 0.97245,0.0835 0.97242,0.084 0.97245,0.0845 0.97245,0.0851 0.97245,0.0856 0.97243,0.0861 0.97245,0.0867 0.97245,0.0872 0.97245,0.0878 0.97243,0.0883 0.97245,0.0889 0.97245,0.0895 0.97245,0.0901 0.97245,0.0906 0.97243,0.0912 0.97245,0.0918 0.97245,0.0924 0.97245,0.093 0.97242,0.0936 0.97245,0.0942 0.97245,0.0949 0.97245,0.0955 0.97243,0.0961 0.97245,0.0968 0.97245,0.0974 0.97246,0.0981 0.97245,0.0987 0.97243,0.0994 0.97245,0.10008 0.97245,0.10075 0.97245,0.10144 0.97242,0.10213 0.97245,0.10284 0.97245,0.10354 0.97243,0.10427 0.97245,0.10498 0.97245,0.10572 0.97245,0.10646 0.97245,0.10721 0.97243,0.10795 0.97245,0.10873 0.97245,0.10948 0.97245,0.11028 0.97245,0.11106 0.97243,0.11186 0.97245,0.11266 0.97245,0.11348 0.97242,0.11429 0.97245,0.11513 0.97245,0.11597 0.97245,0.11682 0.97245,0.11767 0.97243,0.11855 0.97245,0.11942 0.97245,0.12032 0.97245,0.1212 0.97245,0.12213 0.97243,0.12303 0.97245,0.12396 0.97245,0.12491 0.97243,0.12585 0.97245,0.12681 0.97245,0.12779 0.97245,0.12878 0.97242,0.12975 0.97245,0.13077 0.97245,0.13179 0.97245,0.13282 0.97245,0.13386 0.97243,0.13491 0.97245,0.13597 0.97246,0.13707 0.97245,0.13815 0.97243,0.13925 0.97245,0.14037 0.97245,0.14151 0.97245,0.14266 0.97242,0.14381 0.97245,0.14498 0.97245,0.14618 0.97245,0.14737 0.97245,0.1486 0.97243,0.14983 0.97245,0.15108 0.97245,0.15234 0.97245,0.15362 0.97243,0.15492 0.97245,0.15622 0.97245,0.15757 0.97245,0.1589 0.97243,0.16028 0.97245,0.16166 0.97245,0.16305 0.97245,0.16447 0.97245,0.16591 0.97242,0.16736 0.97245,0.16883 0.97245,0.17033 0.97245,0.17185 0.97243,0.17338 0.97245,0.17494 0.97245,0.17651 0.97245,0.17811 0.97243,0.17973 0.97245,0.18136 0.97245,0.18304 0.97245,0.18472 0.97245,0.18643 0.97243,0.18816 0.97245,0.18993 0.97245,0.19171 0.97245,0.19351 0.97242,0.19535 0.97245,0.19721 0.97245,0.1991 0.97246,0.20101 0.97242,0.20295 0.97246,0.20493 0.97245,0.20692 0.97245,0.20895 0.97243,0.21101 0.97245,0.21311 0.97245,0.21522 0.97245,0.21737 0.97245,0.21956 0.97242,0.22178 0.97245,0.22403 0.97245,0.22631 0.97245,0.22864 0.97243,0.23099 0.97245,0.23339 0.97245,0.23581 0.97245,0.23829 0.97243,0.2408 0.97245,0.24334 0.97245,0.24593 0.97245,0.24856 0.97243,0.25124 0.97245,0.25395 0.97245,0.25672 0.97245,0.25951 0.97245,0.26238 0.97242,0.26526 0.97245,0.26822 0.97245,0.27121 0.97245,0.27426 0.97243,0.27737 0.97245,0.28051 0.97245,0.28372 0.97245,0.28698 0.97243,0.29029 0.97245,0.29368 0.97245,0.2971 0.97245,0.3006 0.97243,0.30416 0.97245,0.30779 0.97245,0.31147 0.97245,0.31522 0.97245,0.31904 0.97242,0.32293 0.97245,0.3269 0.97246,0.33094 0.97245,0.33503 0.97243,0.33924 0.97245,0.34349 0.97245,0.34785 0.97245,0.35228 0.97243,0.35679 0.97245,0.3614 0.97245,0.36609 0.97245,0.37088 0.97242,0.37576 0.97245,0.38074 0.97245,0.38581 0.97245,0.39099 0.97245,0.39628 0.97243,0.40167 0.97245,0.40716 0.97243,0.41279 0.97247,0.41852 0.97243,0.42437 0.97247,0.43035 0.97243,0.43646 0.97243,0.44269 0.97247,0.44906 0.97243,0.45557 0.97242,0.46222 0.97248,0.46902 0.97242,0.47596 0.97248,0.48307 0.97242,0.49034 0.97243,0.49777 0.97247,0.50536 0.97243,0.51314 0.97247,0.5211 0.97243,0.52924 0.97243,0.53758 0.97247,0.5461 0.97243,0.55485"
       style="fill:none;stroke:#a2142f;stroke-width:2.00000024;stroke-linecap:butt;stroke-linejoin:bevel;stroke-miterlimit:1;stroke-dasharray:1.5, 1.5;stroke-dashoffset:0;stroke-opacity:1"
       id="path390"
       inkscape:connector-curvature="0" /><path
       d="m 325.14079,475.31911 0.97243,17.20917 0.97245,12.6747 0.97245,9.72379 0.97245,7.69598 0.97243,6.24258 0.97245,5.16538 0.97245,4.34486 0.97245,3.70545 0.97243,3.19752 0.97245,2.78733 0.97245,2.45131 0.97245,2.1726 0.97242,1.93887 0.97245,1.74092 0.97246,1.57183 0.97244,1.42622 0.97246,1.29996 0.97242,1.18974 0.97245,1.09298 0.97245,1.00755 0.97245,0.93178 0.97243,0.86423 0.97245,0.80377 0.97245,0.74945 0.97245,0.70045 0.97243,0.6561 0.97245,0.61584 0.97245,0.57917 0.97245,0.54569 0.97243,0.51501 0.97245,0.48688 0.97245,0.46096 0.97245,0.43708 0.97245,0.41499 0.97242,0.39455 0.97245,0.37557 0.97246,0.35793 0.97245,0.34152 0.97243,0.3262 0.97245,0.31189 0.97245,0.29849 0.97245,0.28596 0.97243,0.27419 0.97245,0.26312 0.97245,0.25272 0.97245,0.24293 0.97242,0.23369 0.97245,0.22496 0.97245,0.21673 0.97245,0.20892 0.97245,0.20155 0.97243,0.19455 0.97245,0.1879 0.97243,0.1816 0.97247,0.1756 0.97243,0.1699 0.97247,0.16447 0.97243,0.1593 0.97243,0.15436 0.97247,0.14966 0.97243,0.14517 0.97242,0.14087 0.97248,0.13676 0.97242,0.13283 0.97248,0.12907 0.97242,0.12546 0.97243,0.12201 0.97247,0.11868 0.97243,0.11551 0.97247,0.11245 0.97243,0.10952 0.97243,0.10669 0.97247,0.10398 0.97243,0.10136 0.97243,0.0988 0.97247,0.0964 0.97243,0.0941 0.97247,0.0918 0.97243,0.0897 0.97242,0.0876 0.97248,0.0856 0.97242,0.0836 0.97248,0.0817 0.97243,0.0799 0.97243,0.0781 0.97247,0.0764 0.97243,0.0748 0.97243,0.0732 0.97247,0.0716 0.97243,0.0701 0.97247,0.0687 0.97243,0.0673 0.97242,0.0659 0.97248,0.0646 0.97242,0.0633 0.97243,0.062 0.97247,0.0608 0.97243,0.0597 0.97247,0.0585 0.97243,0.0574 0.97243,0.0563 0.97247,0.0553 0.97243,0.0543 0.97247,0.0533 0.97243,0.0523 0.97243,0.0514 0.97247,0.0505 0.97243,0.0496 0.97242,0.0487 0.97248,0.0479 0.97242,0.047 0.97248,0.0462 0.97242,0.0455 0.97243,0.0447 0.97247,0.044 0.97243,0.0432 0.97247,0.0425 0.97243,0.0418 0.97243,0.0412 0.97247,0.0405 0.97243,0.0399 0.97243,0.0393 0.97247,0.0386 0.97243,0.038 0.97247,0.0375 0.97243,0.0369 0.97242,0.0363 0.97248,0.0358 0.97243,0.0353 0.97247,0.0348 0.97243,0.0342 0.97243,0.0337 0.97247,0.0333 0.97243,0.0328 0.97243,0.0323 0.97247,0.0319 0.97243,0.0314 0.97247,0.031 0.97243,0.0305 0.97242,0.0301 0.97248,0.0297 0.97242,0.0293 0.97243,0.0289 0.97247,0.0285 0.97243,0.0281 0.97247,0.0278 0.97243,0.0274 0.97243,0.0271 0.97247,0.0267 0.97243,0.0264 0.97247,0.026 0.97243,0.0257 0.97243,0.0254 0.97247,0.025 0.97243,0.0248 0.97242,0.0244 0.97248,0.0241 0.97242,0.0238 0.97248,0.0236 0.97242,0.0233 0.97243,0.023 0.97247,0.0227 0.97243,0.0224 0.97247,0.0222 0.97243,0.0219 0.97243,0.0217 0.97247,0.0214 0.97243,0.0212 0.97243,0.0209 0.97247,0.0207 0.97243,0.0204 0.97248,0.0202 0.97242,0.02 0.97242,0.0198 0.97248,0.0195 0.97243,0.0193 0.97247,0.0191 0.97243,0.0189 0.97243,0.0187 0.97247,0.0185 0.97243,0.0183 0.97243,0.0181 0.97247,0.0179 0.97243,0.0177 0.97247,0.0176 0.97243,0.0174 0.97242,0.0172 0.97248,0.017 0.97242,0.0168 0.97243,0.0167 0.97247,0.0165 0.97243,0.0163 0.97247,0.0162 0.97243,0.016 0.97243,0.0158 0.97247,0.0157 0.97243,0.0155 0.97243,0.0154 0.97247,0.0152 0.97243,0.0151 0.97247,0.0149 0.97243,0.0148 0.97242,0.0146 0.97248,0.0145 0.97242,0.0144 0.97248,0.0142 0.97242,0.0141 0.97243,0.014 0.97247,0.0138 0.97243,0.0137 0.97243,0.0136 0.97247,0.0135 0.97243,0.0133 0.97247,0.0132 0.97243,0.0131 0.97243,0.013 0.97247,0.0128 0.97243,0.0127 0.97248,0.0126 0.97242,0.0125 0.97243,0.0124 0.97247,0.0123 0.97243,0.0122 0.97247,0.0121 0.97243,0.012 0.97243,0.0119 0.97247,0.0118 0.97243,0.0117 0.97243,0.0116 0.97247,0.0115 0.97243,0.0114 0.97242,0.0113 0.97248,0.0112 0.97242,0.0111 0.97248,0.011 0.97242,0.0109 0.97243,0.0108 0.97247,0.0107 0.97243,0.0106 0.97247,0.0106 0.97243,0.0105"
       style="fill:none;stroke:#a2142f;stroke-width:2.00000024;stroke-linecap:butt;stroke-linejoin:bevel;stroke-miterlimit:1;stroke-dasharray:1.5, 1.5;stroke-dashoffset:0;stroke-opacity:1"
       id="path394"
       inkscape:connector-curvature="0" /><path
       d="m 537.75,463.875 v 43.5 H 414 v -43.5 z"
       style="fill:#ffffff;fill-opacity:1;fill-rule:nonzero;stroke:none;stroke-width:0.75"
       id="path398"
       inkscape:connector-curvature="0" /><g
       id="g402"
       transform="matrix(0.75,0,0,-0.75,449.25,492.375)"><text
   style="font-variant:normal;font-weight:normal;font-size:19.20000076px;font-family:Helvetica;-inkscape-font-specification:Helvetica;writing-mode:lr-tb;fill:#000000;fill-opacity:1;fill-rule:nonzero;stroke:none"
   id="text406"><tspan
     x="0"
     y="0"
     id="tspan404">F</tspan></text>


</g><g
       id="g410"
       transform="matrix(0.75,0,0,-0.75,458.25,485.625)"><text
   style="font-variant:normal;font-weight:normal;font-size:15.35999966px;font-family:Helvetica;-inkscape-font-specification:Helvetica;writing-mode:lr-tb;fill:#000000;fill-opacity:1;fill-rule:nonzero;stroke:none"
   id="text414"><tspan
     x="0 11.08992"
     y="0"
     sodipodi:role="line"
     id="tspan412">CE</tspan></text>


</g><path
       d="m 417,494.36218 h 30"
       style="fill:none;stroke:#a2142f;stroke-width:2.00000024;stroke-linecap:butt;stroke-linejoin:round;stroke-miterlimit:10;stroke-dasharray:none;stroke-opacity:1"
       id="path418"
       inkscape:connector-curvature="0" /><g
       id="g422"
       transform="matrix(0.75,0,0,-0.75,449.25,473.91346)"><text
   transform="translate(0,6.5)"
   style="font-variant:normal;font-weight:normal;font-size:19.20000076px;font-family:Helvetica;-inkscape-font-specification:Helvetica;writing-mode:lr-tb;fill:#000000;fill-opacity:1;fill-rule:nonzero;stroke:none"
   id="text426"><tspan
     x="0 12.8064 22.406401 32.006401 48 58.675201 64.012802 74.688004 80.025597 90.700798"
     y="0"
     sodipodi:role="line"
     id="tspan424">Asymptotes</tspan></text>


</g><path
       d="m 417,473.91346 h 30"
       style="fill:none;stroke:#ffd700;stroke-width:2.00000024;stroke-linecap:butt;stroke-linejoin:round;stroke-miterlimit:10;stroke-dasharray:none;stroke-opacity:1"
       id="path430"
       inkscape:connector-curvature="0" /><path
       d="m 414,463.875 v 43.5 h 123.75 v -43.5 z"
       style="fill:none;stroke:#262626;stroke-width:0.50000024;stroke-linecap:butt;stroke-linejoin:miter;stroke-miterlimit:10;stroke-dasharray:none;stroke-opacity:1"
       id="path434"
       inkscape:connector-curvature="0" /></g></svg>