<?xml version="1.0" encoding="UTF-8" standalone="no"?>
<!-- Created with Inkscape (http://www.inkscape.org/) -->

<svg
   xmlns:dc="http://purl.org/dc/elements/1.1/"
   xmlns:cc="http://creativecommons.org/ns#"
   xmlns:rdf="http://www.w3.org/1999/02/22-rdf-syntax-ns#"
   xmlns:svg="http://www.w3.org/2000/svg"
   xmlns="http://www.w3.org/2000/svg"
   xmlns:sodipodi="http://sodipodi.sourceforge.net/DTD/sodipodi-0.dtd"
   xmlns:inkscape="http://www.inkscape.org/namespaces/inkscape"
   version="1.1"
   id="svg2"
   xml:space="preserve"
   width="729.367"
   height="260.23599"
   viewBox="0 0 729.367 260.23599"
   sodipodi:docname="force_curves_generic_length.svg"
   inkscape:version="0.92.3 (2405546, 2018-03-11)"><metadata
     id="metadata8"><rdf:RDF><cc:Work
         rdf:about=""><dc:format>image/svg+xml</dc:format><dc:type
           rdf:resource="http://purl.org/dc/dcmitype/StillImage" /><dc:title></dc:title></cc:Work></rdf:RDF></metadata><defs
     id="defs6"><clipPath
   clipPathUnits="userSpaceOnUse"
   id="clipPath20"><path
     d="M 0,0 H 834 V 651 H 0 Z"
     id="path18"
     inkscape:connector-curvature="0" /></clipPath>





































</defs><sodipodi:namedview
     pagecolor="#ffffff"
     bordercolor="#666666"
     borderopacity="1"
     objecttolerance="10"
     gridtolerance="10"
     guidetolerance="10"
     inkscape:pageopacity="0"
     inkscape:pageshadow="2"
     inkscape:window-width="1920"
     inkscape:window-height="1023"
     id="namedview4"
     showgrid="false"
     fit-margin-top="0"
     fit-margin-left="0"
     fit-margin-right="0"
     fit-margin-bottom="0"
     inkscape:zoom="0.89393939"
     inkscape:cx="88.752515"
     inkscape:cy="340.36339"
     inkscape:window-x="0"
     inkscape:window-y="0"
     inkscape:window-maximized="1"
     inkscape:current-layer="g10" /><g
     id="g10"
     inkscape:groupmode="layer"
     inkscape:label="force_curves_generic"
     transform="matrix(1.3333333,0,0,-1.3333333,-28.368582,484.00741)"><path
   d="M 74.25,212.625 H 559.5 v 129.75 H 74.25 Z"
   style="fill:#ffffff;fill-opacity:1;fill-rule:nonzero;stroke:none;stroke-width:0.75"
   id="path438"
   inkscape:connector-curvature="0" /><path
   d="M 74.25,212.625 H 559.5"
   style="fill:none;stroke:#262626;stroke-width:0.50000024;stroke-linecap:square;stroke-linejoin:round;stroke-miterlimit:10;stroke-dasharray:none;stroke-opacity:1"
   id="path442"
   inkscape:connector-curvature="0" /><path
   d="M 74.25,342.375 H 559.5"
   style="fill:none;stroke:#262626;stroke-width:0.50000024;stroke-linecap:square;stroke-linejoin:round;stroke-miterlimit:10;stroke-dasharray:none;stroke-opacity:1"
   id="path446"
   inkscape:connector-curvature="0" /><path
   d="m 74.25,212.625 v 4.85248"
   style="fill:none;stroke:#262626;stroke-width:0.50000024;stroke-linecap:square;stroke-linejoin:round;stroke-miterlimit:10;stroke-dasharray:none;stroke-opacity:1"
   id="path450"
   inkscape:connector-curvature="0" /><path
   d="m 171.30001,212.625 v 4.85248"
   style="fill:none;stroke:#262626;stroke-width:0.50000024;stroke-linecap:square;stroke-linejoin:round;stroke-miterlimit:10;stroke-dasharray:none;stroke-opacity:1"
   id="path454"
   inkscape:connector-curvature="0" /><path
   d="m 268.35001,212.625 v 4.85248"
   style="fill:none;stroke:#262626;stroke-width:0.50000024;stroke-linecap:square;stroke-linejoin:round;stroke-miterlimit:10;stroke-dasharray:none;stroke-opacity:1"
   id="path458"
   inkscape:connector-curvature="0" /><path
   d="m 365.40001,212.625 v 4.85248"
   style="fill:none;stroke:#262626;stroke-width:0.50000024;stroke-linecap:square;stroke-linejoin:round;stroke-miterlimit:10;stroke-dasharray:none;stroke-opacity:1"
   id="path462"
   inkscape:connector-curvature="0" /><path
   d="m 462.45003,212.625 v 4.85248"
   style="fill:none;stroke:#262626;stroke-width:0.50000024;stroke-linecap:square;stroke-linejoin:round;stroke-miterlimit:10;stroke-dasharray:none;stroke-opacity:1"
   id="path466"
   inkscape:connector-curvature="0" /><path
   d="m 559.5,212.625 v 4.85248"
   style="fill:none;stroke:#262626;stroke-width:0.50000024;stroke-linecap:square;stroke-linejoin:round;stroke-miterlimit:10;stroke-dasharray:none;stroke-opacity:1"
   id="path470"
   inkscape:connector-curvature="0" /><path
   d="m 74.25,342.375 v -4.8525"
   style="fill:none;stroke:#262626;stroke-width:0.50000024;stroke-linecap:square;stroke-linejoin:round;stroke-miterlimit:10;stroke-dasharray:none;stroke-opacity:1"
   id="path474"
   inkscape:connector-curvature="0" /><path
   d="m 171.30001,342.375 v -4.8525"
   style="fill:none;stroke:#262626;stroke-width:0.50000024;stroke-linecap:square;stroke-linejoin:round;stroke-miterlimit:10;stroke-dasharray:none;stroke-opacity:1"
   id="path478"
   inkscape:connector-curvature="0" /><path
   d="m 268.35001,342.375 v -4.8525"
   style="fill:none;stroke:#262626;stroke-width:0.50000024;stroke-linecap:square;stroke-linejoin:round;stroke-miterlimit:10;stroke-dasharray:none;stroke-opacity:1"
   id="path482"
   inkscape:connector-curvature="0" /><path
   d="m 365.40001,342.375 v -4.8525"
   style="fill:none;stroke:#262626;stroke-width:0.50000024;stroke-linecap:square;stroke-linejoin:round;stroke-miterlimit:10;stroke-dasharray:none;stroke-opacity:1"
   id="path486"
   inkscape:connector-curvature="0" /><path
   d="m 462.45003,342.375 v -4.8525"
   style="fill:none;stroke:#262626;stroke-width:0.50000024;stroke-linecap:square;stroke-linejoin:round;stroke-miterlimit:10;stroke-dasharray:none;stroke-opacity:1"
   id="path490"
   inkscape:connector-curvature="0" /><path
   d="m 559.5,342.375 v -4.8525"
   style="fill:none;stroke:#262626;stroke-width:0.50000024;stroke-linecap:square;stroke-linejoin:round;stroke-miterlimit:10;stroke-dasharray:none;stroke-opacity:1"
   id="path494"
   inkscape:connector-curvature="0" /><text
   id="text502"
   style="font-variant:normal;font-weight:normal;font-size:15.99975014px;font-family:Helvetica;-inkscape-font-specification:Helvetica;writing-mode:lr-tb;fill:#262626;fill-opacity:1;fill-rule:nonzero;stroke:none;stroke-width:0.75"
   transform="scale(1,-1)"
   x="69"
   y="-192.42499"><tspan
     id="tspan500"
     y="-192.42499"
     x="69"
     style="stroke-width:0.75">0</tspan></text>

<text
   id="text510"
   style="font-variant:normal;font-weight:normal;font-size:15.99975014px;font-family:Helvetica;-inkscape-font-specification:Helvetica;writing-mode:lr-tb;fill:#262626;fill-opacity:1;fill-rule:nonzero;stroke:none;stroke-width:0.75"
   transform="scale(1,-1)"
   x="158.55"
   y="-192.42499"><tspan
     id="tspan508"
     sodipodi:role="line"
     y="-192.42499"
     x="158.55 167.44588 171.8938"
     style="stroke-width:0.75">0.1</tspan></text>

<text
   id="text518"
   style="font-variant:normal;font-weight:normal;font-size:15.99975014px;font-family:Helvetica;-inkscape-font-specification:Helvetica;writing-mode:lr-tb;fill:#262626;fill-opacity:1;fill-rule:nonzero;stroke:none;stroke-width:0.75"
   transform="scale(1,-1)"
   x="255.60001"
   y="-192.42499"><tspan
     id="tspan516"
     sodipodi:role="line"
     y="-192.42499"
     x="255.60001 264.49588 268.94379"
     style="stroke-width:0.75">0.2</tspan></text>

<text
   id="text526"
   style="font-variant:normal;font-weight:normal;font-size:15.99975014px;font-family:Helvetica;-inkscape-font-specification:Helvetica;writing-mode:lr-tb;fill:#262626;fill-opacity:1;fill-rule:nonzero;stroke:none;stroke-width:0.75"
   transform="scale(1,-1)"
   x="352.65002"
   y="-192.42499"><tspan
     id="tspan524"
     sodipodi:role="line"
     y="-192.42499"
     x="352.65002 361.54587 365.9938"
     style="stroke-width:0.75">0.3</tspan></text>

<text
   id="text534"
   style="font-variant:normal;font-weight:normal;font-size:15.99975014px;font-family:Helvetica;-inkscape-font-specification:Helvetica;writing-mode:lr-tb;fill:#262626;fill-opacity:1;fill-rule:nonzero;stroke:none;stroke-width:0.75"
   transform="scale(1,-1)"
   x="449.70001"
   y="-192.42499"><tspan
     id="tspan532"
     sodipodi:role="line"
     y="-192.42499"
     x="449.70001 458.59589 463.04382"
     style="stroke-width:0.75">0.4</tspan></text>

<text
   id="text542"
   style="font-variant:normal;font-weight:normal;font-size:15.99975014px;font-family:Helvetica;-inkscape-font-specification:Helvetica;writing-mode:lr-tb;fill:#262626;fill-opacity:1;fill-rule:nonzero;stroke:none;stroke-width:0.75"
   transform="scale(1,-1)"
   x="546.75"
   y="-192.42499"><tspan
     id="tspan540"
     sodipodi:role="line"
     y="-192.42499"
     x="546.75 555.64587 560.09381"
     style="stroke-width:0.75">0.5</tspan></text>

<path
   d="m 289.67,173.53559 c 0,0.0391 0.004,0.0918 0.0117,0.15821 0.008,0.0664 0.0156,0.13086 0.0234,0.19336 0.008,0.0625 0.0117,0.11328 0.0117,0.15234 l 2.14454,8.54297 c 0.0391,0.19531 0.0664,0.34766 0.082,0.45703 0,0.1875 -0.375,0.28125 -1.125,0.28125 -0.10938,0 -0.16407,0.0742 -0.16407,0.22266 0.008,0.0312 0.0215,0.082 0.041,0.15234 0.0195,0.0703 0.043,0.12695 0.0703,0.16992 0.0274,0.043 0.0723,0.0645 0.13477,0.0645 l 2.32031,0.17578 c 0.14063,0 0.21094,-0.0703 0.21094,-0.21094 l -2.48437,-9.92578 c -0.0859,-0.1875 -0.12891,-0.46094 -0.12891,-0.82031 0,-0.5 0.16797,-0.75 0.50391,-0.75 0.35937,0 0.62695,0.2207 0.80273,0.66211 0.17578,0.4414 0.33398,0.97851 0.47461,1.61132 0.0234,0.0703 0.0703,0.10547 0.14062,0.10547 h 0.19922 c 0.0469,0 0.0859,-0.0176 0.11719,-0.0527 0.0312,-0.0352 0.0469,-0.0723 0.0469,-0.11133 -0.13282,-0.5625 -0.25391,-1.0039 -0.36329,-1.32422 -0.10937,-0.32031 -0.28515,-0.625 -0.52734,-0.91406 -0.24219,-0.28906 -0.55078,-0.43359 -0.92578,-0.43359 -0.46094,0 -0.8457,0.15039 -1.1543,0.45117 -0.30859,0.30078 -0.46289,0.68164 -0.46289,1.14258 z"
   style="fill:#262626;fill-opacity:1;fill-rule:nonzero;stroke:none;stroke-width:0.75"
   id="path546"
   inkscape:connector-curvature="0" /><path
   d="m 295.91757,172.09093 c 0,-0.47656 0.0918,-0.89843 0.2754,-1.26562 0.18359,-0.36719 0.45312,-0.65235 0.80859,-0.85547 0.35547,-0.20313 0.77148,-0.30469 1.24805,-0.30469 0.50781,0 0.99414,0.12891 1.45898,0.38672 0.46484,0.25781 0.86328,0.60156 1.19531,1.03125 0.33203,0.42969 0.55664,0.88672 0.67383,1.37109 0.0156,0.0469 0.0469,0.0703 0.0937,0.0703 h 0.15234 c 0.0313,0 0.0566,-0.01 0.0762,-0.0293 0.0195,-0.0195 0.0293,-0.0449 0.0293,-0.0762 0,-0.008 -0.004,-0.0195 -0.0117,-0.0352 -0.14063,-0.55469 -0.40625,-1.07422 -0.79688,-1.5586 -0.39062,-0.48437 -0.85937,-0.87109 -1.40625,-1.16015 -0.54687,-0.28906 -1.10937,-0.4336 -1.6875,-0.4336 -0.625,0 -1.18554,0.14258 -1.68164,0.42774 -0.49609,0.28516 -0.88281,0.67773 -1.16015,1.17773 -0.27735,0.5 -0.41602,1.0625 -0.41602,1.6875 0,0.67188 0.15039,1.33789 0.45117,1.99805 0.30078,0.66016 0.70508,1.24609 1.21289,1.75781 0.50782,0.51172 1.08789,0.91992 1.74024,1.22461 0.65234,0.30469 1.31054,0.45703 1.97461,0.45703 0.26562,0 0.51953,-0.0391 0.76172,-0.11718 0.24218,-0.0781 0.46679,-0.19922 0.67382,-0.36329 0.20704,-0.16406 0.37696,-0.35546 0.50977,-0.57421 l 0.94922,1.03125 c 0,0.0156 0.0195,0.0234 0.0586,0.0234 h 0.0703 c 0.0312,0 0.0566,-0.0137 0.0762,-0.041 0.0195,-0.0274 0.0293,-0.0527 0.0293,-0.0762 l -0.8086,-3.24609 c 0,-0.0547 -0.0312,-0.082 -0.0937,-0.082 h -0.22265 c -0.0625,0 -0.0937,0.0469 -0.0937,0.14062 0.0312,0.17188 0.0469,0.38282 0.0469,0.63282 0,0.39062 -0.0664,0.75781 -0.19922,1.10156 -0.13281,0.34375 -0.33789,0.62109 -0.61523,0.83203 -0.27735,0.21094 -0.61914,0.31641 -1.02539,0.31641 -0.64844,0 -1.24414,-0.16407 -1.78711,-0.49219 -0.54297,-0.32813 -1.00391,-0.75781 -1.38282,-1.28906 -0.3789,-0.53125 -0.66992,-1.12305 -0.87304,-1.77539 -0.20313,-0.65235 -0.30469,-1.28321 -0.30469,-1.89258 z"
   style="fill:#262626;fill-opacity:1;fill-rule:nonzero;stroke:none;stroke-width:0.75"
   id="path550"
   inkscape:connector-curvature="0" /><path
   d="m 304.40884,169.50109 c -0.0781,0 -0.11719,0.0547 -0.11719,0.16406 0.008,0.0156 0.0176,0.0488 0.0293,0.0996 0.0117,0.0508 0.0273,0.0899 0.0469,0.11719 0.0195,0.0273 0.0449,0.041 0.0762,0.041 0.49218,0 0.83203,0.0273 1.01953,0.082 0.10937,0.0391 0.1875,0.14843 0.23437,0.32812 l 1.64063,6.58594 c 0.0156,0.0781 0.0234,0.13281 0.0234,0.16406 0,0.0859 -0.0469,0.13672 -0.14062,0.15235 -0.14844,0.0312 -0.4375,0.0469 -0.86719,0.0469 -0.0781,0 -0.11719,0.0508 -0.11719,0.15235 0.008,0.0234 0.0176,0.0586 0.0293,0.10546 0.0117,0.0469 0.0273,0.0859 0.0469,0.11719 0.0195,0.0312 0.0449,0.0469 0.0762,0.0469 h 6.5039 c 0.0859,0 0.12891,-0.0547 0.12891,-0.16407 l -0.29297,-2.48437 c 0,-0.0156 -0.0137,-0.0371 -0.041,-0.0645 -0.0273,-0.0273 -0.0527,-0.041 -0.0762,-0.041 h -0.10547 c -0.0859,0 -0.1289,0.0508 -0.1289,0.15234 0.0469,0.39062 0.0703,0.67969 0.0703,0.86719 0,0.32031 -0.0547,0.57031 -0.16406,0.75 -0.10938,0.17968 -0.25391,0.30859 -0.4336,0.38672 -0.17968,0.0781 -0.38086,0.12695 -0.60351,0.14648 -0.22266,0.0195 -0.51367,0.0293 -0.87305,0.0293 h -1.35937 c -0.21875,0 -0.36329,-0.0195 -0.4336,-0.0586 -0.0703,-0.0391 -0.13672,-0.15625 -0.19922,-0.35156 l -0.71484,-2.90625 h 0.9375 c 0.40625,0 0.71289,0.0293 0.91992,0.0879 0.20703,0.0586 0.3711,0.17773 0.49219,0.35742 0.12109,0.17969 0.22852,0.46484 0.32227,0.85547 0.008,0.0234 0.0234,0.0469 0.0469,0.0703 0.0234,0.0234 0.0469,0.0352 0.0703,0.0352 h 0.11719 c 0.0781,0 0.11719,-0.0508 0.11719,-0.15234 l -0.75,-2.96485 c -0.0156,-0.0703 -0.0547,-0.10546 -0.11719,-0.10546 h -0.10547 c -0.0781,0 -0.11719,0.0508 -0.11719,0.15234 0.0781,0.32031 0.11719,0.55469 0.11719,0.70312 0,0.23438 -0.10547,0.38282 -0.3164,0.44532 -0.21094,0.0625 -0.49219,0.0937 -0.84376,0.0937 h -0.99609 l -0.82031,-3.25782 c -0.0312,-0.10156 -0.0469,-0.1914 -0.0469,-0.26953 0,-0.0625 0.13672,-0.0937 0.41016,-0.0937 h 1.45312 c 0.57813,0 1.04688,0.0449 1.40626,0.13477 0.35937,0.0898 0.65625,0.23437 0.89062,0.43359 0.23438,0.19922 0.4375,0.45117 0.60938,0.75586 0.17187,0.30469 0.38281,0.74609 0.63281,1.32422 0.0156,0.0547 0.0508,0.082 0.10547,0.082 h 0.10547 c 0.0312,0 0.0586,-0.0137 0.082,-0.041 0.0234,-0.0273 0.0351,-0.0605 0.0351,-0.0996 0,-0.0156 -0.004,-0.0313 -0.0117,-0.0469 l -1.23046,-2.89453 c -0.0156,-0.0469 -0.0469,-0.0703 -0.0937,-0.0703 h -6.67969 z"
   style="fill:#262626;fill-opacity:1;fill-rule:nonzero;stroke:none;stroke-width:0.75"
   id="path554"
   inkscape:connector-curvature="0" /><path
   d="m 322.4367,167.82856 v 17.25 h 2.35547 v -0.6914 h -1.66406 v -15.86719 h 1.66406 v -0.69141 z"
   style="fill:#262626;fill-opacity:1;fill-rule:nonzero;stroke:none;stroke-width:0.75"
   id="path558"
   inkscape:connector-curvature="0" /><path
   d="m 325.80217,172.14106 v 0.60938 c 0.39062,0 0.71289,0.0312 0.96679,0.0937 0.25391,0.0625 0.38086,0.21094 0.38086,0.44531 v 4.71094 c 0,0.3125 -0.0469,0.53711 -0.14062,0.67383 -0.0937,0.13671 -0.22656,0.2207 -0.39844,0.25195 -0.17187,0.0312 -0.44141,0.0469 -0.80859,0.0469 v 0.60938 l 2.49609,0.17578 v -1.67578 c 0.23438,0.49219 0.57813,0.89453 1.03125,1.20703 0.45313,0.3125 0.94531,0.46875 1.47656,0.46875 1.32032,0 2.09766,-0.53906 2.33203,-1.61719 0.22657,0.48438 0.5625,0.875 1.00782,1.17188 0.44531,0.29687 0.92968,0.44531 1.45312,0.44531 0.52344,0 0.96485,-0.084 1.32422,-0.25195 0.35938,-0.16797 0.62891,-0.42383 0.80859,-0.76758 0.17969,-0.34375 0.26954,-0.77734 0.26954,-1.30078 v -4.14844 c 0,-0.23437 0.12695,-0.38281 0.38085,-0.44531 0.25391,-0.0625 0.57618,-0.0937 0.9668,-0.0937 v -0.60938 h -3.94922 v 0.60938 c 0.39063,0 0.71289,0.0312 0.9668,0.0937 0.25391,0.0625 0.38086,0.21094 0.38086,0.44531 v 4.10156 c 0,0.57813 -0.082,1.04297 -0.24609,1.39453 -0.16407,0.35157 -0.5,0.52735 -1.00782,0.52735 -0.66406,0 -1.21093,-0.26563 -1.64062,-0.79688 -0.42969,-0.53125 -0.64453,-1.13672 -0.64453,-1.8164 v -3.41016 c 0,-0.23437 0.125,-0.38281 0.375,-0.44531 0.25,-0.0625 0.57422,-0.0937 0.97265,-0.0937 v -0.60938 h -3.94922 v 0.60938 c 0.39063,0 0.71289,0.0312 0.9668,0.0937 0.25391,0.0625 0.38086,0.21094 0.38086,0.44531 v 4.10156 c 0,0.5625 -0.082,1.02344 -0.24609,1.38282 -0.16407,0.35937 -0.5,0.53906 -1.00782,0.53906 -0.66406,0 -1.21093,-0.26563 -1.64062,-0.79688 -0.42969,-0.53125 -0.64453,-1.13672 -0.64453,-1.8164 v -3.41016 c 0,-0.23437 0.125,-0.38281 0.375,-0.44531 0.25,-0.0625 0.57031,-0.0937 0.96094,-0.0937 v -0.60938 z"
   style="fill:#262626;fill-opacity:1;fill-rule:nonzero;stroke:none;stroke-width:0.75"
   id="path562"
   inkscape:connector-curvature="0" /><path
   d="m 340.32825,167.82856 v 0.69141 h 1.67579 v 15.86719 h -1.67579 v 0.6914 h 2.36719 v -17.25 z"
   style="fill:#262626;fill-opacity:1;fill-rule:nonzero;stroke:none;stroke-width:0.75"
   id="path566"
   inkscape:connector-curvature="0" /><path
   d="m 74.25,212.625 v 129.75"
   style="fill:none;stroke:#262626;stroke-width:0.50000024;stroke-linecap:square;stroke-linejoin:round;stroke-miterlimit:10;stroke-dasharray:none;stroke-opacity:1"
   id="path570"
   inkscape:connector-curvature="0" /><path
   d="m 559.5,212.625 v 129.75"
   style="fill:none;stroke:#262626;stroke-width:0.50000024;stroke-linecap:square;stroke-linejoin:round;stroke-miterlimit:10;stroke-dasharray:none;stroke-opacity:1"
   id="path574"
   inkscape:connector-curvature="0" /><path
   d="m 74.25,212.625 h 4.8525"
   style="fill:none;stroke:#262626;stroke-width:0.50000024;stroke-linecap:square;stroke-linejoin:round;stroke-miterlimit:10;stroke-dasharray:none;stroke-opacity:1"
   id="path578"
   inkscape:connector-curvature="0" /><path
   d="m 74.25,271.60228 h 4.8525"
   style="fill:none;stroke:#262626;stroke-width:0.50000024;stroke-linecap:square;stroke-linejoin:round;stroke-miterlimit:10;stroke-dasharray:none;stroke-opacity:1"
   id="path582"
   inkscape:connector-curvature="0" /><path
   d="m 74.25,330.57956 h 4.8525"
   style="fill:none;stroke:#262626;stroke-width:0.50000024;stroke-linecap:square;stroke-linejoin:round;stroke-miterlimit:10;stroke-dasharray:none;stroke-opacity:1"
   id="path586"
   inkscape:connector-curvature="0" /><path
   d="m 559.5,212.625 h -4.85248"
   style="fill:none;stroke:#262626;stroke-width:0.50000024;stroke-linecap:square;stroke-linejoin:round;stroke-miterlimit:10;stroke-dasharray:none;stroke-opacity:1"
   id="path590"
   inkscape:connector-curvature="0" /><path
   d="m 559.5,271.60228 h -4.85248"
   style="fill:none;stroke:#262626;stroke-width:0.50000024;stroke-linecap:square;stroke-linejoin:round;stroke-miterlimit:10;stroke-dasharray:none;stroke-opacity:1"
   id="path594"
   inkscape:connector-curvature="0" /><path
   d="m 559.5,330.57956 h -4.85248"
   style="fill:none;stroke:#262626;stroke-width:0.50000024;stroke-linecap:square;stroke-linejoin:round;stroke-miterlimit:10;stroke-dasharray:none;stroke-opacity:1"
   id="path598"
   inkscape:connector-curvature="0" /><text
   id="text606"
   style="font-variant:normal;font-weight:normal;font-size:15.99975014px;font-family:Helvetica;-inkscape-font-specification:Helvetica;writing-mode:lr-tb;fill:#262626;fill-opacity:1;fill-rule:nonzero;stroke:none;stroke-width:0.75"
   transform="scale(1,-1)"
   x="58.549999"
   y="-207.375"><tspan
     id="tspan604"
     y="-207.375"
     x="58.549999"
     style="stroke-width:0.75">0</tspan></text>

<text
   id="text614"
   style="font-variant:normal;font-weight:normal;font-size:15.99975014px;font-family:Helvetica;-inkscape-font-specification:Helvetica;writing-mode:lr-tb;fill:#262626;fill-opacity:1;fill-rule:nonzero;stroke:none;stroke-width:0.75"
   transform="scale(1,-1)"
   x="43.549999"
   y="-266.35229"><tspan
     id="tspan612"
     sodipodi:role="line"
     y="-266.35229"
     x="43.549999 52.445862 56.893791"
     style="stroke-width:0.75">0.5</tspan></text>

<text
   id="text622"
   style="font-variant:normal;font-weight:normal;font-size:15.99975014px;font-family:Helvetica;-inkscape-font-specification:Helvetica;writing-mode:lr-tb;fill:#262626;fill-opacity:1;fill-rule:nonzero;stroke:none;stroke-width:0.75"
   transform="scale(1,-1)"
   x="58.549999"
   y="-325.32956"><tspan
     id="tspan620"
     y="-325.32956"
     x="58.549999"
     style="stroke-width:0.75">1</tspan></text>

<path
   d="m 34.213936,222.88476 c 0,-0.10937 -0.07422,-0.16406 -0.222656,-0.16406 -0.03125,0 -0.08203,0.01 -0.152344,0.0293 -0.07031,0.0195 -0.126953,0.0449 -0.169922,0.0762 -0.04297,0.0312 -0.06445,0.0664 -0.06445,0.10547 0,0.70312 -0.03906,1.1914 -0.117188,1.46484 -0.04687,0.15625 -0.199219,0.26562 -0.457031,0.32812 l -9.480468,2.36719 c -0.109375,0.0234 -0.1875,0.0351 -0.234375,0.0351 -0.125,0 -0.195312,-0.0703 -0.210938,-0.21093 -0.04687,-0.21094 -0.07031,-0.6211 -0.07031,-1.23047 0,-0.11719 -0.07422,-0.17578 -0.222656,-0.17578 -0.03125,0.008 -0.08203,0.0195 -0.152344,0.0351 -0.07031,0.0156 -0.126953,0.0391 -0.169922,0.0703 -0.04297,0.0312 -0.06445,0.0703 -0.06445,0.11719 v 9.11719 c 0,0.10937 0.07813,0.16406 0.234375,0.16406 l 3.574219,-0.41016 c 0.03125,0 0.06445,-0.0195 0.09961,-0.0586 0.03515,-0.0391 0.05273,-0.0781 0.05273,-0.11719 v -0.15235 c 0,-0.11718 -0.07422,-0.17578 -0.222656,-0.17578 -0.523436,0.0703 -0.949219,0.10547 -1.277344,0.10547 -0.578125,0 -1.001953,-0.12305 -1.271484,-0.36914 -0.269531,-0.24609 -0.433594,-0.55859 -0.492187,-0.9375 -0.0586,-0.37891 -0.08789,-0.89648 -0.08789,-1.55273 v -1.85157 c 0,-0.3125 0.02735,-0.51953 0.08203,-0.62109 0.05469,-0.10156 0.226564,-0.19531 0.515625,-0.28125 l 4.394531,-1.10156 v 1.30078 c 0,0.42187 -0.02344,0.76562 -0.07031,1.03125 -0.04687,0.26562 -0.134765,0.48633 -0.263672,0.66211 -0.128906,0.17578 -0.314453,0.32031 -0.556641,0.43359 -0.242186,0.11328 -0.566406,0.2168 -0.972656,0.31055 -0.109375,0.0391 -0.164062,0.0977 -0.164063,0.17578 v 0.15234 c 0,0.11719 0.07813,0.17579 0.234375,0.17579 l 4.253906,-1.04297 c 0.101563,-0.0547 0.152344,-0.11719 0.152344,-0.1875 v -0.14063 c 0,-0.11719 -0.07422,-0.17578 -0.222656,-0.17578 -0.117188,0.0312 -0.214844,0.0547 -0.292969,0.0703 -0.07813,0.0156 -0.191406,0.0371 -0.339844,0.0645 -0.148437,0.0273 -0.28125,0.041 -0.398437,0.041 -0.328125,0 -0.53711,-0.14649 -0.626953,-0.43946 -0.08984,-0.29297 -0.134766,-0.67773 -0.134766,-1.15429 v -1.40625 l 4.464844,-1.125 c 0.117188,-0.0313 0.175782,-0.0469 0.175782,-0.0469 0.132812,0 0.207031,0.043 0.222656,0.12891 0.07813,0.29687 0.117187,0.88281 0.117187,1.75781 0,0.11719 0.07813,0.17578 0.234375,0.17578 0.15625,-0.0391 0.257813,-0.0703 0.304688,-0.0937 0.04687,-0.0234 0.07031,-0.0898 0.07031,-0.19922 v -5.07422 z"
   style="fill:#262626;fill-opacity:1;fill-rule:nonzero;stroke:none;stroke-width:0.75"
   id="path626"
   inkscape:connector-curvature="0" /><path
   d="m 38.186592,235.83329 c -0.03906,0 -0.0625,0.004 -0.07031,0.0117 l -16.628906,6 c -0.07031,0.0234 -0.123047,0.0625 -0.158203,0.11719 -0.03515,0.0547 -0.05273,0.11719 -0.05273,0.1875 0,0.10156 0.03125,0.18555 0.09375,0.25195 0.0625,0.0664 0.144532,0.0996 0.246094,0.0996 h 0.07031 l 16.628906,-6 c 0.140625,-0.0625 0.210937,-0.17187 0.210937,-0.32812 0,-0.0937 -0.0332,-0.17383 -0.09961,-0.24023 -0.06641,-0.0664 -0.146485,-0.0996 -0.240235,-0.0996 z"
   style="fill:#262626;fill-opacity:1;fill-rule:nonzero;stroke:none;stroke-width:0.75"
   id="path630"
   inkscape:connector-curvature="0" /><path
   d="m 34.213935,244.46926 c 0,-0.10938 -0.07422,-0.16406 -0.222656,-0.16406 -0.03125,0 -0.08203,0.01 -0.152344,0.0293 -0.07031,0.0195 -0.126953,0.0449 -0.169921,0.0762 -0.04297,0.0313 -0.06445,0.0664 -0.06445,0.10547 0,0.70313 -0.03906,1.19141 -0.117188,1.46485 -0.04687,0.15624 -0.199219,0.26562 -0.457031,0.32812 l -9.480468,2.36719 c -0.109375,0.0234 -0.1875,0.0352 -0.234375,0.0352 -0.125,0 -0.195312,-0.0703 -0.210937,-0.21094 -0.04687,-0.21094 -0.07031,-0.62109 -0.07031,-1.23047 0,-0.11718 -0.07422,-0.17578 -0.222656,-0.17578 -0.03125,0.008 -0.08203,0.0195 -0.152344,0.0352 -0.07031,0.0156 -0.126953,0.0391 -0.169921,0.0703 -0.04297,0.0312 -0.06445,0.0703 -0.06445,0.11718 l -10e-7,9.11719 c 0,0.10938 0.07813,0.16406 0.234375,0.16406 l 3.574219,-0.41015 c 0.03125,0 0.06445,-0.0195 0.09961,-0.0586 0.03515,-0.0391 0.05273,-0.0781 0.05273,-0.11719 v -0.15234 c 0,-0.11719 -0.07422,-0.17578 -0.222656,-0.17578 -0.523436,0.0703 -0.949219,0.10547 -1.277344,0.10547 -0.578125,0 -1.001953,-0.12305 -1.271484,-0.36914 -0.269531,-0.2461 -0.433594,-0.5586 -0.492187,-0.9375 -0.0586,-0.37891 -0.08789,-0.89649 -0.08789,-1.55274 v -1.85156 c 0,-0.3125 0.02735,-0.51953 0.08203,-0.62109 0.05469,-0.10157 0.226564,-0.19532 0.515625,-0.28125 l 4.394531,-1.10157 v 1.30078 c 0,0.42188 -0.02344,0.76563 -0.07031,1.03125 -0.04687,0.26563 -0.134765,0.48633 -0.263672,0.66211 -0.128906,0.17579 -0.314453,0.32032 -0.556641,0.4336 -0.242186,0.11328 -0.566406,0.21679 -0.972656,0.31054 -0.109375,0.0391 -0.164062,0.0977 -0.164062,0.17579 v 0.15234 c 0,0.11719 0.07813,0.17578 0.234375,0.17578 l 4.253905,-1.04297 c 0.101563,-0.0547 0.152344,-0.11718 0.152344,-0.1875 v -0.14062 c 0,-0.11719 -0.07422,-0.17578 -0.222656,-0.17578 -0.117188,0.0312 -0.214844,0.0547 -0.292969,0.0703 -0.07813,0.0156 -0.191406,0.0371 -0.339844,0.0644 -0.148437,0.0274 -0.28125,0.041 -0.398437,0.041 -0.328125,0 -0.53711,-0.14648 -0.626953,-0.43945 -0.08984,-0.29297 -0.134766,-0.67774 -0.134766,-1.1543 v -1.40625 l 4.464844,-1.125 c 0.117188,-0.0312 0.175782,-0.0469 0.175782,-0.0469 0.132812,0 0.207031,0.043 0.222656,0.1289 0.07813,0.29688 0.117187,0.88281 0.117187,1.75782 0,0.11718 0.07813,0.17578 0.234375,0.17578 0.15625,-0.0391 0.257813,-0.0703 0.304688,-0.0937 0.04687,-0.0234 0.07031,-0.0899 0.07031,-0.19922 l 10e-7,-5.07422 z"
   style="fill:#262626;fill-opacity:1;fill-rule:nonzero;stroke:none;stroke-width:0.75"
   id="path634"
   inkscape:connector-curvature="0" /><path
   d="m 36.642971,255.90423 c -0.04687,0 -0.08203,0.004 -0.105469,0.0117 l -3.574219,0.90234 c -0.226562,0.0547 -0.421875,0.082 -0.585937,0.082 -0.34375,0 -0.515625,-0.11718 -0.515625,-0.35156 0,-0.25 0.148438,-0.43555 0.445312,-0.55664 0.296876,-0.12109 0.675782,-0.23633 1.136719,-0.3457 0.02344,0 0.04102,-0.0117 0.05273,-0.0352 0.01172,-0.0234 0.01758,-0.0469 0.01758,-0.0703 v -0.14062 c 0,-0.0234 -0.01367,-0.0449 -0.04101,-0.0645 -0.02734,-0.0195 -0.05273,-0.0293 -0.07617,-0.0293 -0.351563,0.0859 -0.648438,0.16797 -0.890626,0.24609 -0.242187,0.0781 -0.46289,0.20313 -0.662109,0.375 -0.199218,0.17188 -0.298828,0.38281 -0.298828,0.63281 0,0.30469 0.0957,0.57227 0.28711,0.80274 0.191406,0.23047 0.43164,0.3457 0.720702,0.3457 -0.312499,0.23438 -0.558593,0.51172 -0.738281,0.83203 -0.179687,0.32031 -0.269531,0.66016 -0.269531,1.01953 0,0.38282 0.09766,0.71094 0.292968,0.98438 0.195313,0.27344 0.46875,0.41015 0.820313,0.41015 -0.34375,0.25 -0.615234,0.53907 -0.814453,0.86719 -0.199219,0.32813 -0.298828,0.6875 -0.298828,1.07813 0,0.41406 0.113281,0.74804 0.339843,1.00195 0.226563,0.25391 0.546876,0.38086 0.960938,0.38086 0.328125,0 0.72461,-0.0742 1.189454,-0.22266 0.464843,-0.14843 0.982421,-0.33203 1.552734,-0.55078 0.28125,-0.10937 0.523437,-0.16406 0.726562,-0.16406 0.234375,0 0.351563,0.0937 0.351563,0.28125 0,0.3125 -0.167969,0.57227 -0.503907,0.7793 -0.335937,0.20703 -0.695312,0.35351 -1.078125,0.43945 -0.04687,0.0234 -0.07031,0.0547 -0.07031,0.0937 v 0.14062 c 0,0.0313 0.01172,0.0586 0.03516,0.082 0.02344,0.0234 0.04687,0.0351 0.07031,0.0351 0.0078,0 0.01953,-0.004 0.03516,-0.0117 0.453125,-0.10938 0.873047,-0.30079 1.259766,-0.57422 0.386718,-0.27344 0.580078,-0.61328 0.580078,-1.01953 0,-0.28125 -0.09766,-0.52149 -0.292969,-0.72071 -0.195313,-0.19922 -0.433594,-0.29883 -0.714844,-0.29883 -0.140625,0 -0.296875,0.0352 -0.46875,0.10547 -0.601562,0.22657 -1.138672,0.41407 -1.611328,0.5625 -0.472656,0.14844 -0.888672,0.22266 -1.248047,0.22266 -0.21875,0 -0.40625,-0.0449 -0.5625,-0.13477 -0.15625,-0.0898 -0.234375,-0.24023 -0.234375,-0.45117 0,-0.4375 0.132813,-0.8164 0.398437,-1.13672 0.265626,-0.32031 0.621094,-0.59765 1.066407,-0.83203 0.07813,-0.0156 0.136719,-0.0273 0.175782,-0.0352 l 3.082031,-0.77344 c 0.109375,-0.0234 0.205078,-0.084 0.287109,-0.18164 0.08203,-0.0976 0.123047,-0.20508 0.123047,-0.32226 0,-0.0937 -0.0332,-0.17579 -0.09961,-0.2461 -0.06641,-0.0703 -0.150391,-0.10547 -0.251954,-0.10547 -0.04687,0 -0.08203,0.004 -0.105468,0.0117 l -3.058594,0.76171 c -0.328125,0.0859 -0.601563,0.12891 -0.820313,0.12891 -0.218749,0 -0.406249,-0.0469 -0.5625,-0.14062 -0.15625,-0.0937 -0.234375,-0.25 -0.234375,-0.46875 0,-0.28907 0.06446,-0.55665 0.19336,-0.80274 0.128906,-0.24609 0.298828,-0.46094 0.509765,-0.64453 0.210938,-0.18359 0.464844,-0.35352 0.76172,-0.50977 l 3.257812,-0.80859 c 0.109375,-0.0312 0.205078,-0.0937 0.287109,-0.1875 0.08203,-0.0937 0.123047,-0.19922 0.123047,-0.31641 0,-0.10156 -0.0332,-0.1875 -0.09961,-0.25781 -0.06641,-0.0703 -0.150391,-0.10547 -0.251953,-0.10547 z"
   style="fill:#262626;fill-opacity:1;fill-rule:nonzero;stroke:none;stroke-width:0.75"
   id="path638"
   inkscape:connector-curvature="0" /><path
   d="m 36.994533,267.8815 c 0,-0.5 -0.191406,-0.89649 -0.574219,-1.18946 -0.382812,-0.29296 -0.835937,-0.43945 -1.359375,-0.43945 -0.507812,0 -1.037109,0.13281 -1.58789,0.39844 -0.550781,0.26562 -1.009766,0.625 -1.376954,1.07812 -0.367187,0.45313 -0.550781,0.9375 -0.550781,1.45313 0,0.24219 0.06445,0.45703 0.19336,0.64453 0.128906,0.1875 0.30664,0.33203 0.533203,0.43359 -0.320313,0.0937 -0.480469,0.26953 -0.480469,0.52735 0,0.10156 0.0293,0.1875 0.08789,0.25781 0.0586,0.0703 0.138672,0.10547 0.240234,0.10547 0.02344,0 0.04102,-0.002 0.05273,-0.006 0.01172,-0.004 0.02539,-0.006 0.04102,-0.006 l 3.351562,-0.84375 c 0.242188,-0.0547 0.4375,-0.082 0.585938,-0.082 0.34375,0 0.515625,0.11719 0.515625,0.35156 0,0.25 -0.158203,0.43946 -0.47461,0.56836 -0.316406,0.12891 -0.685546,0.24024 -1.107421,0.33399 -0.04687,0.0156 -0.07031,0.0469 -0.07031,0.0937 v 0.14062 c 0,0.0312 0.01367,0.0566 0.04102,0.0762 0.02734,0.0195 0.05273,0.0293 0.07617,0.0293 0.5625,-0.14062 1.013672,-0.29297 1.353516,-0.45703 0.339844,-0.16406 0.509765,-0.43359 0.509765,-0.80859 0,-0.27344 -0.08008,-0.51367 -0.240234,-0.7207 -0.160156,-0.20704 -0.373047,-0.33399 -0.638672,-0.38087 0.585938,-0.51562 0.878907,-1.03515 0.878907,-1.55859 z m -0.328125,0.0117 c 0,0.28906 -0.107422,0.57031 -0.322266,0.84375 -0.214844,0.27344 -0.470703,0.50781 -0.767578,0.70312 -0.0078,0.008 -0.01953,0.0117 -0.03516,0.0117 l -2.601563,0.64453 -0.03515,0.0117 c -0.289062,-0.0469 -0.535156,-0.15039 -0.738281,-0.31055 -0.203125,-0.16016 -0.304688,-0.37305 -0.304688,-0.63867 0,-0.27344 0.109376,-0.52539 0.328125,-0.75586 0.21875,-0.23047 0.480469,-0.42774 0.785156,-0.5918 0.320313,-0.15625 0.759766,-0.30469 1.31836,-0.44531 0.558594,-0.14063 0.990234,-0.21094 1.294922,-0.21094 0.28125,0 0.53125,0.0586 0.75,0.17578 0.21875,0.11719 0.328125,0.30469 0.328125,0.5625 z"
   style="fill:#262626;fill-opacity:1;fill-rule:nonzero;stroke:none;stroke-width:0.75"
   id="path642"
   inkscape:connector-curvature="0" /><path
   d="m 36.502345,273.24527 c 0.109375,0.14062 0.164063,0.33984 0.164063,0.59766 0,0.25 -0.119141,0.4707 -0.357422,0.66211 -0.238282,0.1914 -0.501953,0.32226 -0.791016,0.39257 l -2.121093,0.55078 c -0.390625,0.0859 -0.656251,0.12891 -0.796876,0.12891 -0.195312,0 -0.367187,-0.0566 -0.515625,-0.16992 -0.148437,-0.11328 -0.222656,-0.26758 -0.222656,-0.46289 0,-0.25781 0.07813,-0.49805 0.234375,-0.72071 0.156251,-0.22265 0.357422,-0.41015 0.603516,-0.56249 0.246094,-0.15235 0.494141,-0.25977 0.744141,-0.32227 0.04687,-0.0156 0.07031,-0.0469 0.07031,-0.0937 v -0.14063 c 0,-0.0625 -0.03516,-0.0937 -0.105469,-0.0937 h -0.03516 c -0.296875,0.0781 -0.587891,0.21094 -0.873047,0.39844 -0.285156,0.1875 -0.515625,0.41602 -0.691406,0.68555 -0.175781,0.26953 -0.263672,0.56055 -0.263672,0.87305 0,0.28906 0.07813,0.55273 0.234375,0.79101 0.15625,0.23828 0.371094,0.4043 0.644531,0.49805 -0.25,0.14062 -0.458984,0.3164 -0.626953,0.52734 -0.167968,0.21094 -0.251953,0.44531 -0.251953,0.70313 0,0.17187 0.03125,0.34765 0.09375,0.52734 0.0625,0.17969 0.15625,0.32617 0.28125,0.43945 0.125,0.11328 0.28125,0.16993 0.46875,0.16993 0.203125,0 0.376953,-0.0664 0.521484,-0.19922 0.144532,-0.13282 0.216797,-0.30078 0.216797,-0.50391 0,-0.125 -0.04102,-0.23047 -0.123047,-0.31641 -0.08203,-0.0859 -0.185546,-0.1289 -0.310547,-0.1289 -0.164062,0 -0.310546,0.0566 -0.439453,0.16992 -0.128906,0.11328 -0.205078,0.25195 -0.228516,0.41602 -0.109374,-0.14844 -0.164062,-0.34766 -0.164062,-0.59766 0,-0.25781 0.119141,-0.48242 0.357422,-0.67383 0.238281,-0.19141 0.501954,-0.32617 0.791016,-0.4043 l 2.121093,-0.52734 c 0.320313,-0.0859 0.585938,-0.12891 0.796875,-0.12891 0.203125,0 0.376953,0.0586 0.521485,0.17579 0.144531,0.11718 0.216797,0.26953 0.216797,0.45703 0,0.375 -0.164063,0.71093 -0.492188,1.00781 -0.328125,0.29687 -0.691406,0.49219 -1.089844,0.58594 -0.04687,0.0156 -0.07031,0.0469 -0.07031,0.0937 v 0.14062 c 0,0.0312 0.01172,0.0566 0.03516,0.0762 0.02344,0.0195 0.04687,0.0293 0.07031,0.0293 0.0078,0 0.01953,-0.004 0.03516,-0.0117 0.476562,-0.10937 0.902343,-0.3457 1.277343,-0.70898 0.375001,-0.36328 0.562501,-0.77539 0.562501,-1.23633 0,-0.28906 -0.08008,-0.55273 -0.240235,-0.79102 -0.160156,-0.23828 -0.376953,-0.40429 -0.65039,-0.49804 0.234375,-0.125 0.441406,-0.29883 0.621093,-0.52149 0.179688,-0.22265 0.269532,-0.45898 0.269532,-0.70898 0,-0.17188 -0.03125,-0.34766 -0.09375,-0.52735 -0.0625,-0.17968 -0.15625,-0.32617 -0.28125,-0.43945 -0.125,-0.11328 -0.285157,-0.16992 -0.480469,-0.16992 -0.1875,0 -0.357422,0.0645 -0.509766,0.19336 -0.152343,0.12891 -0.228515,0.29101 -0.228515,0.48633 0,0.13281 0.03906,0.24414 0.117187,0.33398 0.07813,0.0899 0.183594,0.13477 0.316406,0.13477 0.164063,0 0.308594,-0.0547 0.433594,-0.16407 0.125,-0.10937 0.203125,-0.25 0.234375,-0.42187 z"
   style="fill:#262626;fill-opacity:1;fill-rule:nonzero;stroke:none;stroke-width:0.75"
   id="path646"
   inkscape:connector-curvature="0" /><path
   d="m 38.491277,285.57273 c -0.507812,-0.64063 -1.08789,-1.19141 -1.740234,-1.65235 -0.652344,-0.46093 -1.349609,-0.83984 -2.091797,-1.13671 -0.742187,-0.29688 -1.517578,-0.51758 -2.326171,-0.66211 -0.808594,-0.14453 -1.619141,-0.2168 -2.431641,-0.2168 -0.828125,0 -1.646484,0.0723 -2.455077,0.2168 -0.808594,0.14453 -1.585938,0.36718 -2.332032,0.66797 -0.746094,0.30078 -1.445313,0.68554 -2.097656,1.15429 -0.652344,0.46875 -1.220703,1.01172 -1.705079,1.62891 -0.02344,0 -0.03515,0.0312 -0.03515,0.0937 v 0.15234 c 0,0.0391 0.01562,0.0723 0.04687,0.0996 0.03125,0.0274 0.0664,0.041 0.105469,0.041 0.04687,0 0.08203,-0.0117 0.105468,-0.0351 0.554688,-0.5625 1.146485,-1.03125 1.775391,-1.40625 0.628906,-0.375 1.298829,-0.67578 2.009766,-0.90235 0.710937,-0.22656 1.445313,-0.39062 2.203125,-0.49218 0.757812,-0.10157 1.550781,-0.15235 2.378905,-0.15235 3.65625,0 6.433594,0.97656 8.332032,2.92969 0.03125,0.0391 0.07813,0.0586 0.140625,0.0586 0.03125,0 0.06445,-0.0156 0.09961,-0.0469 0.03516,-0.0312 0.05273,-0.0625 0.05273,-0.0937 v -0.15234 c 0,-0.0625 -0.01172,-0.0937 -0.03516,-0.0937 z"
   style="fill:#262626;fill-opacity:1;fill-rule:nonzero;stroke:none;stroke-width:0.75"
   id="path650"
   inkscape:connector-curvature="0" /><path
   d="m 34.213934,287.88204 c 0,-0.10938 -0.07422,-0.16407 -0.222657,-0.16407 -0.03125,0 -0.08203,0.01 -0.152343,0.0293 -0.07031,0.0195 -0.126954,0.0449 -0.169922,0.0762 -0.04297,0.0312 -0.06445,0.0664 -0.06445,0.10547 0,0.70313 -0.03906,1.19141 -0.117188,1.46484 -0.04687,0.15625 -0.199218,0.26563 -0.457031,0.32813 l -9.480468,2.36719 c -0.109375,0.0234 -0.1875,0.0351 -0.234375,0.0351 -0.124999,0 -0.195312,-0.0703 -0.210937,-0.21094 -0.04687,-0.21094 -0.07031,-0.62109 -0.07031,-1.23047 0,-0.11719 -0.07422,-0.17578 -0.222656,-0.17578 -0.03125,0.008 -0.08203,0.0195 -0.152344,0.0351 -0.07031,0.0156 -0.126953,0.0391 -0.169921,0.0703 -0.04297,0.0312 -0.06445,0.0703 -0.06445,0.11718 l -1e-6,9.11719 c 0,0.10937 0.07813,0.16406 0.234375,0.16406 l 3.574219,-0.41015 c 0.03125,0 0.06445,-0.0195 0.09961,-0.0586 0.03515,-0.0391 0.05273,-0.0781 0.05273,-0.11719 v -0.15234 c 0,-0.11719 -0.07422,-0.17578 -0.222656,-0.17578 -0.523436,0.0703 -0.949219,0.10547 -1.277344,0.10547 -0.578124,0 -1.001952,-0.12305 -1.271484,-0.36914 -0.269531,-0.2461 -0.433593,-0.5586 -0.492187,-0.93751 -0.0586,-0.3789 -0.08789,-0.89648 -0.08789,-1.55273 v -1.85156 c 0,-0.3125 0.02735,-0.51953 0.08203,-0.6211 0.05469,-0.10156 0.226564,-0.19531 0.515625,-0.28125 l 4.394532,-1.10156 v 1.30078 c 0,0.42188 -0.02344,0.76563 -0.07031,1.03125 -0.04687,0.26563 -0.134765,0.48633 -0.263672,0.66211 -0.128906,0.17578 -0.314453,0.32031 -0.556641,0.4336 -0.242186,0.11328 -0.566406,0.21679 -0.972656,0.31054 -0.109375,0.0391 -0.164062,0.0977 -0.164062,0.17578 v 0.15235 c 0,0.11719 0.07813,0.17578 0.234375,0.17578 l 4.253905,-1.04297 c 0.101563,-0.0547 0.152344,-0.11719 0.152344,-0.1875 v -0.14062 c 0,-0.11719 -0.07422,-0.17579 -0.222656,-0.17579 -0.117188,0.0313 -0.214844,0.0547 -0.292969,0.0703 -0.07813,0.0156 -0.191406,0.0371 -0.339844,0.0644 -0.148437,0.0274 -0.28125,0.041 -0.398437,0.041 -0.328125,0 -0.53711,-0.14648 -0.626953,-0.43945 -0.08984,-0.29297 -0.134766,-0.67774 -0.134766,-1.1543 v -1.40625 l 4.464845,-1.125 c 0.117187,-0.0312 0.175781,-0.0469 0.175781,-0.0469 0.132812,0 0.207031,0.043 0.222656,0.12891 0.07813,0.29688 0.117187,0.88281 0.117187,1.75781 0,0.11719 0.07813,0.17578 0.234375,0.17578 0.15625,-0.0391 0.257813,-0.0703 0.304688,-0.0937 0.04687,-0.0234 0.07031,-0.0898 0.07031,-0.19921 l 1e-6,-5.07422 z"
   style="fill:#262626;fill-opacity:1;fill-rule:nonzero;stroke:none;stroke-width:0.75"
   id="path654"
   inkscape:connector-curvature="0" /><path
   d="m 35.986719,299.32873 c -0.148437,0 -0.304687,0.0312 -0.46875,0.0937 l -2.578125,0.97265 c -0.296875,0.10938 -0.539062,0.16406 -0.726562,0.16406 -0.234375,0 -0.351563,-0.0898 -0.351563,-0.26953 0,-0.3125 0.16211,-0.57226 0.486329,-0.77929 0.324219,-0.20704 0.689453,-0.35743 1.095703,-0.45118 0.04687,-0.0156 0.07031,-0.0508 0.07031,-0.10547 v -0.14062 c 0,-0.0625 -0.03516,-0.0937 -0.105469,-0.0937 h -0.03516 c -0.476562,0.125 -0.90039,0.32031 -1.271484,0.58594 -0.371094,0.26562 -0.556641,0.60156 -0.556641,1.00781 0,0.28906 0.09375,0.53125 0.28125,0.72656 0.1875,0.19532 0.425781,0.29297 0.714843,0.29297 0.148438,0 0.304688,-0.0312 0.46875,-0.0937 l 2.578126,-0.97265 c 0.265624,-0.10938 0.507812,-0.16407 0.726562,-0.16407 0.234375,0 0.351563,0.0898 0.351563,0.26953 -10e-7,0.3125 -0.166016,0.57422 -0.498047,0.78516 -0.332032,0.21094 -0.69336,0.35938 -1.083985,0.44531 -0.04687,0.0156 -0.07031,0.0469 -0.07031,0.0937 v 0.14063 c 0,0.0312 0.01172,0.0566 0.03516,0.0762 0.02344,0.0195 0.04687,0.0293 0.07031,0.0293 0.0078,0 0.01953,-0.004 0.03516,-0.0117 0.453125,-0.10937 0.873047,-0.29883 1.259765,-0.56836 0.386719,-0.26953 0.580078,-0.60742 0.580079,-1.01367 0,-0.28125 -0.09766,-0.52148 -0.292969,-0.7207 -0.195313,-0.19922 -0.433594,-0.29883 -0.714844,-0.29883 z m -6.410156,1.35937 c -0.164063,0 -0.314453,0.0703 -0.451172,0.21094 -0.136719,0.14062 -0.205078,0.29297 -0.205078,0.45703 0,0.14062 0.04102,0.25391 0.123047,0.33984 0.08203,0.0859 0.189453,0.12891 0.322265,0.12891 0.179688,0 0.335938,-0.0703 0.46875,-0.21094 0.132813,-0.14062 0.199219,-0.29687 0.199219,-0.46875 0,-0.13281 -0.04297,-0.24219 -0.128906,-0.32812 -0.08594,-0.0859 -0.195312,-0.12891 -0.328125,-0.12891 z"
   style="fill:#262626;fill-opacity:1;fill-rule:nonzero;stroke:none;stroke-width:0.75"
   id="path658"
   inkscape:connector-curvature="0" /><path
   d="m 36.115625,303.67859 c 0.367188,0.21875 0.550781,0.65235 0.550781,1.30079 0,0.28125 -0.04687,0.54882 -0.140625,0.80273 -0.09375,0.25391 -0.236328,0.46289 -0.427734,0.62695 -0.191406,0.16407 -0.423828,0.2461 -0.697266,0.2461 -0.210937,0 -0.382812,-0.0742 -0.515625,-0.22266 -0.132812,-0.14844 -0.222656,-0.32812 -0.269531,-0.53906 l -0.128906,-0.65625 c -0.07031,-0.29688 -0.207031,-0.54102 -0.410156,-0.73242 -0.203125,-0.19141 -0.449219,-0.28711 -0.738281,-0.28711 -0.359375,0 -0.675781,0.0976 -0.949219,0.29297 -0.273438,0.19531 -0.482422,0.45117 -0.626953,0.76757 -0.144531,0.31641 -0.216797,0.64258 -0.216797,0.97852 -1e-6,0.36719 0.08789,0.69336 0.263672,0.97851 0.175781,0.28516 0.43164,0.42774 0.767577,0.42774 0.1875,0 0.351563,-0.0508 0.492188,-0.15234 0.140625,-0.10157 0.210938,-0.2461 0.210938,-0.4336 0,-0.10156 -0.03516,-0.1914 -0.105469,-0.26953 -0.07031,-0.0781 -0.15625,-0.11719 -0.257813,-0.11719 -0.09375,0 -0.185546,0.0274 -0.27539,0.082 -0.08984,0.0547 -0.160157,0.125 -0.210938,0.21094 -0.05078,0.0859 -0.07617,0.17578 -0.07617,0.26953 -0.171874,-0.0703 -0.296875,-0.20117 -0.375,-0.39258 -0.07812,-0.1914 -0.117187,-0.40039 -0.117187,-0.62695 0,-0.20312 0.04102,-0.40625 0.123047,-0.60937 0.08203,-0.20313 0.201172,-0.36524 0.357422,-0.48633 0.15625,-0.1211 0.34375,-0.18164 0.5625,-0.18164 0.140625,0 0.265625,0.0508 0.375,0.15234 0.109375,0.10156 0.1875,0.22656 0.234375,0.375 l 0.140625,0.69141 c 0.04687,0.22656 0.130859,0.43164 0.251953,0.61523 0.121094,0.1836 0.271484,0.33008 0.451172,0.43946 0.179687,0.10937 0.386718,0.16406 0.621093,0.16406 0.296875,0 0.589844,-0.084 0.878906,-0.25196 0.289063,-0.16796 0.519532,-0.37304 0.691407,-0.61523 0.296875,-0.42187 0.445312,-0.94141 0.445312,-1.55859 0,-0.42969 -0.09961,-0.82227 -0.298828,-1.17774 -0.199218,-0.35547 -0.490234,-0.5332 -0.873047,-0.5332 -0.21875,0 -0.410156,0.0645 -0.574218,0.19336 -0.164063,0.1289 -0.246094,0.30273 -0.246094,0.52148 0,0.125 0.03906,0.23243 0.117187,0.32227 0.07813,0.0898 0.183594,0.13476 0.316407,0.13476 0.179687,0 0.33789,-0.0684 0.474609,-0.20507 0.136719,-0.13672 0.205078,-0.29883 0.205078,-0.48633 v -0.0586 z"
   style="fill:#262626;fill-opacity:1;fill-rule:nonzero;stroke:none;stroke-width:0.75"
   id="path662"
   inkscape:connector-curvature="0" /><path
   d="m 36.994531,310.82469 c 0,-0.375 -0.0918,-0.71094 -0.275391,-1.00781 -0.183593,-0.29688 -0.427734,-0.52539 -0.732421,-0.68555 -0.304688,-0.16016 -0.648438,-0.24024 -1.03125,-0.24024 -0.546875,0 -1.085938,0.15235 -1.617188,0.45704 -0.53125,0.30468 -0.96289,0.70703 -1.294921,1.20703 -0.332031,0.5 -0.498048,1.02734 -0.498048,1.58203 0,0.29687 0.05078,0.56055 0.152344,0.79101 0.101563,0.23047 0.244141,0.43164 0.427735,0.60352 0.183594,0.17187 0.398437,0.30469 0.644531,0.39844 0.246094,0.0937 0.513672,0.14062 0.802734,0.14062 0.421875,0 0.833984,-0.0879 1.236328,-0.26367 0.402344,-0.17578 0.769531,-0.41797 1.101563,-0.72656 0.332031,-0.3086 0.595703,-0.66016 0.791015,-1.05469 0.195313,-0.39453 0.292969,-0.79492 0.292969,-1.20117 z m -0.328125,0.0234 c 0,0.35937 -0.121094,0.68554 -0.363281,0.97851 -0.242188,0.29297 -0.546875,0.53516 -0.914063,0.72656 -0.367187,0.19141 -0.755859,0.33789 -1.166015,0.43946 -0.410156,0.10156 -0.783203,0.15234 -1.119141,0.15234 -0.34375,0 -0.636719,-0.0879 -0.878906,-0.26367 -0.242187,-0.17578 -0.363282,-0.43164 -0.363281,-0.76758 0,-0.46875 0.199218,-0.87891 0.597656,-1.23047 0.398437,-0.35156 0.876953,-0.61719 1.435547,-0.79687 0.558594,-0.17969 1.068359,-0.26953 1.529297,-0.26953 0.34375,0 0.636718,0.0898 0.878906,0.26953 0.242187,0.17969 0.363281,0.43359 0.363281,0.76172 z"
   style="fill:#262626;fill-opacity:1;fill-rule:nonzero;stroke:none;stroke-width:0.75"
   id="path666"
   inkscape:connector-curvature="0" /><path
   d="m 36.642968,315.30818 c -0.04687,0 -0.08203,0.004 -0.105468,0.0117 l -3.574219,0.90234 c -0.226562,0.0547 -0.421875,0.082 -0.585938,0.082 -0.343749,0 -0.515625,-0.11719 -0.515625,-0.35157 0,-0.25 0.148438,-0.43554 0.445313,-0.55664 0.296875,-0.12109 0.675781,-0.23633 1.136719,-0.3457 0.02344,0 0.04102,-0.0117 0.05273,-0.0351 0.01172,-0.0234 0.01758,-0.0469 0.01758,-0.0703 v -0.14062 c 0,-0.0234 -0.01367,-0.0449 -0.04102,-0.0645 -0.02734,-0.0195 -0.05273,-0.0293 -0.07617,-0.0293 -0.351564,0.0859 -0.648438,0.16797 -0.890626,0.24609 -0.242187,0.0781 -0.46289,0.20313 -0.662109,0.375 -0.199219,0.17188 -0.298829,0.38281 -0.298829,0.63282 0,0.30468 0.0957,0.57226 0.28711,0.80273 0.191406,0.23047 0.431641,0.3457 0.720703,0.3457 -0.3125,0.23438 -0.558593,0.51172 -0.738282,0.83203 -0.179687,0.32032 -0.269531,0.66016 -0.269531,1.01954 0,0.38281 0.09766,0.71093 0.292969,0.98437 0.195313,0.27344 0.46875,0.41016 0.820312,0.41016 -0.343749,0.25 -0.615234,0.53906 -0.814452,0.86718 -0.199219,0.32813 -0.298829,0.6875 -0.298829,1.07813 0,0.41406 0.113282,0.74805 0.339844,1.00195 0.226563,0.25391 0.546875,0.38086 0.960937,0.38086 0.328126,0 0.72461,-0.0742 1.189454,-0.22265 0.464844,-0.14844 0.982422,-0.33204 1.552734,-0.55079 0.28125,-0.10937 0.523438,-0.16406 0.726563,-0.16406 0.234375,0 0.351562,0.0937 0.351562,0.28125 0,0.3125 -0.167969,0.57227 -0.503906,0.7793 -0.335938,0.20703 -0.695313,0.35351 -1.078125,0.43945 -0.04687,0.0234 -0.07031,0.0547 -0.07031,0.0937 v 0.14063 c 0,0.0312 0.01172,0.0586 0.03516,0.082 0.02344,0.0234 0.04687,0.0352 0.07031,0.0352 0.0078,0 0.01953,-0.004 0.03516,-0.0117 0.453125,-0.10938 0.873047,-0.30078 1.259766,-0.57422 0.386719,-0.27344 0.580078,-0.61328 0.580078,-1.01953 0,-0.28125 -0.09766,-0.52149 -0.292969,-0.72071 -0.195312,-0.19921 -0.433593,-0.29882 -0.714843,-0.29882 -0.140625,0 -0.296875,0.0351 -0.46875,0.10547 -0.601563,0.22656 -1.138672,0.41406 -1.611328,0.5625 -0.472656,0.14843 -0.888672,0.22265 -1.248048,0.22265 -0.218749,0 -0.406249,-0.0449 -0.5625,-0.13476 -0.156249,-0.0899 -0.234375,-0.24024 -0.234375,-0.45118 0,-0.4375 0.132813,-0.8164 0.398438,-1.13671 0.265625,-0.32032 0.621094,-0.59766 1.066407,-0.83204 0.07813,-0.0156 0.136719,-0.0273 0.175781,-0.0351 l 3.082031,-0.77344 c 0.109375,-0.0234 0.205078,-0.084 0.287109,-0.18164 0.08203,-0.0976 0.123047,-0.20507 0.123047,-0.32226 0,-0.0937 -0.0332,-0.17578 -0.09961,-0.2461 -0.06641,-0.0703 -0.150391,-0.10546 -0.251953,-0.10546 -0.04687,0 -0.08203,0.004 -0.105469,0.0117 l -3.058593,0.76172 c -0.328125,0.0859 -0.601563,0.1289 -0.820314,0.1289 -0.218749,0 -0.406249,-0.0469 -0.5625,-0.14062 -0.156249,-0.0937 -0.234375,-0.25 -0.234375,-0.46875 0,-0.28907 0.06446,-0.55664 0.19336,-0.80274 0.128906,-0.24609 0.298828,-0.46093 0.509766,-0.64453 0.210937,-0.18359 0.464844,-0.35351 0.761719,-0.50976 l 3.257812,-0.8086 c 0.109375,-0.0312 0.205078,-0.0937 0.28711,-0.1875 0.08203,-0.0937 0.123046,-0.19922 0.123046,-0.3164 0,-0.10157 -0.0332,-0.1875 -0.09961,-0.25782 -0.06641,-0.0703 -0.150391,-0.10546 -0.251953,-0.10546 z"
   style="fill:#262626;fill-opacity:1;fill-rule:nonzero;stroke:none;stroke-width:0.75"
   id="path670"
   inkscape:connector-curvature="0" /><path
   d="m 38.526432,327.20451 c 0,-0.10156 -0.05078,-0.15235 -0.152344,-0.15235 -0.04687,0 -0.08203,0.0117 -0.105469,0.0352 -1.921875,1.96094 -4.710937,2.9414 -8.367188,2.9414 -3.656249,0 -6.433592,-0.97265 -8.33203,-2.91797 -0.02344,-0.0391 -0.07031,-0.0586 -0.140625,-0.0586 -0.03906,0 -0.07422,0.0156 -0.105469,0.0469 -0.03125,0.0312 -0.04687,0.0664 -0.04687,0.10547 v 0.15234 c 0,0.0391 0.01172,0.0664 0.03515,0.082 0.648438,0.82812 1.439453,1.51757 2.373047,2.06836 0.933593,0.55078 1.927734,0.95312 2.982421,1.20703 1.054688,0.2539 2.132813,0.38086 3.234375,0.38086 0.8125,0 1.613281,-0.0684 2.402343,-0.20508 0.789063,-0.13672 1.566407,-0.35547 2.332032,-0.65625 0.765625,-0.30078 1.472656,-0.68164 2.121094,-1.14258 0.648437,-0.46094 1.226562,-1.01172 1.734375,-1.65234 0.02344,-0.0156 0.03516,-0.043 0.03516,-0.082 v -0.15234 z"
   style="fill:#262626;fill-opacity:1;fill-rule:nonzero;stroke:none;stroke-width:0.75"
   id="path674"
   inkscape:connector-curvature="0" />
<path
   d="m 74.25,212.625 h 0.972442 0.97245 0.972443 0.972442 0.972443 0.97245 0.972442 0.97245 0.972443 0.972442 0.97245 0.972443 0.972442 0.97245 0.972443 0.97245 0.972435 0.97245 0.972442 0.97245 0.972435 0.972451 0.972442 0.97245 0.972443 0.97245 0.972437 0.97245 0.97244 0.97245 0.97244 0.97245 0.97244 0.97245 0.97245 0.97243 0.97245 0.97245 0.97245 0.97243 0.97245 0.97244 0.97245 0.97244 0.97245 0.97246 0.97243 0.97244 0.97245 0.97245 0.97244 0.97245 0.97244 0.97245 0.97244 0.97245 0.97244 0.97245 0.97243 0.97245 0.97245 0.97245 0.97243 0.97245 0.97245 0.97244 0.97245 0.97244 0.97244 0.97245 0.97245 0.97245 0.97244 0.97244 0.97245 0.97244 0.97245 0.97245 0.97244 0.97244 0.97245 0.97245 0.97243 0.97245 0.97245 0.97243 0.97245 0.97245 0.97244 0.97245 0.97244 0.97246 0.97243 0.97245 0.97245 0.97244 0.97244 0.97245 0.97244 0.97245 0.97245 0.97244 0.97245 0.97244 0.97245 0.97243 0.97245 0.97245 0.97245 0.97243 0.97245 0.97245 0.97244 0.97245 0.97245 0.97245 0.97245 0.97242 0.97245 0.97245 0.97245 0.97245 0.97243 0.97245 0.97245 0.97243 0.97247 0.97243 0.97245 0.97245 0.97243 0.97245 0.97245 0.97245 0.97242 0.97245 0.97245 0.97243 0.97247 0.97243 0.97245 0.97245 0.97243 0.97247 0.97243 0.97245 0.97245 0.97243 0.97245 0.97245 0.97245 0.97242 0.97245 0.97245 0.97243 0.97247 0.97243 0.97245 0.97246 0.97243 0.97245 0.97245 0.97245 0.97245 0.97242 0.97245 0.97245 0.97245 0.97243 0.97245 0.97245 0.97243 0.97247 0.97243 0.97245 0.97245 0.97243 0.97245 0.97245 0.97245 0.97242 0.97245 0.97245 0.97245 0.97245 0.97243 0.97245 0.97245 0.97245 0.97245 0.97243 0.97245 0.97245 0.97243 0.97245 0.97245 0.97245 0.97242 0.97245 0.97245 0.97245 0.97245 0.97243 0.97245 0.97246 0.97245 0.97245 0.97243 0.97245 0.97245 0.97245 0.97242 0.97245 0.97245 0.97243 0.97247 0.97243 0.97245 0.97245 0.97243 0.97245 0.97245 0.97245 0.97245 0.97243 0.97245 0.97245 0.97245 0.97242 0.97245 0.97245 0.97243 0.97247 0.97243 0.97245 0.97245 0.97243 0.97245 0.97245 0.97245 0.97245 0.97243 0.97245 0.97245 0.97245 0.97242 0.97245 0.97245 0.97243 0.97248 0.97245 0.97243 0.97245 0.97245 0.97243 0.97245 0.97245 0.97242 0.97245 0.97248 0.9724 0.97247 0.97245 0.97243 0.97245 0.97245 0.97243 0.97245 0.97245 l 0.97243,7.5e-4 0.97245,0.0104 0.97247,0.0281 0.97243,0.0507 0.97245,0.0777 0.97245,0.10807 0.97242,0.14173 0.97245,0.1783 0.97245,0.21757 0.97243,0.25937 0.97245,0.30359 0.97245,0.35001 0.97243,0.39862 0.97245,0.44929 0.97247,0.50194 0.97243,0.55645 0.97245,0.6129 0.97245,0.67109 0.97245,0.731 0.97243,0.79261 0.97245,0.85584 0.97245,0.92075 0.97242,0.98712 0.97245,1.05505 0.97248,1.12446 0.97243,1.19535 0.97245,1.26764 0.97245,1.34139 0.97243,1.4165 0.97245,1.49291 0.97245,1.57067 0.97243,1.64974 0.97245,1.73011 0.97245,1.81179 0.97242,1.89459 0.97248,1.97868 0.97245,2.06402 0.97242,2.15053 0.97245,2.23814 0.97245,2.32704 0.97243,2.41695 0.97245,2.50808 0.97247,2.60033 0.97243,2.69364 0.97243,2.78805 0.97247,2.88355 0.97243,2.98011 0.97243,3.07773 0.97247,3.1764 0.97243,3.27608 0.97242,3.3768 0.97248,3.47853 0.97242,3.58125 0.97248,3.68495 0.97242,3.78968 0.97243,3.89534 0.97247,4.00198 0.97243,4.10957 0.97247,4.21811 0.97243,4.32761 0.97243,4.43801 0.97247,4.54933 0.97243,4.66161 0.97247,4.77476 0.97243,4.88882 0.40339,2.07575"
   style="fill:none;stroke:#a2142f;stroke-width:2.00000024;stroke-linecap:butt;stroke-linejoin:bevel;stroke-miterlimit:1;stroke-dasharray:6, 6;stroke-dashoffset:0;stroke-opacity:1"
   id="path686"
   inkscape:connector-curvature="0" /><path
   d="m 74.25,212.625 h 0.972442 0.97245 0.972443 0.972442 0.972443 0.97245 0.972442 0.97245 0.972443 0.972442 0.97245 0.972443 0.972442 0.97245 0.972443 0.97245 0.972435 0.97245 0.972442 0.97245 0.972435 0.972451 0.972442 0.97245 0.972443 0.97245 0.972437 0.97245 0.97244 0.97245 0.97244 0.97245 0.97244 0.97245 0.97245 0.97243 0.97245 0.97245 l 0.97245,4e-5 h 0.97243 0.97245 0.97244 0.97245 0.97244 l 0.97245,5e-5 h 0.97246 0.97243 l 0.97244,4e-5 h 0.97245 l 0.97245,5e-5 h 0.97244 l 0.97245,5e-5 0.97244,5e-5 0.97245,4e-5 0.97244,5e-5 0.97245,4e-5 0.97244,9e-5 0.97245,9e-5 0.97243,1e-4 0.97245,9e-5 0.97245,1.3e-4 0.97245,1.4e-4 0.97243,1.9e-4 0.97245,1.8e-4 0.97245,2.3e-4 0.97244,2.2e-4 0.97245,2.8e-4 0.97244,3.2e-4 0.97244,3.6e-4 0.97245,4.6e-4 0.97245,4.6e-4 0.97245,5.6e-4 0.97244,5.9e-4 0.97244,7.3e-4 0.97245,7.5e-4 0.97244,7.5e-4 0.97245,7.5e-4 0.97245,0.001 0.97244,0.001 0.97244,0.002 0.97245,0.001 0.97245,0.001 0.97243,0.002 0.97245,0.002 0.97245,0.002 0.97243,0.003 0.97245,0.003 0.97245,0.004 0.97244,0.004 0.97245,0.005 0.97244,0.005 0.97246,0.005 0.97243,0.006 0.97245,0.007 0.97245,0.007 0.97244,0.008 0.97244,0.009 0.97245,0.01 0.97244,0.0109 0.97245,0.0119 0.97245,0.013 0.97244,0.0143 0.97245,0.0157 0.97244,0.0172 0.97245,0.0188 0.97243,0.0205 0.97245,0.0224 0.97245,0.0244 0.97245,0.0266 0.97243,0.0289 0.97245,0.0314 0.97245,0.034 0.97244,0.037 0.97245,0.04 0.97245,0.0433 0.97245,0.0467 0.97245,0.0505 0.97242,0.0545 0.97245,0.0587 0.97245,0.0631 0.97245,0.068 0.97245,0.073 0.97243,0.0784 0.97245,0.084 0.97245,0.09 0.97243,0.0963 0.97247,0.103 0.97243,0.11 0.97245,0.11737 0.97245,0.1251 0.97243,0.13326 0.97245,0.14177 0.97245,0.15074 0.97245,0.16008 0.97242,0.16983 0.97245,0.18 0.97245,0.19065 0.97243,0.20174 0.97247,0.21327 0.97243,0.22522 0.97245,0.23763 0.97245,0.25048 0.97243,0.26386 0.97247,0.27768 0.97243,0.29191 0.97245,0.30666 0.97245,0.32181 0.97243,0.33741 0.97245,0.35354 0.97245,0.37006 0.97245,0.38699 0.97242,0.40438 0.97245,0.4222 0.97245,0.44037 0.97243,0.459 0.97247,0.47795 0.97243,0.49727 0.97245,0.517 0.97246,0.537 0.97243,0.55728 0.97245,0.57792 0.97245,0.59881 0.97245,0.61994 0.97245,0.64125 0.97242,0.66279 0.97245,0.68445 0.97245,0.70632 0.97245,0.72826 0.97243,0.75028 0.97245,0.77238 0.97245,0.79441 0.97243,0.81651 0.97247,0.83858 0.97243,0.86045 0.97245,0.88229 0.97245,0.904 0.97243,0.92546 0.97245,0.94674 0.97245,0.96772 0.97245,0.98845 0.97242,1.00886 0.97245,1.02887 0.97245,1.04847 0.97245,1.06768 0.97245,1.08641 0.97243,1.10468 0.97245,1.1223 0.97245,1.13947 0.97245,1.15599 0.97245,1.17187 0.97243,1.18716 0.97245,1.20168 0.97245,1.2155 0.97243,1.22859 0.97245,1.24095 0.97245,1.25249 0.97245,1.26322 0.97242,1.27311 0.97245,1.28217 0.97245,1.29035 0.97245,1.29764 0.97245,1.30406 0.97243,1.30952 0.97245,1.31408 0.97246,1.31774 0.97245,1.32042 0.97245,1.32219 0.97243,1.323 0.97245,1.32287 0.97245,1.32179 0.97245,1.31973 0.97242,1.31681 0.97245,1.31289 0.97245,1.30806 0.97243,1.30229 0.97247,1.29565 0.97243,1.2881 0.97245,1.27966 0.97245,1.27036 0.97243,1.2602 0.97245,1.24924 0.97245,1.23743 0.97245,1.22486 0.97245,1.21149 0.97243,1.19742 0.97245,1.18258 0.97245,1.16707 0.97245,1.15091 0.97242,1.13409 0.97245,1.11667 0.97245,1.09863 0.97243,1.08009 0.97247,1.06099 0.97243,1.04143 0.97245,1.02136 0.97245,1.00093 0.97243,0.98005 0.97245,0.9588 0.97245,0.93728 0.97245,0.91539 0.97245,0.89326 0.97243,0.87091 0.97245,0.84833 0.97245,0.8256 0.97245,0.80274 0.97242,0.77975 0.97245,0.75666 0.97245,0.73359 0.97243,0.71047 0.97248,0.68736 0.97245,0.6643 0.97243,0.6413 0.97245,0.61845 0.97245,0.59566 0.97243,0.57308 0.97245,0.55066 0.97245,0.52844 0.97242,0.50647 0.97245,0.48475 0.97248,0.46328 0.9724,0.44216 0.97247,0.42132 0.97245,0.40086 0.97243,0.38073 0.97245,0.36099 0.97245,0.34167 0.97243,0.32275 0.97245,0.30425 0.97245,0.2862 0.97243,0.26863 0.97245,0.25154 0.97247,0.23493 0.97243,0.21881 0.97245,0.20323 0.97245,0.18813 0.97242,0.17361 0.97245,0.15963 0.97245,0.14616 0.97243,0.1333 0.97245,0.12096 0.97245,0.10925 0.97243,0.0981 0.97245,0.0875 0.97247,0.0775 0.97243,0.0681 0.97245,0.0593 0.97245,0.0512 0.97245,0.0435 0.97243,0.0365 0.97245,0.0302 0.97245,0.0244 0.97242,0.0192 0.97245,0.0146 0.97248,0.0107 0.97243,0.007 0.97245,0.005 0.97245,0.002 0.97243,0.002 0.97245,2.7e-4 0.97245,-0.0511 0.97243,-0.17125 0.97245,-0.23776 0.97245,-0.2886 0.97242,-0.33119 0.97248,-0.36834 0.97245,-0.40157 0.97242,-0.4317 0.97245,-0.45936 0.97245,-0.48491 0.97243,-0.50869 0.97245,-0.53083 0.97247,-0.55162 0.97243,-0.57114 0.97243,-0.58948 0.97247,-0.60677 0.97243,-0.6231 0.97243,-0.63852 0.97247,-0.65306 0.97243,-0.66687 0.97242,-0.67985 0.97248,-0.69216 0.97242,-0.70379 0.97248,-0.71478 0.97242,-0.72514 0.97243,-0.73492 0.97247,-0.74413 0.97243,-0.7528 0.97247,-0.76096 0.97243,-0.76861 0.97243,-0.77577 0.97247,-0.7825 0.97243,-0.78875 0.97247,-0.79457 0.97243,-0.79999 0.97243,-0.80495 0.97247,-0.80958 0.97243,-0.81379 0.97242,-0.81765 0.97248,-0.82116 0.97242,-0.8243 0.97243,-0.82711 0.97248,-0.8296 0.97247,-0.83176 0.97239,-0.83363 0.97247,-0.83519 0.97247,-0.83647 0.97243,-0.83744 0.97243,-0.83819 0.97247,-0.83862 0.97243,-0.83883 0.97242,-0.83876 0.97248,-0.83849 0.97242,-0.83793 0.97243,-0.83718 0.97247,-0.8362 0.97243,-0.83498 0.97247,-0.83361 0.97243,-0.83199 0.97243,-0.83018 0.97247,-0.82818 0.97243,-0.82599 0.97243,-0.82366 0.97247,-0.82111 0.97243,-0.81843 0.97247,-0.81556 0.97243,-0.81255 0.97247,-0.80937 0.97243,-0.80608 0.97242,-0.80262 0.97248,-0.79902 0.97242,-0.79532 0.97243,-0.79145 0.97247,-0.78752 0.97243,-0.78339 0.97243,-0.77921 0.97247,-0.7749 0.97247,-0.7705 0.97243,-0.76596 0.97243,-0.76137 0.97247,-0.75666 0.97243,-0.75188 0.97243,-0.74701 0.97247,-0.74203 0.97243,-0.73702 0.97242,-0.73189 0.97248,-0.72675 0.97243,-0.72148 0.97242,-0.7162 0.97248,-0.71081 0.97243,-0.70541 0.97247,-0.69993 0.97243,-0.6944 0.97243,-0.68882 0.97247,-0.68321 0.97243,-0.67756 0.97242,-0.67186 0.97248,-0.66614 0.97242,-0.66035 0.97243,-0.65457 0.97247,-0.64875 0.97248,-0.6429 0.97242,-0.63703 0.97243,-0.63114 0.97247,-0.62524 0.97243,-0.6193 0.97243,-0.61336 0.97247,-0.60741 0.97243,-0.60146 0.97243,-0.5955 0.97247,-0.58951 0.97247,-0.58355 0.97243,-0.57756 0.97243,-0.57162 0.97247,-0.56561 0.97243,-0.55966 0.97242,-0.55371 0.97248,-0.54776 0.97242,-0.54181 0.97243,-0.53586 0.97247,-0.52995 0.97243,-0.52401 0.97247,-0.51813 0.97243,-0.51229 0.97243,-0.50642 0.97247,-0.50057 0.97243,-0.49475 0.97243,-0.48898 0.97247,-0.48317 0.97243,-0.47745 0.97242,-0.47172 0.97248,-0.46601 0.97248,-0.46032 0.97237,-0.4547 0.97248,-0.44911 0.97247,-0.44353 0.97243,-0.43794 0.97243,-0.43245 0.97247,-0.42696 0.97243,-0.42151 0.97243,-0.41606 0.97247,-0.4107 0.97243,-0.40535 0.97242,-0.40005 0.97248,-0.39472 0.97247,-0.38956 0.97243,-0.38429 0.97242,-0.37917 0.97248,-0.37403 0.97242,-0.36897 0.97243,-0.36392 0.97247,-0.35893 0.97243,-0.35394 0.97243,-0.349 0.97247,-0.34419 0.97243,-0.3393 0.97247,-0.33453 0.97243,-0.32978 0.97243,-0.32505 0.97247,-0.32039 0.97243,-0.31576 0.97242,-0.31124 0.97248,-0.30666 0.97242,-0.30217 0.97243,-0.29768 0.97247,-0.29333 0.97248,-0.28895 0.97242,-0.28468 0.97243,-0.28034 0.97247,-0.27616 0.97243,-0.27196 0.97243,-0.26779 0.97247,-0.26376 0.97243,-0.25965 0.97243,-0.2557 0.97247,-0.25173 0.97243,-0.24779 0.97242,-0.2439 0.97248,-0.24009 0.97243,-0.23634 0.97247,-0.23255 0.97243,-0.22888 0.97247,-0.22522 0.97243,-0.2216 0.97243,-0.21804 0.97247,-0.21455 0.97243,-0.21103 0.97243,-0.2076 0.97247,-0.2042 0.97243,-0.20087 0.97247,-0.19752 0.97243,-0.19428 0.97242,-0.19107 0.97248,-0.18787 0.97242,-0.1847 0.97243,-0.18165 0.97247,-0.17857 0.97243,-0.17551 0.97243,-0.17257 0.97247,-0.1696"
   style="fill:none;stroke:#a2142f;stroke-width:2.00000024;stroke-linecap:butt;stroke-linejoin:round;stroke-miterlimit:10;stroke-dasharray:none;stroke-opacity:1"
   id="path690"
   inkscape:connector-curvature="0" /><path
   d="m 365.40001,212.625 v 129.75"
   style="fill:none;stroke:#ffd700;stroke-width:2.00000024;stroke-linecap:butt;stroke-linejoin:round;stroke-miterlimit:10;stroke-dasharray:none;stroke-opacity:1"
   id="path694"
   inkscape:connector-curvature="0" /><path
   d="m 551.25,260.625 v 73.5 h -81 v -73.5 z"
   style="fill:#ffffff;fill-opacity:1;fill-rule:nonzero;stroke:none;stroke-width:0.75"
   id="path698"
   inkscape:connector-curvature="0" /><text
   id="text706"
   style="font-variant:normal;font-weight:normal;font-size:14.40000057px;font-family:Helvetica;-inkscape-font-specification:Helvetica;writing-mode:lr-tb;fill:#000000;fill-opacity:1;fill-rule:nonzero;stroke:none;stroke-width:0.75"
   transform="scale(1,-1)"
   x="505.5"
   y="-318.375"><tspan
     id="tspan704"
     y="-318.375"
     x="505.5"
     style="stroke-width:0.75">F</tspan></text>

<text
   id="text714"
   style="font-variant:normal;font-weight:normal;font-size:11.5199995px;font-family:Helvetica;-inkscape-font-specification:Helvetica;writing-mode:lr-tb;fill:#000000;fill-opacity:1;fill-rule:nonzero;stroke:none;stroke-width:0.75"
   transform="scale(1,-1)"
   x="514.5"
   y="-311.625"><tspan
     id="tspan712"
     sodipodi:role="line"
     y="-311.625"
     x="514.5 522.18384 529.86768"
     style="stroke-width:0.75">PEE</tspan></text>

<path
   d="m 473.25,321 h 30"
   style="fill:none;stroke:#a2142f;stroke-width:2.00000024;stroke-linecap:butt;stroke-linejoin:bevel;stroke-miterlimit:1;stroke-dasharray:6, 6;stroke-dashoffset:0;stroke-opacity:1"
   id="path718"
   inkscape:connector-curvature="0" /><text
   id="text726"
   style="font-variant:normal;font-weight:normal;font-size:14.40000057px;font-family:Helvetica;-inkscape-font-specification:Helvetica;writing-mode:lr-tb;fill:#000000;fill-opacity:1;fill-rule:nonzero;stroke:none;stroke-width:0.75"
   transform="scale(1,-1)"
   x="505.5"
   y="-295.125"><tspan
     id="tspan724"
     y="-295.125"
     x="505.5"
     style="stroke-width:0.75">F</tspan></text>

<text
   id="text734"
   style="font-variant:normal;font-weight:normal;font-size:11.5199995px;font-family:Helvetica;-inkscape-font-specification:Helvetica;writing-mode:lr-tb;fill:#000000;fill-opacity:1;fill-rule:nonzero;stroke:none;stroke-width:0.75"
   transform="scale(1,-1)"
   x="514.5"
   y="-288.375"><tspan
     id="tspan732"
     sodipodi:role="line"
     y="-288.375"
     x="514.5 517.05743 522.81744 529.22253"
     style="stroke-width:0.75">isom</tspan></text>

<path
   d="m 473.25,297.375 h 30"
   style="fill:none;stroke:#a2142f;stroke-width:2.00000024;stroke-linecap:butt;stroke-linejoin:round;stroke-miterlimit:10;stroke-dasharray:none;stroke-opacity:1"
   id="path738"
   inkscape:connector-curvature="0" /><text
   id="text746"
   style="font-variant:normal;font-weight:normal;font-size:14.40000057px;font-family:Helvetica;-inkscape-font-specification:Helvetica;writing-mode:lr-tb;fill:#000000;fill-opacity:1;fill-rule:nonzero;stroke:none;stroke-width:0.75"
   transform="scale(1,-1)"
   x="505.5"
   y="-271.125"><tspan
     id="tspan744"
     y="-271.125"
     x="505.5"
     style="stroke-width:0.75">l</tspan></text>

<text
   id="text754"
   style="font-variant:normal;font-weight:normal;font-size:11.5199995px;font-family:Helvetica;-inkscape-font-specification:Helvetica;writing-mode:lr-tb;fill:#000000;fill-opacity:1;fill-rule:nonzero;stroke:none;stroke-width:0.75"
   transform="scale(1,-1)"
   x="510"
   y="-264.375"><tspan
     id="tspan752"
     sodipodi:role="line"
     y="-264.375"
     x="510 518.31744 526.00128 529.20386 535.60895 542.0141"
     style="stroke-width:0.75">CE,opt</tspan></text>

<path
   d="m 473.25,273.75 h 30"
   style="fill:none;stroke:#ffd700;stroke-width:2.00000024;stroke-linecap:butt;stroke-linejoin:round;stroke-miterlimit:10;stroke-dasharray:none;stroke-opacity:1"
   id="path758"
   inkscape:connector-curvature="0" /><path
   d="m 470.25,260.625 v 73.5 h 81 v -73.5 z"
   style="fill:none;stroke:#262626;stroke-width:0.50000024;stroke-linecap:butt;stroke-linejoin:miter;stroke-miterlimit:10;stroke-dasharray:none;stroke-opacity:1"
   id="path762"
   inkscape:connector-curvature="0" /></g></svg>