<?xml version="1.0" encoding="UTF-8" standalone="no"?>
<!-- Created with Inkscape (http://www.inkscape.org/) -->

<svg
   xmlns:dc="http://purl.org/dc/elements/1.1/"
   xmlns:cc="http://creativecommons.org/ns#"
   xmlns:rdf="http://www.w3.org/1999/02/22-rdf-syntax-ns#"
   xmlns:svg="http://www.w3.org/2000/svg"
   xmlns="http://www.w3.org/2000/svg"
   xmlns:sodipodi="http://sodipodi.sourceforge.net/DTD/sodipodi-0.dtd"
   xmlns:inkscape="http://www.inkscape.org/namespaces/inkscape"
   width="43.515591mm"
   height="51.693413mm"
   viewBox="0 0 43.515591 51.693413"
   version="1.1"
   id="svg8"
   inkscape:version="0.92.3 (2405546, 2018-03-11)"
   sodipodi:docname="summer_school_study.svg">
  <defs
     id="defs2">
    <inkscape:path-effect
       is_visible="true"
       id="path-effect887"
       effect="spiro" />
    <inkscape:path-effect
       effect="spiro"
       id="path-effect864"
       is_visible="true" />
    <inkscape:path-effect
       effect="spiro"
       id="path-effect858"
       is_visible="true" />
    <inkscape:path-effect
       effect="spiro"
       id="path-effect854"
       is_visible="true" />
  </defs>
  <sodipodi:namedview
     id="base"
     pagecolor="#ffffff"
     bordercolor="#666666"
     borderopacity="1.0"
     inkscape:pageopacity="0.0"
     inkscape:pageshadow="2"
     inkscape:zoom="5.6"
     inkscape:cx="56.170965"
     inkscape:cy="119.80216"
     inkscape:document-units="mm"
     inkscape:current-layer="layer1"
     showgrid="false"
     inkscape:window-width="1920"
     inkscape:window-height="989"
     inkscape:window-x="0"
     inkscape:window-y="1080"
     inkscape:window-maximized="1"
     fit-margin-top="0"
     fit-margin-left="0"
     fit-margin-right="0"
     fit-margin-bottom="0" />
  <metadata
     id="metadata5">
    <rdf:RDF>
      <cc:Work
         rdf:about="">
        <dc:format>image/svg+xml</dc:format>
        <dc:type
           rdf:resource="http://purl.org/dc/dcmitype/StillImage" />
        <dc:title></dc:title>
      </cc:Work>
    </rdf:RDF>
  </metadata>
  <g
     inkscape:label="Layer 1"
     inkscape:groupmode="layer"
     id="layer1"
     transform="translate(-27.935576,-43.564177)">
    <g
       id="g832"
       style="stroke:#999999">
      <path
         inkscape:connector-curvature="0"
         id="path826"
         d="m 28.063301,76.101735 c 0,0 5.011303,-18.575234 5.679477,-19.644312 0.668173,-1.069078 2.271792,-2.338607 3.34087,-2.739511 1.069078,-0.400905 2.873147,-1.603619 3.274049,-2.271792 0.400905,-0.668174 2.472245,-6.548102 4.276315,-7.216278 1.804067,-0.668173 5.412205,-1.069078 6.949006,1.069078 1.5368,2.138156 2.672696,4.677217 2.138156,5.412208 -0.534538,0.734992 -1.536801,0.734992 -1.536801,0.734992 0,0 -1.135893,2.33861 -1.603615,2.53906 -0.467723,0.200454 -1.135896,0.334087 -1.135896,0.334087 -0.111362,0.645902 -0.14092,1.455412 -0.334087,1.937705 -0.482834,0.05391 -0.8461,-0.313149 -1.269529,-0.467722 l -0.651471,0.551244 c 0,0.188426 -0.785105,0.324545 -0.985556,0.551242 -0.200451,0.334087 -0.434314,0.434314 -0.768401,0.367497 -0.334086,-0.06682 -1.804069,-1.336347 -2.204974,-1.135896 -0.400902,0.200453 -0.734991,1.336349 -0.534537,2.004523 0.200451,0.668173 1.135896,2.806329 1.069078,3.674954 -0.06682,0.868627 -0.601356,2.53906 -0.267269,2.873147 0.334087,0.334087 1.069078,2.071341 1.135896,3.140419 0.06681,1.069078 -0.200454,2.739512 0.334087,3.207234 0.534537,0.46772 1.870884,1.00226 3.073598,1.202711 1.202714,0.200454 3.942225,1.069078 5.946746,0.935445 2.004523,-0.133636 4.276315,-1.069078 4.87767,-1.069078 0.601356,0 3.006781,-0.267271 3.474503,0.06682 0.467723,0.334087 0.734992,0.935442 0.601356,1.536798 -0.133633,0.601358 -0.267269,1.804069 -0.668174,2.138156 -0.400904,0.334087 -0.467719,1.00226 -1.269529,0.668173 -0.801809,-0.334086 -2.004523,-1.336347 -2.806329,-1.135893 -0.801809,0.200451 -5.14494,0.668174 -6.481286,0.868625 -1.33635,0.200453 -4.075862,0.467722 -4.744035,0.400904 -0.668174,-0.06682 -3.274052,-0.133636 -3.942226,-0.601355 -0.668173,-0.467723 -2.939965,-3.875408 -3.942225,-5.746295 -1.00226,-1.870888 -2.00452,-5.278575 -2.405425,-7.483547"
         style="fill:none;fill-rule:evenodd;stroke:#999999;stroke-width:0.26458332px;stroke-linecap:butt;stroke-linejoin:miter;stroke-opacity:1"
         sodipodi:nodetypes="csscssccccccccccccsccccscccsccccsc" />
      <path
         inkscape:connector-curvature="0"
         id="path828"
         d="m 41.468536,74.080507 c 0,0 -0.30903,2.288497 -0.04176,3.157122 0.267272,0.868627 0.801809,1.603618 1.603618,1.870887 0.80181,0.267269 7.684,0.400905 9.15398,1.135896 1.469983,0.734991 4.276315,0.935442 4.476766,3.006783 0.200451,2.071338 -3.474503,11.96031 -3.474503,11.96031"
         style="fill:none;fill-rule:evenodd;stroke:#999999;stroke-width:0.26458332px;stroke-linecap:butt;stroke-linejoin:miter;stroke-opacity:1"
         sodipodi:nodetypes="ccsssc" />
    </g>
    <circle
       style="opacity:0.925;fill:none;fill-opacity:0.66203703;fill-rule:nonzero;stroke:#000000;stroke-width:0.17638889;stroke-linecap:butt;stroke-linejoin:bevel;stroke-miterlimit:4;stroke-dasharray:none;stroke-dashoffset:0;stroke-opacity:1;paint-order:normal"
       id="path834"
       cx="65.280586"
       cy="48.572971"
       r="1.0690781" />
    <path
       style="fill:none;fill-rule:evenodd;stroke:#000000;stroke-width:0.26458332px;stroke-linecap:butt;stroke-linejoin:miter;stroke-opacity:1"
       d="M 61.405174,71.892238 64.211503,48.506157"
       id="path836"
       inkscape:connector-curvature="0" />
    <path
       style="fill:none;fill-rule:evenodd;stroke:#000000;stroke-width:0.26458332px;stroke-linecap:butt;stroke-linejoin:miter;stroke-opacity:1"
       d="m 66.34966,48.572972 v 11.49259 l -1.433233,0.03786 -0.736873,2.471667 4.485685,0.0029 -0.898431,-2.471913 -1.417148,-0.04048"
       id="path838"
       inkscape:connector-curvature="0"
       sodipodi:nodetypes="ccccccc" />
    <circle
       style="opacity:0.925;fill:none;fill-opacity:0.66203703;fill-rule:nonzero;stroke:#000000;stroke-width:0.17638889;stroke-linecap:butt;stroke-linejoin:bevel;stroke-miterlimit:4;stroke-dasharray:none;stroke-dashoffset:0;stroke-opacity:1;paint-order:normal"
       id="path840"
       cx="43.331074"
       cy="75.400154"
       r="0.35079125" />
    <circle
       r="0.35079125"
       cy="73.662903"
       cx="56.895"
       id="circle842"
       style="opacity:0.925;fill:none;fill-opacity:0.66203703;fill-rule:nonzero;stroke:#000000;stroke-width:0.17638889;stroke-linecap:butt;stroke-linejoin:bevel;stroke-miterlimit:4;stroke-dasharray:none;stroke-dashoffset:0;stroke-opacity:1;paint-order:normal" />
    <circle
       style="opacity:0.925;fill:none;fill-opacity:0.66203703;fill-rule:nonzero;stroke:#000000;stroke-width:0.17638889;stroke-linecap:butt;stroke-linejoin:bevel;stroke-miterlimit:4;stroke-dasharray:none;stroke-dashoffset:0;stroke-opacity:1;paint-order:normal"
       id="circle844"
       cx="40.240765"
       cy="57.075489"
       r="0.35079125" />
    <path
       style="fill:none;fill-rule:evenodd;stroke:#000000;stroke-width:0.1;stroke-linecap:butt;stroke-linejoin:miter;stroke-miterlimit:4;stroke-dasharray:none;stroke-opacity:1"
       d="m 43.349145,75.387834 h 7.181529"
       id="path860"
       inkscape:connector-curvature="0"
       sodipodi:nodetypes="cc" />
    <path
       style="fill:none;fill-rule:evenodd;stroke:#ffcc00;stroke-width:0.26499999;stroke-linecap:round;stroke-linejoin:miter;stroke-miterlimit:4;stroke-dasharray:none;stroke-opacity:1"
       d="m 40.254463,57.055987 3.094682,18.331847 13.559896,-1.724517"
       id="path846"
       inkscape:connector-curvature="0"
       sodipodi:nodetypes="ccc" />
    <path
       style="fill:none;fill-rule:evenodd;stroke:#ffcc00;stroke-width:0.1;stroke-linecap:round;stroke-linejoin:miter;stroke-miterlimit:4;stroke-dasharray:none;stroke-dashoffset:0;stroke-opacity:1"
       d="m 43.026052,73.395108 0.707851,4.702537"
       id="path848"
       inkscape:connector-curvature="0"
       sodipodi:nodetypes="cc" />
    <path
       style="fill:none;fill-rule:evenodd;stroke:#800000;stroke-width:0.26458332;stroke-linecap:butt;stroke-linejoin:miter;stroke-miterlimit:4;stroke-dasharray:none;stroke-opacity:1"
       d="m 44.059112,75.303032 c 0.01754,0.159239 -0.01882,0.323934 -0.101765,0.46099 -0.111311,0.18392 -0.307052,0.314348 -0.519651,0.34626"
       id="path852"
       inkscape:connector-curvature="0"
       inkscape:path-effect="#path-effect854"
       inkscape:original-d="m 44.059112,75.303032 c 0.13413,0.08242 -0.235368,0.378044 -0.101765,0.46099 0.133601,0.08295 -0.558759,0.216067 -0.519651,0.34626"
       sodipodi:nodetypes="ccc" />
    <path
       style="fill:none;fill-rule:evenodd;stroke:#000000;stroke-width:0.26458332px;stroke-linecap:butt;stroke-linejoin:miter;stroke-opacity:1"
       d="m 64.211503,48.506157 c 0.01686,-0.265722 0.137161,-0.523537 0.329968,-0.707162 0.192806,-0.183626 0.456179,-0.291212 0.722407,-0.295101 0.28258,-0.0041 0.565075,0.109203 0.766453,0.307483 0.201379,0.198281 0.319075,0.478985 0.319329,0.761595"
       id="path856"
       inkscape:connector-curvature="0"
       inkscape:path-effect="#path-effect858"
       inkscape:original-d="m 64.211503,48.506157 c 0.348271,-0.334351 0.701847,-0.668441 1.052375,-1.002263 0.350526,-0.333822 0.724117,0.712454 1.085782,1.069078" />
    <path
       style="fill:none;fill-rule:evenodd;stroke:#800000;stroke-width:0.26458332px;stroke-linecap:butt;stroke-linejoin:miter;stroke-opacity:1"
       d="m 50.165238,74.62131 c 0.01633,0.11244 0.03025,0.22523 0.04176,0.338265 0.01407,0.138202 0.02453,0.276772 0.03137,0.415521"
       id="path862"
       inkscape:connector-curvature="0"
       inkscape:path-effect="#path-effect864"
       inkscape:original-d="m 50.165238,74.62131 c 0.01905,0.13337 0.0295,0.202276 0.04176,0.338265 0.01017,0.150603 0.02877,0.298324 0.03137,0.415521"
       sodipodi:nodetypes="ccc" />
    <text
       xml:space="preserve"
       style="font-style:normal;font-variant:normal;font-weight:normal;font-stretch:normal;font-size:2.11666656px;line-height:125%;font-family:'Univers for UniS 55 Roman';-inkscape-font-specification:'Univers for UniS 55 Roman, ';text-align:start;letter-spacing:0px;word-spacing:0px;writing-mode:lr-tb;text-anchor:start;fill:#000000;fill-opacity:1;stroke:none;stroke-width:0.26458332px;stroke-linecap:butt;stroke-linejoin:miter;stroke-opacity:1"
       x="62.565468"
       y="70.880402"
       id="text868"><tspan
         sodipodi:role="line"
         id="tspan866"
         x="62.565468"
         y="70.880402"
         style="stroke-width:0.26458332px">$\phi_w$</tspan></text>
    <path
       style="fill:none;fill-rule:evenodd;stroke:#000000;stroke-width:0.1;stroke-linecap:butt;stroke-linejoin:miter;stroke-miterlimit:4;stroke-dasharray:none;stroke-opacity:1"
       d="m 61.405174,71.892238 h 2.754877"
       id="path860-8"
       inkscape:connector-curvature="0"
       sodipodi:nodetypes="cc" />
    <path
       inkscape:original-d="m 61.600825,71.203666 c 0.13413,0.08242 0.267999,0.1651 0.4016,0.248046 0.133601,0.08295 0.114445,0.23597 0.124024,0.395693"
       inkscape:path-effect="#path-effect887"
       inkscape:connector-curvature="0"
       id="path885"
       d="m 61.600825,71.203666 c 0.158827,0.02764 0.305776,0.118401 0.4016,0.248046 0.0837,0.113235 0.128112,0.254943 0.124024,0.395693"
       style="fill:none;fill-rule:evenodd;stroke:#800000;stroke-width:0.26458332;stroke-linecap:butt;stroke-linejoin:miter;stroke-miterlimit:4;stroke-dasharray:none;stroke-opacity:1"
       sodipodi:nodetypes="ccc" />
    <text
       id="text891"
       y="75.86496"
       x="51.060818"
       style="font-style:normal;font-variant:normal;font-weight:normal;font-stretch:normal;font-size:2.11666656px;line-height:125%;font-family:'Univers for UniS 55 Roman';-inkscape-font-specification:'Univers for UniS 55 Roman, ';text-align:start;letter-spacing:0px;word-spacing:0px;writing-mode:lr-tb;text-anchor:start;fill:#000000;fill-opacity:1;stroke:none;stroke-width:0.26458332px;stroke-linecap:butt;stroke-linejoin:miter;stroke-opacity:1"
       xml:space="preserve"><tspan
         style="stroke-width:0.26458332px"
         y="75.86496"
         x="51.060818"
         id="tspan889"
         sodipodi:role="line">$\phi_a$</tspan></text>
    <text
       id="text895"
       y="77.542236"
       x="44.46986"
       style="font-style:normal;font-variant:normal;font-weight:normal;font-stretch:normal;font-size:2.11666656px;line-height:125%;font-family:'Univers for UniS 55 Roman';-inkscape-font-specification:'Univers for UniS 55 Roman, ';text-align:start;letter-spacing:0px;word-spacing:0px;writing-mode:lr-tb;text-anchor:start;fill:#000000;fill-opacity:1;stroke:none;stroke-width:0.26458332px;stroke-linecap:butt;stroke-linejoin:miter;stroke-opacity:1"
       xml:space="preserve"><tspan
         style="stroke-width:0.26458332px"
         y="77.542236"
         x="44.46986"
         id="tspan893"
         sodipodi:role="line">$\phi_e$</tspan></text>
  </g>
</svg>
