<?xml version="1.0" encoding="UTF-8" standalone="no"?>
<!-- Created with Inkscape (http://www.inkscape.org/) -->

<svg
   xmlns:dc="http://purl.org/dc/elements/1.1/"
   xmlns:cc="http://creativecommons.org/ns#"
   xmlns:rdf="http://www.w3.org/1999/02/22-rdf-syntax-ns#"
   xmlns:svg="http://www.w3.org/2000/svg"
   xmlns="http://www.w3.org/2000/svg"
   xmlns:sodipodi="http://sodipodi.sourceforge.net/DTD/sodipodi-0.dtd"
   xmlns:inkscape="http://www.inkscape.org/namespaces/inkscape"
   width="29.875565mm"
   height="29.875568mm"
   viewBox="0 0 29.875564 29.875568"
   version="1.1"
   id="svg1397"
   inkscape:version="0.92.3 (2405546, 2018-03-11)"
   sodipodi:docname="ansatz3.svg">
  <defs
     id="defs1391">
    <clipPath
       clipPathUnits="userSpaceOnUse"
       id="clipPath6450">
      <path
         d="M 45,39.6 H 324 V 316.8 H 45 Z"
         id="path6448"
         inkscape:connector-curvature="0" />
    </clipPath>
    <clipPath
       clipPathUnits="userSpaceOnUse"
       id="clipPath6460">
      <path
         d="M 45,39.6 H 324 V 316.8 H 45 Z"
         id="path6458"
         inkscape:connector-curvature="0" />
    </clipPath>
    <clipPath
       clipPathUnits="userSpaceOnUse"
       id="clipPath6470">
      <path
         d="M 45,39.6 H 324 V 316.8 H 45 Z"
         id="path6468"
         inkscape:connector-curvature="0" />
    </clipPath>
    <clipPath
       clipPathUnits="userSpaceOnUse"
       id="clipPath6580">
      <path
         d="M 45,39.6 H 324 V 316.8 H 45 Z"
         id="path6578"
         inkscape:connector-curvature="0" />
    </clipPath>
    <clipPath
       clipPathUnits="userSpaceOnUse"
       id="clipPath6590">
      <path
         d="M 45,39.6 H 324 V 316.8 H 45 Z"
         id="path6588"
         inkscape:connector-curvature="0" />
    </clipPath>
    <clipPath
       clipPathUnits="userSpaceOnUse"
       id="clipPath6600">
      <path
         d="M 45,39.6 H 324 V 316.8 H 45 Z"
         id="path6598"
         inkscape:connector-curvature="0" />
    </clipPath>
    <clipPath
       clipPathUnits="userSpaceOnUse"
       id="clipPath6610">
      <path
         d="M 45,39.6 H 324 V 316.8 H 45 Z"
         id="path6608"
         inkscape:connector-curvature="0" />
    </clipPath>
    <clipPath
       clipPathUnits="userSpaceOnUse"
       id="clipPath6725">
      <path
         d="M 45,39.6 H 324 V 316.8 H 45 Z"
         id="path6723"
         inkscape:connector-curvature="0" />
    </clipPath>
    <clipPath
       clipPathUnits="userSpaceOnUse"
       id="clipPath6735">
      <path
         d="M 45,39.6 H 324 V 316.8 H 45 Z"
         id="path6733"
         inkscape:connector-curvature="0" />
    </clipPath>
    <clipPath
       clipPathUnits="userSpaceOnUse"
       id="clipPath6745">
      <path
         d="M 45,39.6 H 324 V 316.8 H 45 Z"
         id="path6743"
         inkscape:connector-curvature="0" />
    </clipPath>
    <clipPath
       clipPathUnits="userSpaceOnUse"
       id="clipPath6755">
      <path
         d="M 45,39.6 H 324 V 316.8 H 45 Z"
         id="path6753"
         inkscape:connector-curvature="0" />
    </clipPath>
    <clipPath
       clipPathUnits="userSpaceOnUse"
       id="clipPath6765">
      <path
         d="M 45,39.6 H 324 V 316.8 H 45 Z"
         id="path6763"
         inkscape:connector-curvature="0" />
    </clipPath>
  </defs>
  <sodipodi:namedview
     id="base"
     pagecolor="#ffffff"
     bordercolor="#666666"
     borderopacity="1.0"
     inkscape:pageopacity="0.0"
     inkscape:pageshadow="2"
     inkscape:zoom="2.8"
     inkscape:cx="42.464196"
     inkscape:cy="38.26629"
     inkscape:document-units="mm"
     inkscape:current-layer="layer1"
     showgrid="false"
     fit-margin-top="0"
     fit-margin-left="0"
     fit-margin-right="0"
     fit-margin-bottom="0"
     inkscape:window-width="1600"
     inkscape:window-height="839"
     inkscape:window-x="243"
     inkscape:window-y="1080"
     inkscape:window-maximized="1" />
  <metadata
     id="metadata1394">
    <rdf:RDF>
      <cc:Work
         rdf:about="">
        <dc:format>image/svg+xml</dc:format>
        <dc:type
           rdf:resource="http://purl.org/dc/dcmitype/StillImage" />
        <dc:title></dc:title>
      </cc:Work>
    </rdf:RDF>
  </metadata>
  <g
     inkscape:label="Layer 1"
     inkscape:groupmode="layer"
     id="layer1"
     transform="translate(-93.411405,-74.887752)">
    <path
       d="M 93.411405,104.76332 H 123.28697 V 74.887752 H 93.411405 Z"
       style="fill:#ffffff;fill-opacity:1;fill-rule:nonzero;stroke:none;stroke-width:0.08298769"
       id="path6717"
       inkscape:connector-curvature="0" />
    <g
       clip-path="url(#clipPath6725)"
       id="g6721"
       transform="matrix(0.08298769,0,0,-0.08298769,93.411405,104.76332)"
       style="stroke:#800000">
      <path
         inkscape:connector-curvature="0"
         id="path6727"
         style="fill:none;stroke:#800000;stroke-width:8;stroke-linecap:square;stroke-linejoin:round;stroke-miterlimit:10;stroke-dasharray:none;stroke-opacity:1"
         d="m 57.681818,304.2 2.561984,-0.0667 2.561983,-0.19838 2.561984,-0.32731 2.561983,-0.45354 2.561984,-0.57704 2.561983,-0.69784 2.561983,-0.81591 2.561984,-0.93127 2.561983,-1.04393 2.561984,-1.15385 2.561983,-1.26108 2.561984,-1.36559 2.561983,-1.46737 2.561984,-1.56645 2.561983,-1.66281 2.561984,-1.75646 2.561986,-1.8474 2.56198,-1.93561 2.56198,-2.02112 2.56199,-2.10391 2.56198,-2.18398 2.56199,-2.26135 2.56198,-2.33599 2.56198,-2.40792 2.56199,-2.47714 2.56198,-2.54365 2.56198,-2.60743 2.56198,-2.66851 2.56199,-2.72687 2.56198,-2.78251 2.56199,-2.83545 2.56198,-2.88566 2.56198,-2.93317 2.56199,-2.97795 2.56198,-3.02003 2.56198,-3.05938 2.56199,-3.09603 2.56198,-3.12997 2.56198,-3.16117 2.56199,-3.18968 2.56198,-3.21547 2.56198,-3.23854 2.56199,-3.25889 2.56198,-3.27654 2.56198,-3.29147 2.56199,-3.30369 2.56198,-3.31318 2.56198,-3.31997 2.56199,-3.32405 2.56198,-3.3254 2.56198,-3.32404 2.56199,-3.31997 2.56198,-3.31319 2.56199,-3.30368 2.56198,-3.29147 2.56198,-3.27654 2.56199,-3.2589 2.56198,-3.23854 2.56198,-3.21546 2.56199,-3.18968 2.56198,-3.16118 2.56198,-3.12996 2.56199,-3.09603 2.56198,-3.05939 2.56198,-3.02002 2.56199,-2.97796 2.56198,-2.93316 2.56198,-2.88566 2.56199,-2.83545 2.56198,-2.78251 2.56199,-2.72687 2.56198,-2.66851 2.56198,-2.60744 2.56198,-2.54364 2.56199,-2.47714 2.56198,-2.40792 2.56198,-2.336 2.56199,-2.26134 2.56198,-2.18398 2.56199,-2.10391 2.56198,-2.02112 2.56198,-1.93561 2.56199,-1.8474 2.56198,-1.756457 2.56198,-1.662814 2.56199,-1.566451 2.56198,-1.467374 2.56198,-1.365583 2.56199,-1.261078 2.56198,-1.153858 2.56198,-1.043924 2.56199,-0.931275 2.56198,-0.815911 2.56198,-0.697834 2.56199,-0.577043 2.56198,-0.453535 2.56198,-0.327315 2.56199,-0.198379 2.56198,-0.06673" />
    </g>
    <g
       clip-path="url(#clipPath6735)"
       id="g6731"
       transform="matrix(0.08298769,0,0,-0.08298769,93.411405,104.76332)">
      <path
         inkscape:connector-curvature="0"
         id="path6737"
         style="fill:none;stroke:#ff7f0e;stroke-width:8;stroke-linecap:square;stroke-linejoin:round;stroke-miterlimit:10;stroke-dasharray:none;stroke-opacity:1"
         d="m 57.681818,84.716129 2.561984,2.172447 2.561983,2.084228 2.561984,1.997366 2.561983,1.911862 2.561984,1.827715 2.561983,1.744924 2.561983,1.663492 2.561984,1.583416 2.561983,1.504701 2.561984,1.42733 2.561983,1.35134 2.561984,1.27668 2.561983,1.2034 2.561984,1.13146 2.561983,1.06089 2.561984,0.99167 2.561986,0.92381 2.56198,0.85731 2.56198,0.79216 2.56199,0.72837 2.56198,0.66594 2.56199,0.60487 2.56198,0.54514 2.56198,0.48679 2.56199,0.42979 2.56198,0.37413 2.56198,0.31985 2.56198,0.26692 2.56199,0.21535 2.56198,0.16512 2.56199,0.11627 2.56198,0.0688 2.56198,0.0226 2.56199,-0.0222 2.56198,-0.0656 2.56198,-0.10767 2.56199,-0.14839 2.56198,-0.18775 2.56198,-0.22575 2.56199,-0.26239 2.56198,-0.29768 2.56198,-0.33162 2.56199,-0.36418 2.56198,-0.3954 2.56198,-0.42526 2.56199,-0.45377 2.56198,-0.4809 2.56198,-0.5067 2.56199,-0.53112 2.56198,-0.55419 2.56198,-0.57591 2.56199,-0.59628 2.56198,-0.61526 2.56199,-0.63292 2.56198,-0.6492 2.56198,-0.66413 2.56199,-0.6777 2.56198,-0.68992 2.56198,-0.70077 2.56199,-0.71028 2.56198,-0.71842 2.56198,-0.7252 2.56199,-0.73064 2.56198,-0.7347 2.56198,-0.73742 2.56199,-0.73878 2.56198,-0.73877 2.56198,-0.737423 2.56199,-0.734705 2.56198,-0.730633 2.56199,-0.725205 2.56198,-0.718418 2.56198,-0.710276 2.56198,-0.700774 2.56199,-0.689917 2.56198,-0.677702 2.56198,-0.66413 2.56199,-0.649201 2.56198,-0.632914 2.56199,-0.61527 2.56198,-0.59627 2.56198,-0.575911 2.56199,-0.554195 2.56198,-0.531123 2.56198,-0.506694 2.56199,-0.480906 2.56198,-0.453761 2.56198,-0.425261 2.56199,-0.395401 2.56198,-0.364186 2.56198,-0.331613 2.56199,-0.297682 2.56198,-0.262395 2.56198,-0.22575 2.56199,-0.187747 2.56198,-0.148389 2.56198,-0.107672 2.56199,-0.0656 2.56198,-0.02217" />
    </g>
    <g
       clip-path="url(#clipPath6745)"
       id="g6741"
       transform="matrix(0.08298769,0,0,-0.08298769,93.411405,104.76332)"
       style="stroke:#ffcc00">
      <path
         inkscape:connector-curvature="0"
         id="path6747"
         style="fill:none;stroke:#ffcc00;stroke-width:8;stroke-linecap:square;stroke-linejoin:round;stroke-miterlimit:10;stroke-dasharray:none;stroke-opacity:1"
         d="m 57.681818,84.716129 2.561984,0.06673 2.561983,0.198379 2.561984,0.327315 2.561983,0.453535 2.561984,0.577043 2.561983,0.697834 2.561983,0.815911 2.561984,0.931275 2.561983,1.043924 2.561984,1.153858 2.561983,1.261078 2.561984,1.365583 2.561983,1.467374 2.561984,1.566451 2.561983,1.662814 2.561984,1.756457 2.561986,1.8474 2.56198,1.93561 2.56198,2.02112 2.56199,2.10391 2.56198,2.18398 2.56199,2.26134 2.56198,2.336 2.56198,2.40792 2.56199,2.47714 2.56198,2.54364 2.56198,2.60744 2.56198,2.66851 2.56199,2.72687 2.56198,2.78251 2.56199,2.83545 2.56198,2.88566 2.56198,2.93316 2.56199,2.97796 2.56198,3.02002 2.56198,3.05939 2.56199,3.09603 2.56198,3.12996 2.56198,3.16118 2.56199,3.18968 2.56198,3.21546 2.56198,3.23854 2.56199,3.2589 2.56198,3.27654 2.56198,3.29147 2.56199,3.30368 2.56198,3.31319 2.56198,3.31997 2.56199,3.32404 2.56198,3.3254 2.56198,3.32405 2.56199,3.31997 2.56198,3.31318 2.56199,3.30369 2.56198,3.29147 2.56198,3.27654 2.56199,3.25889 2.56198,3.23854 2.56198,3.21547 2.56199,3.18968 2.56198,3.16117 2.56198,3.12997 2.56199,3.09603 2.56198,3.05938 2.56198,3.02003 2.56199,2.97795 2.56198,2.93317 2.56198,2.88566 2.56199,2.83545 2.56198,2.78251 2.56199,2.72687 2.56198,2.66851 2.56198,2.60743 2.56198,2.54365 2.56199,2.47714 2.56198,2.40792 2.56198,2.33599 2.56199,2.26135 2.56198,2.18398 2.56199,2.10391 2.56198,2.02112 2.56198,1.93561 2.56199,1.8474 2.56198,1.75646 2.56198,1.66281 2.56199,1.56645 2.56198,1.46737 2.56198,1.36559 2.56199,1.26108 2.56198,1.15385 2.56198,1.04393 2.56199,0.93127 2.56198,0.81591 2.56198,0.69784 2.56199,0.57704 2.56198,0.45354 2.56198,0.32731 2.56199,0.19838 2.56198,0.0667" />
    </g>
    <g
       clip-path="url(#clipPath6755)"
       id="g6751"
       transform="matrix(0.08298769,0,0,-0.08298769,93.411405,104.76332)">
      <path
         inkscape:connector-curvature="0"
         id="path6757"
         style="fill:none;stroke:#d62728;stroke-width:8;stroke-linecap:square;stroke-linejoin:round;stroke-miterlimit:10;stroke-dasharray:none;stroke-opacity:1"
         d="m 57.681818,84.716129 2.561984,-0.02217 2.561983,-0.0656 2.561984,-0.107673 2.561983,-0.148388 2.561984,-0.187748 2.561983,-0.22575 2.561983,-0.262395 2.561984,-0.297682 2.561983,-0.331613 2.561984,-0.364185 2.561983,-0.395402 2.561984,-0.42526 2.561983,-0.453762 2.561984,-0.480906 2.561983,-0.506694 2.561984,-0.531123 2.561986,-0.554195 2.56198,-0.575911 2.56198,-0.59627 2.56199,-0.61527 2.56198,-0.632914 2.56199,-0.6492 2.56198,-0.66413 2.56198,-0.677703 2.56199,-0.689917 2.56198,-0.700774 2.56198,-0.710276 2.56198,-0.718418 2.56199,-0.725205 2.56198,-0.730633 2.56199,-0.734705 2.56198,-0.73742 2.56198,-0.738776 2.56199,-0.738777 2.56198,-0.73742 2.56198,-0.734705 2.56199,-0.730633 2.56198,-0.725205 2.56198,-0.718418 2.56199,-0.710276 2.56198,-0.700774 2.56198,-0.689917 2.56199,-0.677703 2.56198,-0.664129 2.56198,-0.649201 2.56199,-0.632914 2.56198,-0.61527 2.56198,-0.59627 2.56199,-0.575911 2.56198,-0.554195 2.56198,-0.531123 2.56199,-0.506694 2.56198,-0.480906 2.56199,-0.453762 2.56198,-0.42526 2.56198,-0.395401 2.56199,-0.364186 2.56198,-0.331613 2.56198,-0.297682 2.56199,-0.262395 2.56198,-0.22575 2.56198,-0.187747 2.56199,-0.148389 2.56198,-0.107673 2.56198,-0.0656 2.56199,-0.02217 2.56198,0.02262 2.56198,0.06877 2.56199,0.116268 2.56198,0.165127 2.56199,0.215345 2.56198,0.266919 2.56198,0.31985 2.56198,0.374138 2.56199,0.429785 2.56198,0.486787 2.56198,0.545148 2.56199,0.604865 2.56198,0.665939 2.56199,0.728372 2.56198,0.79216 2.56198,0.857307 2.56199,0.92381 2.56198,0.991671 2.56198,1.060889 2.56199,1.131464 2.56198,1.203396 2.56198,1.276686 2.56199,1.351332 2.56198,1.427337 2.56198,1.504698 2.56199,1.583416 2.56198,1.663492 2.56198,1.744924 2.56199,1.827715 2.56198,1.911862 2.56198,1.997366 2.56199,2.084228 2.56198,2.172447" />
    </g>
    <g
       clip-path="url(#clipPath6765)"
       id="g6761"
       transform="matrix(0.08298769,0,0,-0.08298769,93.411405,104.76332)">
      <path
         inkscape:connector-curvature="0"
         id="path6767"
         style="fill:none;stroke:#000000;stroke-width:4;stroke-linecap:square;stroke-linejoin:round;stroke-miterlimit:10;stroke-dasharray:none;stroke-opacity:1"
         d="m 57.681818,84.716129 h 2.561984 2.561983 2.561984 2.561983 2.561984 2.561983 2.561983 2.561984 2.561983 2.561984 2.561983 2.561984 2.561983 2.561984 2.561983 2.561984 2.561986 2.56198 2.56198 2.56199 2.56198 2.56199 2.56198 2.56198 2.56199 2.56198 2.56198 2.56198 2.56199 2.56198 2.56199 2.56198 2.56198 2.56199 2.56198 2.56198 2.56199 2.56198 2.56198 2.56199 2.56198 2.56198 2.56199 2.56198 2.56198 2.56199 2.56198 2.56198 2.56199 2.56198 2.56198 2.56199 2.56198 2.56199 2.56198 2.56198 2.56199 2.56198 2.56198 2.56199 2.56198 2.56198 2.56199 2.56198 2.56198 2.56199 2.56198 2.56198 2.56199 2.56198 2.56199 2.56198 2.56198 2.56198 2.56199 2.56198 2.56198 2.56199 2.56198 2.56199 2.56198 2.56198 2.56199 2.56198 2.56198 2.56199 2.56198 2.56198 2.56199 2.56198 2.56198 2.56199 2.56198 2.56198 2.56199 2.56198 2.56198 2.56199 2.56198" />
    </g>
  </g>
</svg>
