<?xml version="1.0" encoding="UTF-8" standalone="no"?>
<!-- Created with Inkscape (http://www.inkscape.org/) -->

<svg
   xmlns:dc="http://purl.org/dc/elements/1.1/"
   xmlns:cc="http://creativecommons.org/ns#"
   xmlns:rdf="http://www.w3.org/1999/02/22-rdf-syntax-ns#"
   xmlns:svg="http://www.w3.org/2000/svg"
   xmlns="http://www.w3.org/2000/svg"
   xmlns:sodipodi="http://sodipodi.sourceforge.net/DTD/sodipodi-0.dtd"
   xmlns:inkscape="http://www.inkscape.org/namespaces/inkscape"
   version="1.1"
   id="svg4093"
   xml:space="preserve"
   width="112.91555"
   height="112.91555"
   viewBox="0 0 112.91555 112.91555"
   sodipodi:docname="ansatz1.svg"
   inkscape:version="0.92.3 (2405546, 2018-03-11)"><metadata
     id="metadata4099"><rdf:RDF><cc:Work
         rdf:about=""><dc:format>image/svg+xml</dc:format><dc:type
           rdf:resource="http://purl.org/dc/dcmitype/StillImage" /><dc:title></dc:title></cc:Work></rdf:RDF></metadata><defs
     id="defs4097"><clipPath
       clipPathUnits="userSpaceOnUse"
       id="clipPath4115"><path
         d="M 0,0 H 85 V 85 H 0 Z"
         id="path4113"
         inkscape:connector-curvature="0" /></clipPath><clipPath
       clipPathUnits="userSpaceOnUse"
       id="clipPath4135"><path
         d="M 0,0 H 85 V 85 H 0 Z"
         id="path4133"
         inkscape:connector-curvature="0" /></clipPath></defs><sodipodi:namedview
     pagecolor="#ffffff"
     bordercolor="#666666"
     borderopacity="1"
     objecttolerance="10"
     gridtolerance="10"
     guidetolerance="10"
     inkscape:pageopacity="0"
     inkscape:pageshadow="2"
     inkscape:window-width="1920"
     inkscape:window-height="1053"
     id="namedview4095"
     showgrid="false"
     inkscape:zoom="2.0900576"
     inkscape:cx="56.457775"
     inkscape:cy="56.457775"
     inkscape:window-x="0"
     inkscape:window-y="0"
     inkscape:window-maximized="1"
     inkscape:current-layer="g4101" /><g
     id="g4101"
     inkscape:groupmode="layer"
     inkscape:label="ansatz1"
     transform="matrix(1.3333333,0,0,1.3333333,0,4.8228887e-6)"><path
       inkscape:connector-curvature="0"
       id="path4105"
       style="fill:#ffffff;fill-opacity:1;fill-rule:nonzero;stroke:none"
       d="M 0,0 H 84.688 V 84.688 H 0 Z" /><g
       id="g4109"><g
         id="g4111"
         clip-path="url(#clipPath4115)"><g
           id="g4117"><g
             id="g4119"
             transform="scale(1,-1)"><path
               d="m 13.57,-13.125 0.602,-0.602 0.601,-0.597 0.606,-0.598 0.601,-0.601 1.204,-1.196 0.605,-0.597 0.602,-0.602 0.601,-0.598 0.606,-0.597 0.601,-0.602 1.203,-1.195 0.606,-0.598 0.601,-0.601 0.602,-0.598 0.605,-0.598 0.602,-0.601 1.203,-1.196 0.606,-0.597 0.601,-0.602 0.602,-0.597 0.605,-0.598 0.602,-0.602 1.203,-1.195 0.605,-0.602 1.203,-1.195 0.606,-0.598 0.601,-0.601 1.204,-1.195 0.605,-0.602 1.203,-1.195 0.606,-0.598 0.601,-0.601 1.203,-1.196 0.606,-0.601 1.203,-1.196 0.605,-0.597 0.602,-0.602 1.203,-1.195 0.606,-0.602 1.203,-1.195 0.605,-0.602 1.805,-1.793 0.605,-0.601 1.203,-1.195 0.606,-0.602 1.805,-1.793 0.605,-0.602 1.203,-1.195 0.606,-0.601 1.804,-1.793 0.606,-0.602 1.203,-1.195 0.605,-0.602 1.204,-1.195 0.601,-0.602 0.606,-0.597 1.203,-1.196 0.605,-0.601 1.203,-1.196 0.602,-0.601 0.605,-0.598 1.203,-1.195 0.606,-0.602 1.203,-1.195 0.605,-0.602 1.805,-1.792 0.606,-0.602 1.203,-1.195 0.605,-0.602 1.203,-1.195"
               style="fill:none;stroke:#800000;stroke-width:1.88192594;stroke-linecap:square;stroke-linejoin:round;stroke-miterlimit:10;stroke-dasharray:none;stroke-opacity:1"
               id="path4121"
               inkscape:connector-curvature="0" /></g></g></g></g><path
       d="m 13.57,72.406 1.203,-1.195 0.606,-0.602 1.203,-1.195 0.602,-0.602 0.605,-0.597 1.203,-1.195 0.606,-0.602 1.203,-1.195 0.601,-0.602 0.606,-0.598 1.203,-1.195 0.605,-0.601 1.204,-1.196 0.601,-0.601 0.606,-0.598 1.203,-1.195 0.605,-0.602 1.203,-1.195 0.602,-0.602 0.605,-0.597 0.602,-0.598 0.601,-0.602 0.606,-0.597 1.203,-1.196 0.602,-0.601 0.605,-0.598 0.602,-0.597 0.601,-0.602 0.606,-0.598 1.203,-1.195 0.601,-0.602 0.606,-0.597 0.601,-0.598 0.602,-0.601 0.605,-0.598 1.204,-1.195 0.601,-0.602 0.606,-0.598 0.601,-0.597 0.602,-0.602 0.605,-0.597 0.602,-0.598 0.601,-0.602 0.602,-0.597 0.605,-0.598 0.602,-0.598 0.601,-0.601 0.606,-0.598 0.601,-0.598 0.602,-0.601 0.602,-0.598 0.605,-0.597 0.602,-0.598 0.601,-0.602 0.606,-0.597 0.601,-0.598 0.602,-0.601 0.601,-0.598 0.606,-0.598 0.601,-0.597 0.602,-0.602 0.605,-0.598 0.602,-0.597 0.602,-0.602 0.601,-0.598 0.606,-0.597 0.601,-0.602 0.602,-0.597 0.605,-0.598 0.602,-0.598 0.601,-0.601 0.602,-0.598 0.605,-0.598 0.602,-0.601 0.601,-0.598 0.606,-0.598 0.601,-0.597 0.602,-0.602 0.605,-0.597 0.602,-0.598 0.602,-0.602 0.601,-0.597 0.606,-0.598 0.601,-0.598 0.602,-0.601 0.605,-0.598 0.602,-0.597 0.601,-0.602"
       style="fill:none;stroke:#ffcc00;stroke-width:1.88192594;stroke-linecap:square;stroke-linejoin:round;stroke-miterlimit:10;stroke-dasharray:none;stroke-opacity:1"
       id="path4125"
       inkscape:connector-curvature="0" /><g
       id="g4129"><g
         id="g4131"
         clip-path="url(#clipPath4135)"><g
           id="g4137"><g
             id="g4139"
             transform="scale(1,-1)"><path
               d="M 13.57,-72.406 H 73.234"
               style="fill:none;stroke:#000000;stroke-width:0.94096297;stroke-linecap:square;stroke-linejoin:round;stroke-miterlimit:10;stroke-dasharray:none;stroke-opacity:1"
               id="path4141"
               inkscape:connector-curvature="0" /></g></g></g></g></g></svg>