<?xml version="1.0" encoding="UTF-8" standalone="no"?>
<!-- Created with Inkscape (http://www.inkscape.org/) -->

<svg
   xmlns:dc="http://purl.org/dc/elements/1.1/"
   xmlns:cc="http://creativecommons.org/ns#"
   xmlns:rdf="http://www.w3.org/1999/02/22-rdf-syntax-ns#"
   xmlns:svg="http://www.w3.org/2000/svg"
   xmlns="http://www.w3.org/2000/svg"
   xmlns:sodipodi="http://sodipodi.sourceforge.net/DTD/sodipodi-0.dtd"
   xmlns:inkscape="http://www.inkscape.org/namespaces/inkscape"
   version="1.1"
   id="svg850"
   xml:space="preserve"
   width="596.81244"
   height="417.04999"
   viewBox="0 0 596.81244 417.04999"
   sodipodi:docname="analytic.svg"
   inkscape:version="0.92.3 (2405546, 2018-03-11)"><metadata
     id="metadata856"><rdf:RDF><cc:Work
         rdf:about=""><dc:format>image/svg+xml</dc:format><dc:type
           rdf:resource="http://purl.org/dc/dcmitype/StillImage" /><dc:title></dc:title></cc:Work></rdf:RDF></metadata><defs
     id="defs854"><clipPath
   clipPathUnits="userSpaceOnUse"
   id="clipPath870"><path
     d="M 63,39.6 H 453.6 V 316.8 H 63 Z"
     id="path868"
     inkscape:connector-curvature="0" /></clipPath><clipPath
   clipPathUnits="userSpaceOnUse"
   id="clipPath888"><path
     d="M 63,39.6 H 453.6 V 316.8 H 63 Z"
     id="path886"
     inkscape:connector-curvature="0" /></clipPath><clipPath
   clipPathUnits="userSpaceOnUse"
   id="clipPath906"><path
     d="M 63,39.6 H 453.6 V 316.8 H 63 Z"
     id="path904"
     inkscape:connector-curvature="0" /></clipPath><clipPath
   clipPathUnits="userSpaceOnUse"
   id="clipPath924"><path
     d="M 63,39.6 H 453.6 V 316.8 H 63 Z"
     id="path922"
     inkscape:connector-curvature="0" /></clipPath><clipPath
   clipPathUnits="userSpaceOnUse"
   id="clipPath942"><path
     d="M 63,39.6 H 453.6 V 316.8 H 63 Z"
     id="path940"
     inkscape:connector-curvature="0" /></clipPath><clipPath
   clipPathUnits="userSpaceOnUse"
   id="clipPath960"><path
     d="M 63,39.6 H 453.6 V 316.8 H 63 Z"
     id="path958"
     inkscape:connector-curvature="0" /></clipPath><clipPath
   clipPathUnits="userSpaceOnUse"
   id="clipPath982"><path
     d="M 63,39.6 H 453.6 V 316.8 H 63 Z"
     id="path980"
     inkscape:connector-curvature="0" /></clipPath><clipPath
   clipPathUnits="userSpaceOnUse"
   id="clipPath1000"><path
     d="M 63,39.6 H 453.6 V 316.8 H 63 Z"
     id="path998"
     inkscape:connector-curvature="0" /></clipPath><clipPath
   clipPathUnits="userSpaceOnUse"
   id="clipPath1018"><path
     d="M 63,39.6 H 453.6 V 316.8 H 63 Z"
     id="path1016"
     inkscape:connector-curvature="0" /></clipPath><clipPath
   clipPathUnits="userSpaceOnUse"
   id="clipPath1036"><path
     d="M 63,39.6 H 453.6 V 316.8 H 63 Z"
     id="path1034"
     inkscape:connector-curvature="0" /></clipPath><clipPath
   clipPathUnits="userSpaceOnUse"
   id="clipPath1054"><path
     d="M 63,39.6 H 453.6 V 316.8 H 63 Z"
     id="path1052"
     inkscape:connector-curvature="0" /></clipPath><clipPath
   clipPathUnits="userSpaceOnUse"
   id="clipPath1072"><path
     d="M 63,39.6 H 453.6 V 316.8 H 63 Z"
     id="path1070"
     inkscape:connector-curvature="0" /></clipPath><clipPath
   clipPathUnits="userSpaceOnUse"
   id="clipPath1094"><path
     d="M 63,39.6 H 453.6 V 316.8 H 63 Z"
     id="path1092"
     inkscape:connector-curvature="0" /></clipPath><clipPath
   clipPathUnits="userSpaceOnUse"
   id="clipPath1128"><path
     d="M 63,39.6 H 453.6 V 316.8 H 63 Z"
     id="path1126"
     inkscape:connector-curvature="0" /></clipPath><clipPath
   clipPathUnits="userSpaceOnUse"
   id="clipPath1146"><path
     d="M 63,39.6 H 453.6 V 316.8 H 63 Z"
     id="path1144"
     inkscape:connector-curvature="0" /></clipPath><clipPath
   clipPathUnits="userSpaceOnUse"
   id="clipPath1164"><path
     d="M 63,39.6 H 453.6 V 316.8 H 63 Z"
     id="path1162"
     inkscape:connector-curvature="0" /></clipPath><clipPath
   clipPathUnits="userSpaceOnUse"
   id="clipPath1182"><path
     d="M 63,39.6 H 453.6 V 316.8 H 63 Z"
     id="path1180"
     inkscape:connector-curvature="0" /></clipPath><clipPath
   clipPathUnits="userSpaceOnUse"
   id="clipPath1200"><path
     d="M 63,39.6 H 453.6 V 316.8 H 63 Z"
     id="path1198"
     inkscape:connector-curvature="0" /></clipPath><clipPath
   clipPathUnits="userSpaceOnUse"
   id="clipPath1218"><path
     d="M 63,39.6 H 453.6 V 316.8 H 63 Z"
     id="path1216"
     inkscape:connector-curvature="0" /></clipPath><clipPath
   clipPathUnits="userSpaceOnUse"
   id="clipPath1240"><path
     d="M 63,39.6 H 453.6 V 316.8 H 63 Z"
     id="path1238"
     inkscape:connector-curvature="0" /></clipPath><clipPath
   clipPathUnits="userSpaceOnUse"
   id="clipPath1258"><path
     d="M 63,39.6 H 453.6 V 316.8 H 63 Z"
     id="path1256"
     inkscape:connector-curvature="0" /></clipPath><clipPath
   clipPathUnits="userSpaceOnUse"
   id="clipPath1276"><path
     d="M 63,39.6 H 453.6 V 316.8 H 63 Z"
     id="path1274"
     inkscape:connector-curvature="0" /></clipPath><clipPath
   clipPathUnits="userSpaceOnUse"
   id="clipPath1294"><path
     d="M 63,39.6 H 453.6 V 316.8 H 63 Z"
     id="path1292"
     inkscape:connector-curvature="0" /></clipPath><clipPath
   clipPathUnits="userSpaceOnUse"
   id="clipPath1312"><path
     d="M 63,39.6 H 453.6 V 316.8 H 63 Z"
     id="path1310"
     inkscape:connector-curvature="0" /></clipPath><clipPath
   clipPathUnits="userSpaceOnUse"
   id="clipPath1330"><path
     d="M 63,39.6 H 453.6 V 316.8 H 63 Z"
     id="path1328"
     inkscape:connector-curvature="0" /></clipPath><clipPath
   clipPathUnits="userSpaceOnUse"
   id="clipPath1348"><path
     d="M 63,39.6 H 453.6 V 316.8 H 63 Z"
     id="path1346"
     inkscape:connector-curvature="0" /></clipPath><clipPath
   clipPathUnits="userSpaceOnUse"
   id="clipPath1366"><path
     d="M 63,39.6 H 453.6 V 316.8 H 63 Z"
     id="path1364"
     inkscape:connector-curvature="0" /></clipPath><clipPath
   clipPathUnits="userSpaceOnUse"
   id="clipPath1384"><path
     d="M 63,39.6 H 453.6 V 316.8 H 63 Z"
     id="path1382"
     inkscape:connector-curvature="0" /></clipPath><clipPath
   clipPathUnits="userSpaceOnUse"
   id="clipPath1406"><path
     d="M 63,39.6 H 453.6 V 316.8 H 63 Z"
     id="path1404"
     inkscape:connector-curvature="0" /></clipPath><clipPath
   clipPathUnits="userSpaceOnUse"
   id="clipPath3044"><path
     d="M 63,39.6 H 453.6 V 316.8 H 63 Z"
     id="path3042"
     inkscape:connector-curvature="0" /></clipPath><clipPath
   clipPathUnits="userSpaceOnUse"
   id="clipPath2207"><path
     d="M 63,39.6 H 453.6 V 316.8 H 63 Z"
     id="path2205"
     inkscape:connector-curvature="0" /></clipPath><clipPath
   clipPathUnits="userSpaceOnUse"
   id="clipPath2219"><path
     d="m -4.5,-4.5 h 9 v 9 h -9 z"
     id="path2217"
     inkscape:connector-curvature="0" /></clipPath><clipPath
   clipPathUnits="userSpaceOnUse"
   id="clipPath2231"><path
     d="m -4.5,-4.5 h 9 v 9 h -9 z"
     id="path2229"
     inkscape:connector-curvature="0" /></clipPath><clipPath
   clipPathUnits="userSpaceOnUse"
   id="clipPath2243"><path
     d="m -4.5,-4.5 h 9 v 9 h -9 z"
     id="path2241"
     inkscape:connector-curvature="0" /></clipPath>



</defs><sodipodi:namedview
     pagecolor="#ffffff"
     bordercolor="#666666"
     borderopacity="1"
     objecttolerance="10"
     gridtolerance="10"
     guidetolerance="10"
     inkscape:pageopacity="0"
     inkscape:pageshadow="2"
     inkscape:window-width="1600"
     inkscape:window-height="837"
     id="namedview852"
     showgrid="false"
     fit-margin-top="0"
     fit-margin-left="0"
     fit-margin-right="0"
     fit-margin-bottom="0"
     inkscape:zoom="1.7625"
     inkscape:cx="309.01751"
     inkscape:cy="261.85831"
     inkscape:window-x="220"
     inkscape:window-y="1080"
     inkscape:window-maximized="1"
     inkscape:current-layer="g858" /><g
     id="g858"
     inkscape:groupmode="layer"
     inkscape:label="analytic"
     transform="matrix(1.3333333,0,0,-1.3333333,-21.588541,422.93332)"><g
   id="g1088"
   style="stroke-width:6.00000015;stroke-miterlimit:4;stroke-dasharray:none;stroke:#ff0000;stroke-opacity:1"><g
     id="g1090"
     clip-path="url(#clipPath1094)"
     style="stroke-width:6.00000015;stroke-miterlimit:4;stroke-dasharray:none;stroke:#ff0000;stroke-opacity:1"><path
       d="m 63,62.7 30.0762,0.105542 16.4052,0.283769 13.671,0.45444 12.1086,0.618768 11.3274,0.801438 10.5462,0.969431 9.765,1.114208 9.3744,1.286263 8.9838,1.449657 8.9838,1.679109 8.5932,1.836348 8.2026,1.976692 8.2026,2.208335 7.812,2.330328 7.812,2.563176 7.4214,2.660831 7.4214,2.890478 7.4214,3.129632 7.4214,3.378294 7.0308,3.438472 7.0308,3.678249 7.0308,3.92612 7.0308,4.18209 7.0308,4.44615 7.0308,4.71831 7.0308,4.99855 6.6402,4.98552 6.6402,5.24943 6.6402,5.52013 6.6402,5.79768 6.6402,6.08207 6.6402,6.37331 6.6402,6.6714 6.6402,6.97628 6.6402,7.28782 6.6402,7.6062 6.6402,7.93142 6.6402,8.2635 6.6402,8.60241 6.6402,8.94818 7.0308,9.85887 7.0308,10.26208 7.0308,10.67339 7.0308,11.0928 7.0308,11.52029 7.0308,11.95589 4.2966,7.52438 v 0"
       style="fill:none;stroke:#ff0000;stroke-width:6.00000015;stroke-linecap:square;stroke-linejoin:round;stroke-miterlimit:4;stroke-dasharray:none;stroke-opacity:1"
       id="path1096"
       inkscape:connector-curvature="0" /></g></g><g
   id="g3038"
   style="stroke:#ffdd55;stroke-width:3.75000009;stroke-miterlimit:4;stroke-dasharray:none"><g
     id="g3040"
     clip-path="url(#clipPath3044)"
     style="stroke:#ffdd55;stroke-width:3.75000009;stroke-miterlimit:4;stroke-dasharray:none"><path
       d="m 63,62.7 9.765,-0.613594 9.765,-0.397031 9.765,-0.180469 9.765,0.03609 9.765,0.252656 9.765,0.469219 9.765,0.685781 9.765,0.902344 9.765,1.118906 9.765,1.335469 9.765,1.552031 9.765,1.768594 9.765,1.985156 9.765,2.201719 9.765,2.418281 9.765,2.634844 9.765,2.851406 9.765,3.067969 9.765,3.284531 9.765,3.501094 9.765,3.934219 9.765,4.583915 9.765,5.23359 9.765,5.88328 9.765,6.53297 9.765,7.18266 9.765,7.83234 9.765,8.48203 9.765,9.13172 9.765,9.7814 9.765,10.4311 9.765,11.08078 9.765,11.73047 9.765,12.38015 9.765,13.02985 9.765,13.67953 9.765,14.32922 9.765,14.9789 9.765,15.6286"
       style="fill:none;stroke:#ffdd55;stroke-width:3.75000009;stroke-linecap:square;stroke-linejoin:round;stroke-miterlimit:4;stroke-dasharray:none;stroke-opacity:1"
       id="path3046"
       inkscape:connector-curvature="0" /></g></g><g
   id="g864"><g
     id="g866"
     clip-path="url(#clipPath870)"><path
       d="M 63,39.6 V 316.8"
       style="fill:none;stroke:#b0b0b0;stroke-width:0.80000001;stroke-linecap:square;stroke-linejoin:round;stroke-miterlimit:10;stroke-dasharray:none;stroke-opacity:1"
       id="path872"
       inkscape:connector-curvature="0" /></g></g><g
   id="g874"
   transform="matrix(1.3,0,0,1.3,-18.898615,-9.2041699)"><path
   d="M 63,39.6 V 36.1"
   style="fill:#000000;fill-opacity:1;fill-rule:nonzero;stroke:#000000;stroke-width:0.80000001;stroke-linecap:butt;stroke-linejoin:round;stroke-miterlimit:10;stroke-dasharray:none;stroke-opacity:1"
   id="path876"
   inkscape:connector-curvature="0" /><text
   transform="matrix(1,0,0,-1,51.867187,21.959375)"
   style="font-variant:normal;font-weight:normal;font-size:14px;font-family:'DejaVu Sans';-inkscape-font-specification:DejaVuSans;writing-mode:lr-tb;fill:#000000;fill-opacity:1;fill-rule:nonzero;stroke:none"
   id="text880"><tspan
     x="0 8.9040003 13.356"
     y="0"
     sodipodi:role="line"
     id="tspan878">0.0</tspan></text>

</g><g
   id="g882"><g
     id="g884"
     clip-path="url(#clipPath888)"><path
       d="M 141.12,39.6 V 316.8"
       style="fill:none;stroke:#b0b0b0;stroke-width:0.80000001;stroke-linecap:square;stroke-linejoin:round;stroke-miterlimit:10;stroke-dasharray:none;stroke-opacity:1"
       id="path890"
       inkscape:connector-curvature="0" /></g></g><g
   id="g892"
   transform="matrix(1.3,0,0,1.3,-42.263864,-9.2041699)"><path
   d="M 141.12,39.6 V 36.1"
   style="fill:#000000;fill-opacity:1;fill-rule:nonzero;stroke:#000000;stroke-width:0.80000001;stroke-linecap:butt;stroke-linejoin:round;stroke-miterlimit:10;stroke-dasharray:none;stroke-opacity:1"
   id="path894"
   inkscape:connector-curvature="0" /><text
   transform="matrix(1,0,0,-1,129.98719,21.959375)"
   style="font-variant:normal;font-weight:normal;font-size:14px;font-family:'DejaVu Sans';-inkscape-font-specification:DejaVuSans;writing-mode:lr-tb;fill:#000000;fill-opacity:1;fill-rule:nonzero;stroke:none"
   id="text898"><tspan
     x="0 8.9040003 13.356"
     y="0"
     sodipodi:role="line"
     id="tspan896">0.2</tspan></text>

</g><g
   id="g900"><g
     id="g902"
     clip-path="url(#clipPath906)"><path
       d="M 219.24,39.6 V 316.8"
       style="fill:none;stroke:#b0b0b0;stroke-width:0.80000001;stroke-linecap:square;stroke-linejoin:round;stroke-miterlimit:10;stroke-dasharray:none;stroke-opacity:1"
       id="path908"
       inkscape:connector-curvature="0" /></g></g><g
   id="g910"
   transform="matrix(1.3,0,0,1.3,-65.792149,-9.2041699)"><path
   d="M 219.24,39.6 V 36.1"
   style="fill:#000000;fill-opacity:1;fill-rule:nonzero;stroke:#000000;stroke-width:0.80000001;stroke-linecap:butt;stroke-linejoin:round;stroke-miterlimit:10;stroke-dasharray:none;stroke-opacity:1"
   id="path912"
   inkscape:connector-curvature="0" /><text
   transform="matrix(1,0,0,-1,208.10719,21.959375)"
   style="font-variant:normal;font-weight:normal;font-size:14px;font-family:'DejaVu Sans';-inkscape-font-specification:DejaVuSans;writing-mode:lr-tb;fill:#000000;fill-opacity:1;fill-rule:nonzero;stroke:none"
   id="text916"><tspan
     x="0 8.9040003 13.356"
     y="0"
     sodipodi:role="line"
     id="tspan914">0.4</tspan></text>

</g><g
   id="g918"><g
     id="g920"
     clip-path="url(#clipPath924)"><path
       d="M 297.36,39.6 V 316.8"
       style="fill:none;stroke:#b0b0b0;stroke-width:0.80000001;stroke-linecap:square;stroke-linejoin:round;stroke-miterlimit:10;stroke-dasharray:none;stroke-opacity:1"
       id="path926"
       inkscape:connector-curvature="0" /></g></g><g
   id="g928"
   transform="matrix(1.3,0,0,1.3,-89.213793,-9.2041699)"><path
   d="M 297.36,39.6 V 36.1"
   style="fill:#000000;fill-opacity:1;fill-rule:nonzero;stroke:#000000;stroke-width:0.80000001;stroke-linecap:butt;stroke-linejoin:round;stroke-miterlimit:10;stroke-dasharray:none;stroke-opacity:1"
   id="path930"
   inkscape:connector-curvature="0" /><text
   transform="matrix(1,0,0,-1,286.22719,21.959375)"
   style="font-variant:normal;font-weight:normal;font-size:14px;font-family:'DejaVu Sans';-inkscape-font-specification:DejaVuSans;writing-mode:lr-tb;fill:#000000;fill-opacity:1;fill-rule:nonzero;stroke:none"
   id="text934"><tspan
     x="0 8.9040003 13.356"
     y="0"
     sodipodi:role="line"
     id="tspan932">0.6</tspan></text>

</g><g
   id="g936"><g
     id="g938"
     clip-path="url(#clipPath942)"><path
       d="M 375.48,39.6 V 316.8"
       style="fill:none;stroke:#b0b0b0;stroke-width:0.80000001;stroke-linecap:square;stroke-linejoin:round;stroke-miterlimit:10;stroke-dasharray:none;stroke-opacity:1"
       id="path944"
       inkscape:connector-curvature="0" /></g></g><g
   id="g946"
   transform="matrix(1.3,0,0,1.3,-112.63851,-9.2041699)"><path
   d="M 375.48,39.6 V 36.1"
   style="fill:#000000;fill-opacity:1;fill-rule:nonzero;stroke:#000000;stroke-width:0.80000001;stroke-linecap:butt;stroke-linejoin:round;stroke-miterlimit:10;stroke-dasharray:none;stroke-opacity:1"
   id="path948"
   inkscape:connector-curvature="0" /><text
   transform="matrix(1,0,0,-1,364.34719,21.959375)"
   style="font-variant:normal;font-weight:normal;font-size:14px;font-family:'DejaVu Sans';-inkscape-font-specification:DejaVuSans;writing-mode:lr-tb;fill:#000000;fill-opacity:1;fill-rule:nonzero;stroke:none"
   id="text952"><tspan
     x="0 8.9040003 13.356"
     y="0"
     sodipodi:role="line"
     id="tspan950">0.8</tspan></text>

</g><g
   id="g954"><g
     id="g956"
     clip-path="url(#clipPath960)"><path
       d="M 453.6,39.6 V 316.8"
       style="fill:none;stroke:#b0b0b0;stroke-width:0.80000001;stroke-linecap:square;stroke-linejoin:round;stroke-miterlimit:10;stroke-dasharray:none;stroke-opacity:1"
       id="path962"
       inkscape:connector-curvature="0" /></g></g><path
   inkscape:connector-curvature="0"
   id="path966"
   style="fill:#000000;fill-opacity:1;fill-rule:nonzero;stroke:#000000;stroke-width:0.91214037;stroke-linecap:butt;stroke-linejoin:round;stroke-miterlimit:10;stroke-dasharray:none;stroke-opacity:1"
   d="m 453.6,40.125 v -4.55" /><text
   id="text970"
   style="font-variant:normal;font-weight:normal;font-size:18.20000076px;font-family:'DejaVu Sans';-inkscape-font-specification:DejaVuSans;writing-mode:lr-tb;fill:#000000;fill-opacity:1;fill-rule:nonzero;stroke:none;stroke-width:1.29999995"
   transform="scale(1,-1)"
   x="439.03644"
   y="-20.430517"><tspan
     id="tspan968"
     sodipodi:role="line"
     y="-20.430517"
     x="439.03644 450.61163 456.39923"
     style="stroke-width:1.29999995">1.0</tspan></text>
<text
   id="text974"
   style="font-variant:normal;font-weight:normal;font-size:18.20000076px;font-family:'DejaVu Sans';-inkscape-font-specification:DejaVuSans;writing-mode:lr-tb;fill:#000000;fill-opacity:1;fill-rule:nonzero;stroke:none;stroke-width:1.29999995"
   transform="scale(1,-1)"
   x="252.06757"
   y="-2.8815918"><tspan
     id="tspan972"
     y="-2.8815918"
     x="252.06757"
     style="stroke-width:1.29999995">X</tspan></text>
<g
   id="g976"><g
     id="g978"
     clip-path="url(#clipPath982)"><path
       d="M 63,62.7 H 453.6"
       style="fill:none;stroke:#b0b0b0;stroke-width:0.80000001;stroke-linecap:square;stroke-linejoin:round;stroke-miterlimit:10;stroke-dasharray:none;stroke-opacity:1"
       id="path984"
       inkscape:connector-curvature="0" /></g></g><g
   id="g986"
   transform="matrix(1.3,0,0,1.3,-14.648584,-18.742764)"><path
   d="M 63,62.7 H 59.5"
   style="fill:#000000;fill-opacity:1;fill-rule:nonzero;stroke:#000000;stroke-width:0.80000001;stroke-linecap:butt;stroke-linejoin:round;stroke-miterlimit:10;stroke-dasharray:none;stroke-opacity:1"
   id="path988"
   inkscape:connector-curvature="0" /><text
   transform="matrix(1,0,0,-1,33.734375,57.379687)"
   style="font-variant:normal;font-weight:normal;font-size:14px;font-family:'DejaVu Sans';-inkscape-font-specification:DejaVuSans;writing-mode:lr-tb;fill:#000000;fill-opacity:1;fill-rule:nonzero;stroke:none"
   id="text992"><tspan
     x="0 8.9040003 13.356"
     y="0"
     sodipodi:role="line"
     id="tspan990">0.0</tspan></text>

</g><g
   id="g994"><g
     id="g996"
     clip-path="url(#clipPath1000)"><path
       d="M 63,108.9 H 453.6"
       style="fill:none;stroke:#b0b0b0;stroke-width:0.80000001;stroke-linecap:square;stroke-linejoin:round;stroke-miterlimit:10;stroke-dasharray:none;stroke-opacity:1"
       id="path1002"
       inkscape:connector-curvature="0" /></g></g><g
   id="g1004"
   transform="matrix(1.3,0,0,1.3,-14.648584,-32.602764)"><path
   d="M 63,108.9 H 59.5"
   style="fill:#000000;fill-opacity:1;fill-rule:nonzero;stroke:#000000;stroke-width:0.80000001;stroke-linecap:butt;stroke-linejoin:round;stroke-miterlimit:10;stroke-dasharray:none;stroke-opacity:1"
   id="path1006"
   inkscape:connector-curvature="0" /><text
   transform="matrix(1,0,0,-1,33.734375,103.57969)"
   style="font-variant:normal;font-weight:normal;font-size:14px;font-family:'DejaVu Sans';-inkscape-font-specification:DejaVuSans;writing-mode:lr-tb;fill:#000000;fill-opacity:1;fill-rule:nonzero;stroke:none"
   id="text1010"><tspan
     x="0 8.9040003 13.356"
     y="0"
     sodipodi:role="line"
     id="tspan1008">0.2</tspan></text>

</g><g
   id="g1012"><g
     id="g1014"
     clip-path="url(#clipPath1018)"><path
       d="M 63,155.1 H 453.6"
       style="fill:none;stroke:#b0b0b0;stroke-width:0.80000001;stroke-linecap:square;stroke-linejoin:round;stroke-miterlimit:10;stroke-dasharray:none;stroke-opacity:1"
       id="path1020"
       inkscape:connector-curvature="0" /></g></g><g
   id="g1022"
   transform="matrix(1.3,0,0,1.3,-14.648584,-46.462764)"><path
   d="M 63,155.1 H 59.5"
   style="fill:#000000;fill-opacity:1;fill-rule:nonzero;stroke:#000000;stroke-width:0.80000001;stroke-linecap:butt;stroke-linejoin:round;stroke-miterlimit:10;stroke-dasharray:none;stroke-opacity:1"
   id="path1024"
   inkscape:connector-curvature="0" /><text
   transform="matrix(1,0,0,-1,33.734375,149.77969)"
   style="font-variant:normal;font-weight:normal;font-size:14px;font-family:'DejaVu Sans';-inkscape-font-specification:DejaVuSans;writing-mode:lr-tb;fill:#000000;fill-opacity:1;fill-rule:nonzero;stroke:none"
   id="text1028"><tspan
     x="0 8.9040003 13.356"
     y="0"
     sodipodi:role="line"
     id="tspan1026">0.4</tspan></text>

</g><g
   id="g1030"><g
     id="g1032"
     clip-path="url(#clipPath1036)"><path
       d="M 63,201.3 H 453.6"
       style="fill:none;stroke:#b0b0b0;stroke-width:0.80000001;stroke-linecap:square;stroke-linejoin:round;stroke-miterlimit:10;stroke-dasharray:none;stroke-opacity:1"
       id="path1038"
       inkscape:connector-curvature="0" /></g></g><g
   id="g1040"
   transform="matrix(1.3,0,0,1.3,-14.648584,-60.322764)"><path
   d="M 63,201.3 H 59.5"
   style="fill:#000000;fill-opacity:1;fill-rule:nonzero;stroke:#000000;stroke-width:0.80000001;stroke-linecap:butt;stroke-linejoin:round;stroke-miterlimit:10;stroke-dasharray:none;stroke-opacity:1"
   id="path1042"
   inkscape:connector-curvature="0" /><text
   transform="matrix(1,0,0,-1,33.734375,195.97969)"
   style="font-variant:normal;font-weight:normal;font-size:14px;font-family:'DejaVu Sans';-inkscape-font-specification:DejaVuSans;writing-mode:lr-tb;fill:#000000;fill-opacity:1;fill-rule:nonzero;stroke:none"
   id="text1046"><tspan
     x="0 8.9040003 13.356"
     y="0"
     sodipodi:role="line"
     id="tspan1044">0.6</tspan></text>

</g><g
   id="g1048"><g
     id="g1050"
     clip-path="url(#clipPath1054)"><path
       d="M 63,247.5 H 453.6"
       style="fill:none;stroke:#b0b0b0;stroke-width:0.80000001;stroke-linecap:square;stroke-linejoin:round;stroke-miterlimit:10;stroke-dasharray:none;stroke-opacity:1"
       id="path1056"
       inkscape:connector-curvature="0" /></g></g><g
   id="g1058"
   transform="matrix(1.3,0,0,1.3,-14.648584,-74.182764)"><path
   d="M 63,247.5 H 59.5"
   style="fill:#000000;fill-opacity:1;fill-rule:nonzero;stroke:#000000;stroke-width:0.80000001;stroke-linecap:butt;stroke-linejoin:round;stroke-miterlimit:10;stroke-dasharray:none;stroke-opacity:1"
   id="path1060"
   inkscape:connector-curvature="0" /><text
   transform="matrix(1,0,0,-1,33.734375,242.17969)"
   style="font-variant:normal;font-weight:normal;font-size:14px;font-family:'DejaVu Sans';-inkscape-font-specification:DejaVuSans;writing-mode:lr-tb;fill:#000000;fill-opacity:1;fill-rule:nonzero;stroke:none"
   id="text1064"><tspan
     x="0 8.9040003 13.356"
     y="0"
     sodipodi:role="line"
     id="tspan1062">0.8</tspan></text>

</g><g
   id="g1066"><g
     id="g1068"
     clip-path="url(#clipPath1072)"><path
       d="M 63,293.7 H 453.6"
       style="fill:none;stroke:#b0b0b0;stroke-width:0.80000001;stroke-linecap:square;stroke-linejoin:round;stroke-miterlimit:10;stroke-dasharray:none;stroke-opacity:1"
       id="path1074"
       inkscape:connector-curvature="0" /></g></g><path
   inkscape:connector-curvature="0"
   id="path1078"
   style="fill:#000000;fill-opacity:1;fill-rule:nonzero;stroke:#000000;stroke-width:0.80000001;stroke-linecap:butt;stroke-linejoin:round;stroke-miterlimit:10;stroke-dasharray:none;stroke-opacity:1"
   d="M 63,293.7 H 59.5" /><text
   id="text1082"
   style="font-variant:normal;font-weight:normal;font-size:18.20000076px;font-family:'DejaVu Sans';-inkscape-font-specification:DejaVuSans;writing-mode:lr-tb;fill:#000000;fill-opacity:1;fill-rule:nonzero;stroke:none;stroke-width:1.29999995"
   transform="scale(1,-1)"
   x="30.303631"
   y="-286.85083"><tspan
     id="tspan1080"
     sodipodi:role="line"
     y="-286.85083"
     x="30.303631 41.87883 47.666431"
     style="stroke-width:1.29999995">1.0</tspan></text>
<path
   inkscape:connector-curvature="0"
   id="path1100"
   style="fill:none;stroke:#000000;stroke-width:0.80000001;stroke-linecap:square;stroke-linejoin:miter;stroke-miterlimit:10;stroke-dasharray:none;stroke-opacity:1"
   d="M 63,39.6 V 316.8" /><path
   inkscape:connector-curvature="0"
   id="path1102"
   style="fill:none;stroke:#000000;stroke-width:0.80000001;stroke-linecap:square;stroke-linejoin:miter;stroke-miterlimit:10;stroke-dasharray:none;stroke-opacity:1"
   d="M 453.6,39.6 V 316.8" /><path
   inkscape:connector-curvature="0"
   id="path1104"
   style="fill:none;stroke:#000000;stroke-width:0.80000001;stroke-linecap:square;stroke-linejoin:miter;stroke-miterlimit:10;stroke-dasharray:none;stroke-opacity:1"
   d="M 63,39.6 H 453.6" /><path
   inkscape:connector-curvature="0"
   id="path1106"
   style="fill:none;stroke:#000000;stroke-width:0.80000001;stroke-linecap:square;stroke-linejoin:miter;stroke-miterlimit:10;stroke-dasharray:none;stroke-opacity:1"
   d="M 63,316.8 H 453.6" /><path
   d="m 63,62.699997 195.3,28.875 L 453.6,293.7"
   style="fill:none;stroke:#0000ff;stroke-width:3.75000009;stroke-linecap:round;stroke-linejoin:round;stroke-miterlimit:4;stroke-dasharray:none;stroke-opacity:1"
   id="path2209"
   inkscape:connector-curvature="0" /><g
   style="stroke:#0000ff;stroke-width:1.57557511;stroke-linecap:round;stroke-miterlimit:4;stroke-dasharray:none;stroke-opacity:1"
   id="g2213"
   transform="matrix(1.8738872,0,0,1.8738872,63,62.699997)"><g
     style="stroke:#0000ff;stroke-width:1.57557511;stroke-linecap:round;stroke-miterlimit:4;stroke-dasharray:none;stroke-opacity:1"
     clip-path="url(#clipPath2219)"
     id="g2215"><path
       inkscape:connector-curvature="0"
       id="path2221"
       style="fill:#0000ff;fill-opacity:1;fill-rule:nonzero;stroke:#0000ff;stroke-width:1.57557511;stroke-linecap:round;stroke-linejoin:round;stroke-miterlimit:4;stroke-dasharray:none;stroke-opacity:1"
       d="M -4,0 H 4 M 0,-4 v 8" /></g></g><g
   style="stroke:#0000ff;stroke-width:1.57557511;stroke-linecap:round;stroke-miterlimit:4;stroke-dasharray:none;stroke-opacity:1"
   clip-path="url(#clipPath2231)"
   id="g2227"
   transform="matrix(1.8738872,0,0,1.8738872,258.3,91.574997)"><path
     inkscape:connector-curvature="0"
     id="path2233"
     style="fill:#0000ff;fill-opacity:1;fill-rule:nonzero;stroke:#0000ff;stroke-width:1.57557511;stroke-linecap:round;stroke-linejoin:round;stroke-miterlimit:4;stroke-dasharray:none;stroke-opacity:1"
     d="M -4,0 H 4 M 0,-4 v 8" /></g><g
   id="g2235"
   transform="matrix(1.8738872,0,0,1.8738872,453.6,293.7)"
   style="stroke:#0000ff;stroke-width:1.57557511;stroke-linecap:round;stroke-miterlimit:4;stroke-dasharray:none;stroke-opacity:1"><g
     id="g2237"
     style="stroke:#0000ff;stroke-width:1.57557511;stroke-linecap:round;stroke-miterlimit:4;stroke-dasharray:none;stroke-opacity:1"><g
       id="g2239"
       clip-path="url(#clipPath2243)"
       style="stroke:#0000ff;stroke-width:1.57557511;stroke-linecap:round;stroke-miterlimit:4;stroke-dasharray:none;stroke-opacity:1"><path
         d="M -4,0 H 4 M 0,-4 v 8"
         style="fill:#0000ff;fill-opacity:1;fill-rule:nonzero;stroke:#0000ff;stroke-width:1.57557511;stroke-linecap:round;stroke-linejoin:round;stroke-miterlimit:4;stroke-dasharray:none;stroke-opacity:1"
         id="path2245"
         inkscape:connector-curvature="0" /></g></g></g>

<path
   inkscape:connector-curvature="0"
   id="path5315"
   style="fill:#ffffff;fill-opacity:0.8;fill-rule:nonzero;stroke:#cccccc;stroke-width:1.67738259;stroke-linecap:butt;stroke-linejoin:miter;stroke-miterlimit:10;stroke-dasharray:none;stroke-opacity:0.8"
   d="m 80.01513,211.60582 h 253.99241 c 2.23652,0 3.35476,1.11826 3.35476,3.35476 v 77.74487 c 0,2.23651 -1.11824,3.35477 -3.35476,3.35477 H 80.01513 c -2.23651,0 -3.354765,-1.11826 -3.354765,-3.35477 v -77.74487 c 0,-2.2365 1.118255,-3.35476 3.354765,-3.35476 z"
   sodipodi:nodetypes="sssssssss" /><path
   inkscape:connector-curvature="0"
   id="path5317"
   style="fill:none;stroke:#ff0000;stroke-width:2.51607394;stroke-linecap:square;stroke-linejoin:round;stroke-miterlimit:10;stroke-dasharray:none;stroke-opacity:1;opacity:0.92"
   d="M 83.369895,282.4839 H 116.91754" /><text
   id="text5321"
   style="font-variant:normal;font-weight:normal;font-size:16.7738266px;font-family:'DejaVu Sans';-inkscape-font-specification:DejaVuSans;writing-mode:lr-tb;fill:#000000;fill-opacity:1;fill-rule:nonzero;stroke:none;stroke-width:1.67738259"
   transform="scale(1,-1)"
   x="130.33661"
   y="-276.61307"><tspan
     id="tspan5319"
     sodipodi:role="line"
     y="-276.61307"
     x="130.33661 141.80989 152.4445 162.72685 167.38998 177.32008 183.89542 188.55855 197.78415 203.11824 211.85739 222.12299 226.7861 237.4207 243.99605 248.65916 258.92477"
     style="stroke-width:1.67738259">Analytic solution</tspan></text>
<path
   inkscape:connector-curvature="0"
   id="path5329"
   style="fill:none;stroke:#ffdd55;stroke-width:2.51607394;stroke-linecap:square;stroke-linejoin:round;stroke-miterlimit:10;stroke-dasharray:none;stroke-opacity:1"
   d="M 83.369895,257.03717 H 116.91754" /><text
   id="text5333"
   style="font-variant:normal;font-weight:normal;font-size:16.7738266px;font-family:'DejaVu Sans';-inkscape-font-specification:DejaVuSans;writing-mode:lr-tb;fill:#000000;fill-opacity:1;fill-rule:nonzero;stroke:none;stroke-width:1.67738259"
   transform="scale(1,-1)"
   x="130.33661"
   y="-251.16637"><tspan
     id="tspan5331"
     sodipodi:role="line"
     y="-251.16637"
     x="130.33661 143.53761 154.17221 164.45456 175.10596 182 192.28233 198.85767 203.52081 212.74641 218.08049 228.73187 233.39499 242.13414 251.35976 258.25378 268.5697 275.14505 279.80817 288.61444 298.89676 305.47214 310.13525 320.40082"
     style="stroke-width:1.67738259">Quadratic discretization</tspan></text>
<path
   inkscape:connector-curvature="0"
   id="path5335"
   style="fill:none;stroke:#0000ff;stroke-width:2.51607394;stroke-linecap:square;stroke-linejoin:round;stroke-miterlimit:10;stroke-dasharray:none;stroke-opacity:1"
   d="M 83.369895,232.42681 H 116.91754" /><text
   id="text5339"
   style="font-variant:normal;font-weight:normal;font-size:16.7738266px;font-family:'DejaVu Sans';-inkscape-font-specification:DejaVuSans;writing-mode:lr-tb;fill:#000000;fill-opacity:1;fill-rule:nonzero;stroke:none;stroke-width:1.67738259"
   transform="scale(1,-1)"
   x="130.33661"
   y="-226.55589"><tspan
     id="tspan5337"
     sodipodi:role="line"
     y="-226.55589"
     x="130.33661 139.67963 144.34274 154.97736 165.29326 175.57562 182.46967 187.80373 198.45511 203.11824 211.85739 221.08299 227.97704 238.29295 244.86829 249.5314 258.33768 268.62003 275.19537 279.85849 290.12405"
     style="stroke-width:1.67738259">Linear discretization</tspan></text>

</g></svg>